<svg width="266" height="200" viewBox="0 0 266 200" fill="none" xmlns="http://www.w3.org/2000/svg">
<rect width="266" height="200" rx="16" fill="#FEFAEB"/>
<mask id="mask0_21_1474" style="mask-type:luminance" maskUnits="userSpaceOnUse" x="33" y="0" width="200" height="200">
<path d="M233 0H33V200H233V0Z" fill="white"/>
</mask>
<g mask="url(#mask0_21_1474)">
<path d="M131.262 174.4C77.3135 174.525 43.5858 138.646 53.0641 73.581C62.5104 7.87212 109.329 16.5084 148.379 24.873C188.143 33.4142 197.992 46.3123 207.171 99.8739C216.291 154.013 184.412 174.481 131.262 174.4Z" fill="white" fill-opacity="0.15"/>
<path d="M120.269 33.4833C168.162 28.2871 201.426 56.9673 199.022 115.636C196.706 174.874 154.334 171.618 118.886 167.872C82.7885 164.036 72.8511 153.511 59.7505 106.815C46.6499 59.6014 73.0655 38.4218 120.269 33.4833Z" fill="white" fill-opacity="0.2"/>
<g opacity="0.99">
<path d="M185.235 81.1165L185.222 135.834C185.222 136.64 185.077 137.417 184.82 138.132C183.882 140.74 181.378 142.603 178.452 142.603L83.4213 142.583C80.4807 142.583 77.975 140.695 77.0502 138.071C76.7969 137.363 76.6641 136.604 76.6601 135.811L76.6727 81.117C76.6733 79.5333 77.216 78.5784 78.1238 77.4265C79.199 76.0618 116.734 76.9723 126.965 76.5386C128.517 76.4727 130.303 76.4716 131.861 76.5367C142.124 76.964 182.526 75.4747 183.604 76.731C184.616 77.9093 185.229 79.4402 185.235 81.1165ZM185.235 81.1165L185.222 135.834C185.222 136.64 185.077 137.417 184.82 138.132C183.882 140.74 181.378 142.603 178.452 142.603L83.4213 142.583C80.4807 142.583 77.975 140.695 77.0502 138.071C76.7969 137.363 76.6641 136.604 76.6601 135.811L76.6727 81.117C76.6733 79.5333 77.216 78.5784 78.1238 77.4265C79.199 76.0618 116.734 76.9723 126.965 76.5386C128.517 76.4727 130.303 76.4716 131.861 76.5367C142.124 76.964 182.526 75.4747 183.604 76.731C184.616 77.9093 185.229 79.4402 185.235 81.1165Z" fill="black" fill-opacity="0.2"/>
<path d="M187.027 79.6606L187.014 134.378C187.014 135.184 186.869 135.961 186.612 136.676C185.674 139.284 183.17 141.147 180.244 141.147L85.2131 141.127C82.2725 141.128 79.7668 139.239 78.842 136.615C78.5888 135.907 78.4559 135.148 78.452 134.355L78.4645 79.6611C78.4651 78.0774 79.0078 77.1225 79.9157 75.9706C80.9908 74.6059 119.925 46.2273 130.157 38.779C131.708 37.6496 133.495 37.6418 135.053 38.7556C145.315 46.0944 184.318 74.0188 185.396 75.2751C186.407 76.4534 187.02 77.9843 187.027 79.6606ZM187.027 79.6606L187.014 134.378C187.014 135.184 186.869 135.961 186.612 136.676C185.674 139.284 183.17 141.147 180.244 141.147L85.2131 141.127C82.2725 141.128 79.7668 139.239 78.842 136.615C78.5888 135.907 78.4559 135.148 78.452 134.355L78.4645 79.6611C78.4651 78.0774 79.0078 77.1225 79.9157 75.9706C80.9908 74.6059 119.925 46.2273 130.157 38.779C131.708 37.6496 133.495 37.6418 135.053 38.7556C145.315 46.0944 184.318 74.0188 185.396 75.2751C186.407 76.4534 187.02 77.9843 187.027 79.6606Z" fill="#F7C60D"/>
<path d="M182.27 54.5796L182.305 110.202C182.306 112.773 180.222 114.859 177.65 114.861L88.3672 114.983C85.7954 114.985 83.7088 112.901 83.7071 110.329L83.6718 54.7076C83.6701 52.1358 85.7547 50.0495 88.3264 50.0478L177.61 49.9259C180.182 49.9241 182.268 52.0079 182.27 54.5796ZM182.27 54.5796L182.305 110.202C182.306 112.773 180.222 114.859 177.65 114.861L88.3672 114.983C85.7954 114.985 83.7088 112.901 83.7071 110.329L83.6718 54.7076C83.6701 52.1358 85.7547 50.0495 88.3264 50.0478L177.61 49.9259C180.182 49.9241 182.268 52.0079 182.27 54.5796Z" fill="#FDFEFF"/>
<path d="M97.7273 69.2475L165.799 69.2403M97.7267 58.7723L129.6 58.8204M98.3552 100.8L166.422 100.79M98.3497 90.3253L130.227 90.3734M98.1469 90.283L166.214 90.2728M98.1414 79.8084L130.019 79.8565M97.9385 79.766L166.005 79.7559M97.933 69.2914L129.811 69.3395" stroke="#CC26DD" stroke-width="4" stroke-linecap="round" stroke-linejoin="round"/>
<path d="M187.026 80.1606L187.014 134.378C187.014 135.184 186.869 135.96 186.612 136.676C185.674 139.284 183.171 141.147 180.244 141.147L85.2133 141.127C82.2727 141.127 79.767 139.239 78.8422 136.615C78.589 135.907 78.4561 135.148 78.4522 134.355L78.4649 80.1612C78.467 76.4186 81.4998 75.2004 85.2276 77.4917L132.199 107.102L180.258 77.5118C183.8 75.4006 187.012 76.4255 187.026 80.1606ZM187.026 80.1606L187.014 134.378C187.014 135.184 186.869 135.96 186.612 136.676C185.674 139.284 183.171 141.147 180.244 141.147L85.2133 141.127C82.2727 141.127 79.767 139.239 78.8422 136.615C78.589 135.907 78.4561 135.148 78.4522 134.355L78.4649 80.1612C78.467 76.4186 81.4998 75.2004 85.2276 77.4917L132.199 107.102L180.258 77.5118C183.8 75.4006 187.012 76.4255 187.026 80.1606ZM186.612 136.559C185.675 139.235 183.171 141.147 180.244 141.147L85.2135 141.126C82.2729 141.127 79.7667 139.189 78.8422 136.497L128.675 103.098C128.675 103.098 130.977 101.6 132.863 101.622C134.75 101.644 136.754 103.196 136.754 103.196L186.612 136.559ZM186.612 136.559C185.675 139.235 183.171 141.147 180.244 141.147L85.2135 141.126C82.2729 141.127 79.7667 139.189 78.8422 136.497L128.675 103.098C128.675 103.098 130.977 101.6 132.863 101.622C134.75 101.644 136.754 103.196 136.754 103.196L186.612 136.559ZM186.612 136.676C185.674 139.284 183.171 141.147 180.244 141.147L85.2133 141.127C82.2727 141.127 79.767 139.239 78.8422 136.615L128.675 104.067C128.675 104.067 130.976 102.607 132.863 102.629C134.75 102.65 136.755 104.163 136.755 104.163L186.612 136.676ZM186.612 136.676C185.674 139.284 183.171 141.147 180.244 141.147L85.2133 141.127C82.2727 141.127 79.767 139.239 78.8422 136.615L128.675 104.067C128.675 104.067 130.976 102.607 132.863 102.629C134.75 102.65 136.755 104.163 136.755 104.163L186.612 136.676ZM82.0531 75.1623C82.0521 75.1633 82.048 75.1676 82.0451 75.1702C82.0451 75.1702 82.0445 75.1721 82.0449 75.173C82.0451 75.1744 82.0449 75.1751 82.0449 75.1751L82.0618 75.1747C82.0618 75.1747 82.0624 75.1749 82.0624 75.1728C82.0626 75.1722 82.0623 75.1707 82.0623 75.1707C82.0597 75.1678 82.0544 75.1627 82.0531 75.1623ZM82.0531 75.1623C82.0521 75.1633 82.048 75.1676 82.0451 75.1702C82.0451 75.1702 82.0445 75.1721 82.0449 75.173C82.0451 75.1744 82.0449 75.1751 82.0449 75.1751L82.0618 75.1747C82.0618 75.1747 82.0624 75.1749 82.0624 75.1728C82.0626 75.1722 82.0623 75.1707 82.0623 75.1707C82.0597 75.1678 82.0544 75.1627 82.0531 75.1623Z" fill="#F7C60D"/>
<path d="M186.612 136.559C185.674 139.235 183.17 141.147 180.244 141.147L85.2134 141.126C82.2727 141.127 79.7665 139.189 78.842 136.497L128.675 103.098C128.675 103.098 130.977 101.6 132.863 101.622C134.749 101.643 136.754 103.196 136.754 103.196L186.612 136.559ZM186.612 136.559C185.674 139.235 183.17 141.147 180.244 141.147L85.2134 141.126C82.2727 141.127 79.7665 139.189 78.842 136.497L128.675 103.098C128.675 103.098 130.977 101.6 132.863 101.622C134.749 101.643 136.754 103.196 136.754 103.196L186.612 136.559ZM186.612 136.676C185.674 139.284 183.17 141.147 180.244 141.147L85.2134 141.126C82.2727 141.127 79.7669 139.239 78.8421 136.615L128.674 104.067C128.674 104.067 130.976 102.607 132.863 102.629C134.75 102.65 136.755 104.163 136.755 104.163L186.612 136.676ZM186.612 136.676C185.674 139.284 183.17 141.147 180.244 141.147L85.2134 141.126C82.2727 141.127 79.7669 139.239 78.8421 136.615L128.674 104.067C128.674 104.067 130.976 102.607 132.863 102.629C134.75 102.65 136.755 104.163 136.755 104.163L186.612 136.676ZM82.0529 75.1622C82.0519 75.1633 82.0478 75.1676 82.0449 75.1702C82.0449 75.1702 82.0443 75.1721 82.0447 75.1729C82.045 75.1744 82.0448 75.175 82.0448 75.175L82.0616 75.1747C82.0616 75.1747 82.0622 75.1749 82.0622 75.1728C82.0624 75.1721 82.0621 75.1707 82.0621 75.1707C82.0596 75.1678 82.0542 75.1626 82.0529 75.1622ZM82.0529 75.1622C82.0519 75.1633 82.0478 75.1676 82.0449 75.1702C82.0449 75.1702 82.0443 75.1721 82.0447 75.1729C82.045 75.1744 82.0448 75.175 82.0448 75.175L82.0616 75.1747C82.0616 75.1747 82.0622 75.1749 82.0622 75.1728C82.0624 75.1721 82.0621 75.1707 82.0621 75.1707C82.0596 75.1678 82.0542 75.1626 82.0529 75.1622Z" fill="#202020" fill-opacity="0.3"/>
<path d="M186.612 136.676C185.674 139.284 183.17 141.147 180.244 141.147L85.2132 141.127C82.2725 141.127 79.7669 139.239 78.8421 136.615L128.674 104.067C128.674 104.067 130.976 102.607 132.863 102.629C134.75 102.65 136.755 104.163 136.755 104.163L186.612 136.676ZM186.612 136.676C185.674 139.284 183.17 141.147 180.244 141.147L85.2132 141.127C82.2725 141.127 79.7669 139.239 78.8421 136.615L128.674 104.067C128.674 104.067 130.976 102.607 132.863 102.629C134.75 102.65 136.755 104.163 136.755 104.163L186.612 136.676ZM82.0529 75.1622C82.0519 75.1633 82.0478 75.1676 82.0449 75.1702C82.0449 75.1702 82.0443 75.1721 82.0447 75.1729C82.045 75.1744 82.0448 75.175 82.0448 75.175L82.0616 75.1747C82.0616 75.1747 82.0622 75.1749 82.0622 75.1728C82.0624 75.1721 82.0621 75.1707 82.0621 75.1707C82.0596 75.1678 82.0542 75.1626 82.0529 75.1622ZM82.0529 75.1622C82.0519 75.1633 82.0478 75.1676 82.0449 75.1702C82.0449 75.1702 82.0443 75.1721 82.0447 75.1729C82.045 75.1744 82.0448 75.175 82.0448 75.175L82.0616 75.1747C82.0616 75.1747 82.0622 75.1749 82.0622 75.1728C82.0624 75.1721 82.0621 75.1707 82.0621 75.1707C82.0596 75.1678 82.0542 75.1626 82.0529 75.1622Z" fill="#F4D35C"/>
</g>
<path d="M94.1946 87.175C98.8597 87.682 102.236 91.8813 101.729 96.5465C101.222 101.212 97.0224 104.588 92.3573 104.081C87.6922 103.574 84.3161 99.3743 84.8231 94.7092C85.3301 90.0441 89.5294 86.668 94.1946 87.175Z" fill="black" fill-opacity="0.18"/>
<path d="M94.8865 85.7677C99.5516 86.2747 102.928 90.4741 102.421 95.1392C101.914 99.8044 97.7143 103.18 93.0492 102.673C88.3841 102.166 85.008 97.9671 85.515 93.302C86.022 88.6368 90.2213 85.2608 94.8865 85.7677ZM95.8602 99.0536C95.1092 99.3492 94.1291 99.4405 93.2235 99.342C90.5776 99.0545 88.8607 97.1609 89.183 94.1953C89.5516 90.8035 92.1628 88.9312 94.8799 89.2265C97.6324 89.5256 98.929 91.4812 98.6781 93.7898C98.4561 95.832 97.3898 96.7139 96.6295 96.6037C96.1342 96.5319 96.062 96.039 96.3535 95.0105L97.2432 91.7832C96.8262 91.4864 95.9596 91.1945 95.1783 91.1095C92.6211 90.8316 90.8085 92.6291 90.5731 94.7956C90.4148 96.2518 91.1569 97.1948 92.3113 97.3203C93.2524 97.4226 94.1016 97.0478 94.7506 96.2019L94.7861 96.2057C94.7726 97.1566 95.3301 97.6483 96.1648 97.7391C98.0826 97.9475 99.7163 96.472 99.998 93.8793C100.322 90.896 98.3183 88.504 95.1929 88.1644C91.1795 87.7282 88.2097 90.5858 87.816 94.2085C87.4378 97.6891 89.8009 100.084 92.7485 100.404C94.0094 100.541 94.9503 100.482 96.0678 100.118L95.8602 99.0536ZM94.8523 94.2724C94.5806 95.285 93.7974 96.0444 93.1404 95.973C92.5545 95.9093 92.2988 95.4503 92.3721 94.7755C92.5207 93.4081 93.5696 92.3542 94.7417 92.4816C94.9724 92.5066 95.1461 92.5614 95.2843 92.6124L94.8523 94.2724Z" fill="white"/>
<path d="M95.8601 99.0536C95.1092 99.3493 94.129 99.4405 93.2234 99.3421C90.5775 99.0545 88.8607 97.161 89.183 94.1953C89.5516 90.8035 92.1628 88.9312 94.8798 89.2265C97.6323 89.5256 98.9289 91.4812 98.678 93.7898C98.4561 95.832 97.3898 96.714 96.6294 96.6037C96.1342 96.532 96.062 96.039 96.3534 95.0106L97.2432 91.7832C96.8262 91.4864 95.9595 91.1945 95.1782 91.1096C92.621 90.8317 90.8085 92.6292 90.573 94.7956C90.4148 96.2518 91.1569 97.1949 92.3112 97.3203C93.2524 97.4226 94.1016 97.0478 94.7506 96.2019L94.786 96.2058C94.7726 97.1566 95.33 97.6484 96.1647 97.7391C98.0825 97.9475 99.7162 96.472 99.998 93.8794C100.322 90.896 98.3182 88.5041 95.1929 88.1644C91.1795 87.7283 88.2097 90.5858 87.816 94.2085C87.4377 97.6892 89.8008 100.084 92.7485 100.404C94.0094 100.542 94.9502 100.482 96.0678 100.118L95.8601 99.0536ZM94.8523 94.2724C94.5805 95.2851 93.7973 96.0444 93.1403 95.973C92.5544 95.9093 92.2988 95.4504 92.3721 94.7755C92.5207 93.4082 93.5696 92.3542 94.7416 92.4816C94.9723 92.5067 95.1461 92.5614 95.2842 92.6124L94.8523 94.2724Z" fill="#F7C60D"/>
<path d="M184.329 115.257V130.181C184.329 131.086 183.594 131.821 182.688 131.821H142.098C141.193 131.821 140.458 131.086 140.458 130.181V115.257C140.458 114.351 141.193 113.617 142.098 113.617H182.688C183.594 113.617 184.329 114.351 184.329 115.257ZM184.329 115.257V130.181C184.329 131.086 183.594 131.821 182.688 131.821H142.098C141.193 131.821 140.458 131.086 140.458 130.181V115.257C140.458 114.351 141.193 113.617 142.098 113.617H182.688C183.594 113.617 184.329 114.351 184.329 115.257ZM185.312 114.273V129.197C185.312 130.102 184.578 130.837 183.673 130.837H143.082C142.177 130.837 141.442 130.102 141.442 129.197V114.273C141.442 113.367 142.177 112.633 143.082 112.633H183.673C184.578 112.633 185.312 113.367 185.312 114.273ZM185.312 114.273V129.197C185.312 130.102 184.578 130.837 183.673 130.837H143.082C142.177 130.837 141.442 130.102 141.442 129.197V114.273C141.442 113.367 142.177 112.633 143.082 112.633H183.673C184.578 112.633 185.312 113.367 185.312 114.273ZM151.241 114.068C155.473 114.068 158.908 117.503 158.908 121.735C158.908 125.966 155.473 129.402 151.241 129.402C147.01 129.402 143.574 125.966 143.574 121.735C143.574 117.503 147.01 114.068 151.241 114.068ZM151.241 114.068C155.473 114.068 158.908 117.503 158.908 121.735C158.908 125.966 155.473 129.402 151.241 129.402C147.01 129.402 143.574 125.966 143.574 121.735C143.574 117.503 147.01 114.068 151.241 114.068ZM151.241 116.487C152.985 116.487 154.398 117.9 154.398 119.644C154.398 121.081 153.438 122.936 152.123 123.542C151.987 123.605 155.997 123.969 156.172 126.205C155.382 127.29 153.435 128.336 151.241 128.336C148.884 128.336 146.916 127.003 146.157 126.154C146.26 123.908 150.386 123.562 150.214 123.469C148.975 122.797 148.084 121.027 148.084 119.644C148.084 117.9 149.498 116.487 151.241 116.487ZM151.241 116.487C152.985 116.487 154.398 117.9 154.398 119.644C154.398 121.081 153.438 122.936 152.123 123.542C151.987 123.605 155.997 123.969 156.172 126.205C155.382 127.29 153.435 128.336 151.241 128.336C148.884 128.336 146.916 127.003 146.157 126.154C146.26 123.908 150.386 123.562 150.214 123.469C148.975 122.797 148.084 121.027 148.084 119.644C148.084 117.9 149.498 116.487 151.241 116.487Z" fill="black" fill-opacity="0.17"/>
<path d="M185.312 114.273V129.197C185.312 130.102 184.577 130.837 183.672 130.837H143.082C142.177 130.837 141.442 130.102 141.442 129.197V114.273C141.442 113.367 142.177 112.633 143.082 112.633H183.672C184.577 112.633 185.312 113.367 185.312 114.273ZM185.312 114.273V129.197C185.312 130.102 184.577 130.837 183.672 130.837H143.082C142.177 130.837 141.442 130.102 141.442 129.197V114.273C141.442 113.367 142.177 112.633 143.082 112.633H183.672C184.577 112.633 185.312 113.367 185.312 114.273ZM151.241 114.068C155.472 114.068 158.908 117.503 158.908 121.735C158.908 125.966 155.472 129.402 151.241 129.402C147.009 129.402 143.574 125.966 143.574 121.735C143.574 117.503 147.009 114.068 151.241 114.068ZM151.241 114.068C155.472 114.068 158.908 117.503 158.908 121.735C158.908 125.966 155.472 129.402 151.241 129.402C147.009 129.402 143.574 125.966 143.574 121.735C143.574 117.503 147.009 114.068 151.241 114.068ZM151.241 116.487C152.984 116.487 154.398 117.9 154.398 119.644C154.398 121.081 153.437 122.936 152.122 123.542C151.986 123.605 155.997 123.969 156.172 126.205C155.382 127.29 153.434 128.336 151.241 128.336C148.883 128.336 146.915 127.003 146.157 126.154C146.259 123.908 150.385 123.562 150.213 123.469C148.974 122.797 148.084 121.027 148.084 119.644C148.084 117.9 149.497 116.487 151.241 116.487ZM151.241 116.487C152.984 116.487 154.398 117.9 154.398 119.644C154.398 121.081 153.437 122.936 152.122 123.542C151.986 123.605 155.997 123.969 156.172 126.205C155.382 127.29 153.434 128.336 151.241 128.336C148.883 128.336 146.915 127.003 146.157 126.154C146.259 123.908 150.385 123.562 150.213 123.469C148.974 122.797 148.084 121.027 148.084 119.644C148.084 117.9 149.497 116.487 151.241 116.487Z" fill="white"/>
<path d="M151.241 114.068C155.473 114.068 158.908 117.503 158.908 121.735C158.908 125.966 155.473 129.402 151.241 129.402C147.01 129.402 143.574 125.966 143.574 121.735C143.574 117.503 147.01 114.068 151.241 114.068ZM151.241 114.068C155.473 114.068 158.908 117.503 158.908 121.735C158.908 125.966 155.473 129.402 151.241 129.402C147.01 129.402 143.574 125.966 143.574 121.735C143.574 117.503 147.01 114.068 151.241 114.068ZM151.241 116.487C152.985 116.487 154.398 117.9 154.398 119.644C154.398 121.081 153.437 122.936 152.123 123.542C151.986 123.605 155.997 123.969 156.172 126.205C155.382 127.29 153.435 128.336 151.241 128.336C148.884 128.336 146.916 127.003 146.157 126.154C146.26 123.908 150.386 123.562 150.213 123.469C148.974 122.797 148.084 121.027 148.084 119.644C148.084 117.9 149.498 116.487 151.241 116.487ZM151.241 116.487C152.985 116.487 154.398 117.9 154.398 119.644C154.398 121.081 153.437 122.936 152.123 123.542C151.986 123.605 155.997 123.969 156.172 126.205C155.382 127.29 153.435 128.336 151.241 128.336C148.884 128.336 146.916 127.003 146.157 126.154C146.26 123.908 150.386 123.562 150.213 123.469C148.974 122.797 148.084 121.027 148.084 119.644C148.084 117.9 149.498 116.487 151.241 116.487Z" fill="#A254D5"/>
<path d="M151.241 116.487C152.985 116.487 154.398 117.9 154.398 119.644C154.398 121.081 153.437 122.936 152.123 123.542C151.986 123.605 155.997 123.969 156.172 126.205C155.382 127.29 153.435 128.336 151.241 128.336C148.883 128.336 146.916 127.003 146.157 126.154C146.26 123.908 150.385 123.562 150.213 123.469C148.974 122.797 148.084 121.027 148.084 119.644C148.084 117.9 149.498 116.487 151.241 116.487ZM151.241 116.487C152.985 116.487 154.398 117.9 154.398 119.644C154.398 121.081 153.437 122.936 152.123 123.542C151.986 123.605 155.997 123.969 156.172 126.205C155.382 127.29 153.435 128.336 151.241 128.336C148.883 128.336 146.916 127.003 146.157 126.154C146.26 123.908 150.385 123.562 150.213 123.469C148.974 122.797 148.084 121.027 148.084 119.644C148.084 117.9 149.498 116.487 151.241 116.487Z" fill="white"/>
<path d="M162.106 119.93H181.868M162.106 126.818H181.868M162.106 123.374H181.868" stroke="#A254D5" stroke-width="2" stroke-linecap="round" stroke-linejoin="round"/>
<path d="M162.106 116.405H171.618" stroke="#F7C60D" stroke-width="2" stroke-linecap="round" stroke-linejoin="round"/>
</g>
</svg>
