<svg width="266" height="200" viewBox="0 0 266 200" fill="none" xmlns="http://www.w3.org/2000/svg">
<rect width="266" height="200" rx="16" fill="#EEF5FC"/>
<path d="M145.655 78.1819C148.315 80.3356 150.379 83.1359 151.648 86.315C152.917 89.4941 153.349 92.9456 152.903 96.3395C151.764 105.382 144.37 112.679 135.327 113.697C123.206 115.055 112.927 105.6 112.927 93.7698C112.927 87.491 115.812 81.8667 120.346 78.2061H82.091C76.7334 78.2061 72.394 82.5455 72.394 87.9031V146.085H193.606V87.8789C193.606 82.5213 189.267 78.1819 183.909 78.1819H145.655Z" fill="#7CB5E8"/>
<path opacity="0.3" d="M183.909 78.1819H145.655C148.315 80.3356 150.379 83.1359 151.648 86.315C152.917 89.4941 153.349 92.9456 152.903 96.3395C152.297 101.164 149.873 105.503 146.382 108.655C151.085 118.109 160.831 124.63 172.128 124.63H193.606V87.8789C193.606 82.5213 189.267 78.1819 183.909 78.1819Z" fill="white"/>
<path opacity="0.5" d="M176.03 85.8181H186.891V89.5999C186.891 90.4817 187.065 91.355 187.402 92.1697C187.739 92.9844 188.234 93.7247 188.858 94.3482C189.481 94.9718 190.221 95.4664 191.036 95.8039C191.851 96.1414 192.724 96.315 193.606 96.315V87.806C193.582 82.4726 189.242 78.1575 183.909 78.1575H168.37C168.37 82.3999 171.788 85.8181 176.03 85.8181Z" fill="white"/>
<path d="M183.909 160.606H82.091C76.7334 160.606 72.394 156.267 72.394 150.909V146.061H193.606V150.909C193.606 156.267 189.267 160.606 183.909 160.606Z" fill="#E2E2E2"/>
<path opacity="0.5" d="M145.121 153.333H193.606V146.061H135.764C136.855 150.23 140.612 153.333 145.121 153.333Z" fill="white"/>
<path d="M159.958 87.2242C159.133 83.806 157.679 80.6303 155.715 77.8424L160.248 72L153.703 65.4545L147.618 70.1818C144.879 68.4848 141.848 67.2 138.576 66.5454L137.606 58.7878H128.345L127.376 66.5454C124.103 67.2242 121.073 68.4848 118.333 70.1818L112.248 65.4545L105.703 72L110.236 77.8424C108.273 80.6303 106.818 83.806 105.994 87.2242L99.0605 88.0969V97.3575L105.606 98.1818C106.212 101.964 107.57 105.455 109.533 108.558L105.727 113.455L112.273 120L116.927 116.388C120.079 118.642 123.715 120.242 127.667 121.018L128.37 126.667H137.63L138.333 120.994C142.285 120.218 145.921 118.618 149.073 116.364L153.727 119.976L160.273 113.43L156.467 108.533C158.43 105.43 159.788 101.915 160.394 98.1575L166.939 97.3333V88.0727L159.958 87.2242ZM133 108.145C131.109 108.145 129.236 107.773 127.489 107.049C125.742 106.325 124.154 105.264 122.817 103.927C121.48 102.589 120.419 101.001 119.696 99.2542C118.972 97.5069 118.6 95.6342 118.6 93.743C118.6 91.8518 118.973 89.9792 119.697 88.232C120.421 86.4848 121.481 84.8973 122.819 83.5602C124.156 82.223 125.744 81.1623 127.491 80.4388C129.238 79.7152 131.111 79.3428 133.002 79.343C136.822 79.3433 140.485 80.8609 143.185 83.5619C145.886 86.2628 147.403 89.926 147.402 93.7454C147.402 97.5649 145.884 101.228 143.183 103.928C140.483 106.629 136.819 108.146 133 108.145ZM111.182 160.606H154.818V175.151H111.182V160.606Z" fill="#4E6575"/>
<path opacity="0.3" d="M137.849 169.576H154.819V160.606H128.225C128.612 165.624 132.734 169.576 137.849 169.576Z" fill="#E2E2E2"/>
<path d="M196.031 70.909C200.047 70.909 203.303 67.6529 203.303 63.6363C203.303 59.6196 200.047 56.3635 196.031 56.3635C192.014 56.3635 188.758 59.6196 188.758 63.6363C188.758 67.6529 192.014 70.909 196.031 70.909Z" fill="#FFAB03"/>
<path d="M179.061 51.5152C183.077 51.5152 186.334 48.2591 186.334 44.2425C186.334 40.2258 183.077 36.9697 179.061 36.9697C175.044 36.9697 171.788 40.2258 171.788 44.2425C171.788 48.2591 175.044 51.5152 179.061 51.5152Z" fill="#EF4A51"/>
<path d="M69.97 70.909C73.9866 70.909 77.2427 67.6529 77.2427 63.6363C77.2427 59.6196 73.9866 56.3635 69.97 56.3635C65.9534 56.3635 62.6973 59.6196 62.6973 63.6363C62.6973 67.6529 65.9534 70.909 69.97 70.909Z" fill="#FFAB03"/>
<path d="M86.9397 51.5152C90.9563 51.5152 94.2124 48.2591 94.2124 44.2425C94.2124 40.2258 90.9563 36.9697 86.9397 36.9697C82.9231 36.9697 79.667 40.2258 79.667 44.2425C79.667 48.2591 82.9231 51.5152 86.9397 51.5152Z" fill="#EF4A51"/>
<path d="M133 39.3938C137.017 39.3938 140.273 36.1377 140.273 32.1211C140.273 28.1045 137.017 24.8484 133 24.8484C128.984 24.8484 125.728 28.1045 125.728 32.1211C125.728 36.1377 128.984 39.3938 133 39.3938Z" fill="#8ABA55"/>
<path opacity="0.3" d="M196.031 56.3635C194.552 56.3635 193.17 56.7999 192.031 57.5756C191.812 58.2787 191.667 58.9817 191.667 59.7575C191.667 63.7817 194.915 67.0302 198.94 67.0302C200.419 67.0302 201.8 66.5938 202.94 65.8181C203.158 65.115 203.303 64.3878 203.303 63.6363C203.303 59.612 200.055 56.3635 196.031 56.3635Z" fill="white"/>
<path opacity="0.3" d="M179.061 36.9697C177.582 36.9697 176.2 37.4061 175.061 38.1818C174.843 38.8849 174.697 39.5879 174.697 40.3637C174.697 44.3879 177.946 47.6364 181.97 47.6364C183.449 47.6364 184.831 47.2 185.97 46.4243C186.188 45.7212 186.334 44.994 186.334 44.2425C186.334 40.2182 183.085 36.9697 179.061 36.9697Z" fill="#E2E2E2"/>
<path opacity="0.3" d="M69.9696 56.3635C68.4908 56.3635 67.109 56.7999 65.9696 57.5756C65.7514 58.2787 65.606 58.9817 65.606 59.7575C65.606 63.7817 68.8544 67.0302 72.8787 67.0302C74.3575 67.0302 75.7393 66.5938 76.8787 65.8181C77.0969 65.115 77.2423 64.3878 77.2423 63.6363C77.2423 59.612 73.9938 56.3635 69.9696 56.3635Z" fill="white"/>
<path opacity="0.3" d="M86.9393 36.9697C85.4605 36.9697 84.0787 37.4061 82.9393 38.1818C82.7211 38.8849 82.5757 39.5879 82.5757 40.3637C82.5757 44.3879 85.8242 47.6364 89.8484 47.6364C91.3272 47.6364 92.709 47.2 93.8484 46.4243C94.0666 45.7212 94.212 44.994 94.212 44.2425C94.212 40.2182 90.9636 36.9697 86.9393 36.9697Z" fill="#E2E2E2"/>
<path opacity="0.3" d="M133 24.8484C131.522 24.8484 130.14 25.2848 129 26.0605C128.782 26.7635 128.637 27.4666 128.637 28.2423C128.637 32.2666 131.885 35.5151 135.909 35.5151C137.388 35.5151 138.77 35.0787 139.909 34.3029C140.128 33.5999 140.273 32.8726 140.273 32.1211C140.273 28.0969 137.025 24.8484 133 24.8484Z" fill="white"/>
<path opacity="0.3" d="M155.74 77.8424L160.273 72L153.727 65.4545L147.643 70.1818C144.903 68.4848 141.873 67.2 138.6 66.5454L137.631 58.7878H128.37L127.4 66.5454C124.127 67.2242 121.097 68.4848 118.358 70.1818L112.418 65.5515C112.006 67.6121 111.788 69.7454 111.788 71.9515C111.788 79.5636 114.382 86.5697 118.697 92.1939C119.473 84.9697 125.582 79.3454 133 79.3454C136.819 79.3454 140.482 80.8626 143.183 83.5631C145.883 86.2636 147.4 89.9263 147.4 93.7454C147.4 98.3515 145.243 102.424 141.873 105.067C142.915 105.164 143.982 105.236 145.073 105.236C150.237 105.236 155.109 104.024 159.473 101.915C159.871 100.688 160.171 99.4319 160.37 98.1575L166.479 97.3818C166.624 97.2606 166.77 97.1151 166.915 96.9697V88.0485L159.934 87.1757C159.134 83.806 157.703 80.6303 155.74 77.8424Z" fill="#E2E2E2"/>
<path d="M137.63 128.485H128.37C127.449 128.485 126.673 127.806 126.576 126.885L126.018 122.497C122.818 121.721 119.788 120.412 117 118.618L113.388 121.43C112.661 121.988 111.643 121.939 110.988 121.285L104.443 114.739C104.13 114.426 103.942 114.009 103.916 113.567C103.889 113.125 104.024 112.688 104.297 112.339L107.327 108.436C105.8 105.745 104.685 102.861 104.055 99.8303L98.8183 99.1757C98.3796 99.1211 97.9756 98.9092 97.6813 98.5793C97.387 98.2493 97.2225 97.8238 97.2183 97.3818V88.1212C97.2183 87.2 97.897 86.4242 98.8183 86.3272L104.588 85.6C105.364 82.8848 106.503 80.3151 108.03 77.9394L104.297 73.1394C103.739 72.4121 103.788 71.3939 104.443 70.7394L110.988 64.1939C111.643 63.5393 112.661 63.4909 113.388 64.0484L118.503 68.0242C120.806 66.7151 123.255 65.7212 125.752 65.0909L126.552 58.5939C126.673 57.6727 127.449 56.9939 128.346 56.9939H137.606C138.527 56.9939 139.303 57.6727 139.4 58.5939L140.2 65.0909C142.721 65.7212 145.146 66.7151 147.449 68.0242L152.564 64.0484C153.291 63.4909 154.309 63.5393 154.964 64.1939L161.509 70.7394C162.164 71.3939 162.212 72.4121 161.655 73.1394L157.921 77.9394C159.424 80.3151 160.588 82.8848 161.364 85.6L167.109 86.3272C168.03 86.4484 168.709 87.2242 168.709 88.1212V97.3818C168.709 98.303 168.03 99.0787 167.109 99.1757L161.873 99.8303C161.248 102.855 160.143 105.76 158.6 108.436L161.63 112.339C162.188 113.067 162.139 114.085 161.485 114.739L154.939 121.285C154.285 121.939 153.267 121.988 152.539 121.43L148.927 118.618C146.139 120.412 143.109 121.721 139.909 122.497L139.352 126.885C139.327 127.806 138.552 128.485 137.63 128.485ZM129.97 124.848H136.006L136.515 120.776C136.612 120 137.194 119.37 137.97 119.224C141.582 118.521 144.952 117.067 148.006 114.909C148.661 114.448 149.533 114.473 150.188 114.958L153.582 117.6L157.849 113.333L155.036 109.697C154.809 109.401 154.678 109.042 154.661 108.67C154.643 108.297 154.741 107.928 154.939 107.612C156.806 104.655 158.043 101.382 158.6 97.9151C158.721 97.1151 159.376 96.509 160.176 96.3878L165.146 95.7575V89.7212L159.764 89.0424C159.396 88.9958 159.051 88.8389 158.774 88.5922C158.497 88.3455 158.301 88.0207 158.212 87.6606C157.436 84.4848 156.127 81.5272 154.261 78.8848C154.037 78.5671 153.921 78.1863 153.93 77.798C153.939 77.4098 154.072 77.0345 154.309 76.7272L157.873 72.1697L153.606 67.903L148.758 71.6363C148.152 72.0969 147.327 72.1454 146.673 71.7333C144.082 70.1159 141.226 68.967 138.236 68.3394C137.864 68.2675 137.523 68.0781 137.266 67.7989C137.009 67.5197 136.847 67.1653 136.806 66.7878L136.03 60.606H129.994L129.218 66.7878C129.121 67.5636 128.539 68.1939 127.788 68.3394C124.83 68.9454 121.994 70.0848 119.352 71.7333C118.697 72.1454 117.873 72.0969 117.267 71.6363L112.443 67.8787L108.176 72.1454L111.739 76.703C112.224 77.3333 112.249 78.206 111.788 78.8606C109.921 81.503 108.588 84.4606 107.836 87.6363C107.667 88.3636 107.036 88.9212 106.285 89.0181L100.903 89.6969V95.7333L105.873 96.3636C106.673 96.4606 107.303 97.0909 107.449 97.8909C108.006 101.358 109.243 104.63 111.109 107.588C111.521 108.242 111.473 109.067 111.012 109.673L108.2 113.309L112.467 117.576L115.861 114.933C116.491 114.448 117.388 114.424 118.043 114.885C121.04 117.026 124.463 118.498 128.079 119.2C128.855 119.345 129.436 119.976 129.533 120.751L129.97 124.848Z" fill="black"/>
<path d="M133 109.964C124.054 109.964 116.782 102.691 116.782 93.7455C116.782 84.8001 124.054 77.5273 133 77.5273C141.945 77.5273 149.218 84.8001 149.218 93.7455C149.218 102.691 141.945 109.964 133 109.964ZM133 81.1637C126.067 81.1637 120.418 86.8122 120.418 93.7455C120.418 100.679 126.067 106.327 133 106.327C139.933 106.327 145.582 100.679 145.582 93.7455C145.582 86.8122 139.933 81.1637 133 81.1637ZM183.909 162.424H82.0908C75.7393 162.424 70.5757 157.261 70.5757 150.909V146.061C70.5757 145.067 71.3999 144.243 72.3939 144.243H193.606C194.6 144.243 195.424 145.067 195.424 146.061V150.909C195.424 157.261 190.261 162.424 183.909 162.424ZM74.212 147.879V150.909C74.212 155.249 77.7514 158.788 82.0908 158.788H183.909C188.248 158.788 191.788 155.249 191.788 150.909V147.879H74.212Z" fill="black"/>
<path d="M154.818 176.97H111.182C110.188 176.97 109.364 176.145 109.364 175.151V160.606C109.364 159.612 110.188 158.788 111.182 158.788H154.818C155.812 158.788 156.636 159.612 156.636 160.606V175.151C156.636 176.145 155.812 176.97 154.818 176.97ZM113 173.333H153V162.424H113V173.333Z" fill="black"/>
<path d="M164.515 176.97H101.485C100.491 176.97 99.667 176.145 99.667 175.152C99.667 174.158 100.491 173.333 101.485 173.333H164.515C165.509 173.333 166.334 174.158 166.334 175.152C166.334 176.145 165.509 176.97 164.515 176.97ZM133 53.3333C132.006 53.3333 131.182 52.5091 131.182 51.5152V39.6121C131.182 38.6182 132.006 37.7939 133 37.7939C133.994 37.7939 134.819 38.6182 134.819 39.6121V51.5152C134.819 52.5091 133.994 53.3333 133 53.3333ZM159.74 63.0303C158.746 63.0303 157.922 62.2061 157.922 61.2121V44.2424C157.922 43.2485 158.746 42.4242 159.74 42.4242H171.788C172.782 42.4242 173.606 43.2485 173.606 44.2424C173.606 45.2364 172.782 46.0606 171.788 46.0606H161.558V61.2121C161.558 62.2061 160.734 63.0303 159.74 63.0303ZM179.061 94.5455H174.212C173.219 94.5455 172.394 93.7212 172.394 92.7273C172.394 91.7333 173.219 90.9091 174.212 90.9091H177.243V63.6364C177.243 62.6424 178.067 61.8182 179.061 61.8182H188.758C189.752 61.8182 190.576 62.6424 190.576 63.6364C190.576 64.6303 189.752 65.4545 188.758 65.4545H180.879V92.7273C180.879 93.7212 180.055 94.5455 179.061 94.5455Z" fill="black"/>
<path d="M196.03 72.7271C191.012 72.7271 186.939 68.6544 186.939 63.6362C186.939 58.618 191.012 54.5453 196.03 54.5453C201.049 54.5453 205.121 58.618 205.121 63.6362C205.121 68.6544 201.049 72.7271 196.03 72.7271ZM196.03 58.1817C193.024 58.1817 190.576 60.6302 190.576 63.6362C190.576 66.6423 193.024 69.0908 196.03 69.0908C199.036 69.0908 201.485 66.6423 201.485 63.6362C201.485 60.6302 199.036 58.1817 196.03 58.1817ZM179.061 53.3332C174.043 53.3332 169.97 49.2605 169.97 44.2423C169.97 39.2241 174.043 35.1514 179.061 35.1514C184.079 35.1514 188.152 39.2241 188.152 44.2423C188.152 49.2605 184.079 53.3332 179.061 53.3332ZM179.061 38.7877C176.055 38.7877 173.606 41.2362 173.606 44.2423C173.606 47.2483 176.055 49.6968 179.061 49.6968C182.067 49.6968 184.515 47.2483 184.515 44.2423C184.515 41.2362 182.067 38.7877 179.061 38.7877ZM106.261 63.0302C105.267 63.0302 104.442 62.2059 104.442 61.212V46.0605H94.2122C93.2183 46.0605 92.394 45.2362 92.394 44.2423C92.394 43.2483 93.2183 42.4241 94.2122 42.4241H106.261C107.255 42.4241 108.079 43.2483 108.079 44.2423V61.212C108.079 62.2059 107.279 63.0302 106.261 63.0302ZM91.788 94.5453H86.9395C85.9455 94.5453 85.1213 93.7211 85.1213 92.7271V65.4544H77.2425C76.2486 65.4544 75.4243 64.6302 75.4243 63.6362C75.4243 62.6423 76.2486 61.818 77.2425 61.818H86.9395C87.9334 61.818 88.7577 62.6423 88.7577 63.6362V90.9089H91.788C92.7819 90.9089 93.6061 91.7332 93.6061 92.7271C93.6061 93.7211 92.7819 94.5453 91.788 94.5453Z" fill="black"/>
<path d="M69.9698 72.7272C64.9516 72.7272 60.8789 68.6545 60.8789 63.6363C60.8789 58.6182 64.9516 54.5454 69.9698 54.5454C74.988 54.5454 79.0607 58.6182 79.0607 63.6363C79.0607 68.6545 74.988 72.7272 69.9698 72.7272ZM69.9698 58.1818C66.9638 58.1818 64.5153 60.6303 64.5153 63.6363C64.5153 66.6424 66.9638 69.0909 69.9698 69.0909C72.9759 69.0909 75.4244 66.6424 75.4244 63.6363C75.4244 60.6303 72.9759 58.1818 69.9698 58.1818ZM86.9395 53.3333C81.9213 53.3333 77.8486 49.2606 77.8486 44.2424C77.8486 39.2242 81.9213 35.1515 86.9395 35.1515C91.9577 35.1515 96.0304 39.2242 96.0304 44.2424C96.0304 49.2606 91.9577 53.3333 86.9395 53.3333ZM86.9395 38.7878C83.9335 38.7878 81.485 41.2363 81.485 44.2424C81.485 47.2485 83.9335 49.6969 86.9395 49.6969C89.9456 49.6969 92.3941 47.2485 92.3941 44.2424C92.3941 41.2363 89.9456 38.7878 86.9395 38.7878ZM133 41.2121C127.982 41.2121 123.909 37.1394 123.909 32.1212C123.909 27.103 127.982 23.0303 133 23.0303C138.018 23.0303 142.091 27.103 142.091 32.1212C142.091 37.1394 138.018 41.2121 133 41.2121ZM133 26.6666C129.994 26.6666 127.546 29.1151 127.546 32.1212C127.546 35.1272 129.994 37.5757 133 37.5757C136.006 37.5757 138.455 35.1272 138.455 32.1212C138.455 29.1151 136.006 26.6666 133 26.6666ZM193.606 147.879H72.3941C71.4001 147.879 70.5759 147.055 70.5759 146.061V87.8788C70.5759 81.5272 75.7395 76.3636 82.091 76.3636H101.509C102.503 76.3636 103.327 77.1879 103.327 78.1818C103.327 79.1757 102.503 80 101.509 80H82.091C77.7516 80 74.2122 83.5394 74.2122 87.8788V144.242H191.788V87.8788C191.788 83.5394 188.249 80 183.909 80H164.491C163.497 80 162.673 79.1757 162.673 78.1818C162.673 77.1879 163.497 76.3636 164.491 76.3636H183.909C190.261 76.3636 195.424 81.5272 195.424 87.8788V146.061C195.424 147.055 194.6 147.879 193.606 147.879Z" fill="black"/>
</svg>
