<svg width="263" height="200" viewBox="0 0 263 200" fill="none" xmlns="http://www.w3.org/2000/svg">
<g clip-path="url(#clip0_21_1453)">
<rect width="263" height="200" rx="16" fill="#EBFFEB"/>
<mask id="mask0_21_1453" style="mask-type:luminance" maskUnits="userSpaceOnUse" x="-29" y="-60" width="320" height="320">
<path d="M291 -60H-29V260H291V-60Z" fill="white"/>
</mask>
<g mask="url(#mask0_21_1453)">
<path d="M174.231 57.4769H182.416C199.522 57.4769 213.39 71.3446 213.39 88.4507C213.39 105.557 199.523 119.425 182.417 119.425H79.4037C62.2975 119.425 48.4307 105.557 48.4307 88.4507C48.4307 71.3446 62.2975 57.4769 79.4037 57.4769H87.6025C89.2642 42.406 98.7575 28.6321 113.678 22.2033C135.773 12.6835 161.402 22.8774 170.922 44.9727C172.683 49.0617 173.77 53.2709 174.231 57.4769Z" fill="#008000"/>
<path d="M117.877 74.577L130.914 61.541L143.951 74.577" stroke="white" stroke-width="5" stroke-miterlimit="10" stroke-linecap="round"/>
<path d="M130.914 96.5835V61.541" stroke="white" stroke-width="5" stroke-linecap="round" stroke-linejoin="round"/>
<path d="M184.745 148.638C185.842 148.638 186.894 149.073 187.67 149.849C188.446 150.625 188.881 151.677 188.881 152.774C188.881 153.872 188.446 154.924 187.67 155.699C186.894 156.475 185.842 156.911 184.745 156.911C166.717 156.911 95.1025 156.911 77.0738 156.911C75.9772 156.911 74.9247 156.475 74.1495 155.699C73.3736 154.924 72.9375 153.872 72.9375 152.774C72.9375 151.677 73.3736 150.625 74.1495 149.849C74.9247 149.073 75.9772 148.638 77.0738 148.638C95.1025 148.638 166.717 148.638 184.745 148.638Z" fill="white"/>
<mask id="mask1_21_1453" style="mask-type:alpha" maskUnits="userSpaceOnUse" x="72" y="148" width="117" height="9">
<path d="M184.745 148.638C185.842 148.638 186.894 149.073 187.67 149.849C188.446 150.625 188.881 151.677 188.881 152.774C188.881 153.872 188.446 154.924 187.67 155.699C186.894 156.475 185.842 156.911 184.745 156.911C166.717 156.911 95.1025 156.911 77.0738 156.911C75.9772 156.911 74.9247 156.475 74.1495 155.699C73.3736 154.924 72.9375 153.872 72.9375 152.774C72.9375 151.677 73.3736 150.625 74.1495 149.849C74.9247 149.073 75.9772 148.638 77.0738 148.638C95.1025 148.638 166.717 148.638 184.745 148.638Z" fill="white"/>
</mask>
<g mask="url(#mask1_21_1453)">
<path d="M142.04 148.638C143.137 148.638 144.189 149.073 144.965 149.849C145.741 150.625 146.176 151.677 146.176 152.774C146.176 153.872 145.741 154.924 144.965 155.699C144.189 156.475 143.137 156.911 142.04 156.911C124.012 156.911 52.398 156.911 34.3692 156.911C33.2726 156.911 32.2201 156.475 31.4449 155.699C30.669 154.924 30.2329 153.872 30.2329 152.774C30.2329 151.677 30.669 150.625 31.4449 149.849C32.2201 149.073 33.2726 148.638 34.3692 148.638C52.398 148.638 124.012 148.638 142.04 148.638Z" fill="#008000"/>
</g>
<path d="M184.745 148.638C185.842 148.638 186.894 149.073 187.67 149.849C188.446 150.625 188.881 151.677 188.881 152.774C188.881 153.872 188.446 154.924 187.67 155.699C186.894 156.475 185.842 156.911 184.745 156.911C166.717 156.911 95.1025 156.911 77.0738 156.911C75.9772 156.911 74.9247 156.475 74.1495 155.699C73.3736 154.924 72.9375 153.872 72.9375 152.774C72.9375 151.677 73.3736 150.625 74.1495 149.849C74.9247 149.073 75.9772 148.638 77.0738 148.638C95.1025 148.638 166.717 148.638 184.745 148.638Z" stroke="#008000" stroke-width="5" stroke-linejoin="round"/>
</g>
</g>
<defs>
<clipPath id="clip0_21_1453">
<rect width="263" height="200" rx="16" fill="white"/>
</clipPath>
</defs>
</svg>
