<svg width="24" height="24" viewBox="0 0 24 24" fill="none" xmlns="http://www.w3.org/2000/svg">
<g clip-path="url(#clip0_21_1622)">
<g clip-path="url(#clip1_21_1622)">
<path d="M7.95074 18.4862C7.93527 18.4858 7.91991 18.4835 7.90498 18.4794C6.33041 17.9996 4.62506 16.2788 4.25497 14.7971C4.24789 14.7583 4.25582 14.7183 4.27716 14.6851C4.2985 14.6519 4.33165 14.6281 4.36989 14.6185C4.40813 14.6088 4.44861 14.6141 4.48312 14.6332C4.51763 14.6523 4.54359 14.6838 4.55575 14.7213C4.89713 16.0877 6.53698 17.7368 7.99515 18.1827C8.01466 18.1886 8.03282 18.1983 8.04857 18.2112C8.06432 18.2241 8.07737 18.24 8.08696 18.258C8.09654 18.276 8.10248 18.2957 8.10443 18.316C8.10639 18.3363 8.10431 18.3568 8.09833 18.3762C8.08886 18.408 8.06937 18.4359 8.04278 18.4557C8.01618 18.4755 7.9839 18.4862 7.95074 18.4862Z" fill="#975500"/>
<path d="M8.70074 20.4387C8.68888 20.4386 8.67708 20.4373 8.66552 20.4346C7.36302 20.1314 5.84877 19.1584 4.51217 17.7643C3.26193 16.4618 2.45244 15.0757 2.40017 14.1471C2.39896 14.1267 2.4018 14.1063 2.40853 14.087C2.41525 14.0678 2.42572 14.0501 2.43934 14.0349C2.45296 14.0197 2.46946 14.0074 2.48788 13.9986C2.50629 13.9898 2.52627 13.9848 2.54664 13.9838C2.56704 13.9825 2.58749 13.9853 2.6068 13.992C2.62611 13.9987 2.6439 14.0092 2.65913 14.0228C2.67436 14.0364 2.68674 14.0529 2.69554 14.0714C2.70433 14.0898 2.70938 14.1098 2.71038 14.1302C2.75726 14.975 3.5524 16.3167 4.7358 17.5499C6.0318 18.902 7.48997 19.8422 8.73618 20.1327C8.81984 20.1522 8.8721 20.2359 8.85259 20.3196C8.84421 20.3535 8.8247 20.3836 8.79717 20.4052C8.76965 20.4267 8.73569 20.4387 8.70074 20.4387ZM15.3768 6.84995C15.3425 6.85006 15.3092 6.83884 15.282 6.81802C15.2548 6.7972 15.2353 6.76797 15.2265 6.73488C15.008 5.90587 14.0153 4.71574 13.1118 4.48292C13.092 4.47783 13.0735 4.46888 13.0572 4.45658C13.0409 4.44428 13.0272 4.42888 13.0168 4.41126C13.0065 4.39365 12.9998 4.37416 12.997 4.35393C12.9943 4.3337 12.9955 4.31312 13.0008 4.29339C13.0058 4.27358 13.0147 4.25497 13.027 4.23864C13.0393 4.22231 13.0547 4.20859 13.0723 4.19826C13.09 4.18793 13.1095 4.1812 13.1297 4.17847C13.15 4.17575 13.1706 4.17707 13.1903 4.18236C14.2077 4.44524 15.2826 5.728 15.5273 6.65638C15.5325 6.67614 15.5338 6.69675 15.531 6.71701C15.5282 6.73727 15.5215 6.75677 15.5111 6.77441C15.5008 6.79205 15.4871 6.80747 15.4708 6.81978C15.4544 6.83209 15.4358 6.84105 15.416 6.84614C15.4031 6.84879 15.39 6.84992 15.3768 6.84995ZM17.3345 7.12584C17.3001 7.12569 17.2668 7.11423 17.2396 7.09323C17.2124 7.07223 17.193 7.04285 17.1842 7.00965C16.6021 4.71843 14.426 2.93077 13.1836 2.70849C13.1444 2.69976 13.11 2.67622 13.0878 2.64278C13.0655 2.60933 13.0571 2.56858 13.0642 2.52904C13.0713 2.4895 13.0934 2.45424 13.1259 2.43062C13.1584 2.40701 13.1987 2.39687 13.2385 2.40232C14.5922 2.64569 16.8623 4.4883 17.4847 6.93227C17.4898 6.95202 17.491 6.97259 17.4881 6.99278C17.4852 7.01298 17.4783 7.0324 17.4679 7.04992C17.4574 7.06744 17.4436 7.08271 17.4272 7.09486C17.4108 7.10701 17.3922 7.11578 17.3724 7.12068C17.36 7.12431 17.3474 7.12605 17.3345 7.12584Z" fill="#975500"/>
<path d="M13.4702 11.1972C13.72 11.4731 13.945 11.8356 13.8494 11.9309C13.7541 12.0265 13.4612 11.8537 13.2376 11.6288C13.0139 11.4052 12.479 13.7852 12.4267 13.9054C12.3875 13.9958 11.765 14.7097 11.4394 15.3885C11.3308 15.6148 11.3465 16.2976 11.3059 16.3379C11.1426 16.5014 10.9347 16.4844 10.4861 16.0883C10.0375 15.692 9.80466 18.0525 10.3396 18.425C11.2536 19.0632 13.0819 21.5989 15.4971 21.5989C18.2919 21.5989 20.8799 18.6841 20.8799 16.5445C20.8799 14.4052 20.2521 13.5943 20.294 11.8015C20.3279 10.2832 21.433 9.55872 21.433 8.80037C21.433 8.16201 20.4849 8.00635 20.1736 8.00635C19.6218 8.00635 18.2069 8.71401 18.2069 10.5761C18.2069 11.3006 18.0003 11.9556 17.2588 11.9556C16.5173 11.9556 15.6896 10.9384 15.1885 10.1446" fill="url(#paint0_linear_21_1622)"/>
<path d="M21.4319 8.8C21.4319 8.45346 21.1506 8.24934 20.8447 8.13428C21.2121 9.35177 19.3486 9.40403 19.3486 13.5522C19.3486 17.7002 16.9331 18.9074 15.9327 19.1153C14.9324 19.3219 13.1696 19.3822 11.8281 17.7356C11.416 17.2294 10.8575 16.6803 10.2364 16.161C9.97356 16.5991 9.91726 18.1304 10.3396 18.4247C11.2539 19.063 13.0819 21.5985 15.4974 21.5985C18.2921 21.5985 20.8799 18.6837 20.8799 16.5441C20.8799 14.4048 20.2523 13.5939 20.294 11.8011C20.3281 10.2828 21.4319 9.55835 21.4319 8.8Z" fill="url(#paint1_linear_21_1622)"/>
<path d="M10.4859 16.0881C10.0373 15.6918 8.97684 14.562 8.28645 14.0089C7.59583 13.4571 6.99291 13.4634 6.57841 14.0728C6.1639 14.6822 7.37243 15.7519 7.64831 16.0278C8.07067 16.4504 9.80473 18.0523 10.3395 18.4262" fill="url(#paint2_linear_21_1622)"/>
<path d="M12.4268 13.905C12.3746 14.0254 12.0229 14.1091 11.3233 13.3481C10.7883 12.766 9.35619 11.0934 8.51148 10.3351C7.66677 9.57647 7.01025 9.26515 6.45847 9.66283C5.9067 10.0603 6.22049 10.8868 6.83754 11.5774C7.6015 12.4314 8.48008 13.3023 9.32098 14.1392C9.97885 14.793 11.4684 16.1754 11.3049 16.3389" fill="url(#paint3_linear_21_1622)"/>
<path d="M9.32202 14.1382C9.94333 14.7555 11.3033 16.0201 11.3176 16.2987C11.5139 15.9928 11.1554 15.0825 10.7761 14.7636C8.58452 12.9183 6.46737 9.94318 6.19798 10.0322C6.08292 10.4651 6.37451 11.0586 6.83723 11.5776C7.6012 12.4304 8.47978 13.3027 9.32202 14.1382Z" fill="url(#paint4_linear_21_1622)"/>
<path d="M15.1875 10.1455C14.6867 9.35149 12.6337 6.79897 12.1341 6.07448C11.6333 5.35 10.9611 5.35 10.4954 5.67837C10.03 6.00652 9.89137 6.6617 10.9402 8.05437C11.6019 8.93318 12.151 9.74132 13.4719 11.1981L15.0072 11.0909L15.1875 10.1455Z" fill="url(#paint5_linear_21_1622)"/>
<path d="M13.2374 11.6285C13.014 11.4049 11.0301 9.05359 10.5817 8.54892C9.74058 7.60462 8.67493 5.58167 7.40383 6.48268C6.73542 6.95617 7.09766 7.64275 7.2872 7.91864C7.47695 8.19453 9.94335 11.0416 10.1851 11.2822C10.4274 11.524 12.479 13.7838 12.4281 13.9043" fill="url(#paint6_linear_21_1622)"/>
<path d="M13.4705 11.197C13.7112 11.4624 13.927 11.8064 13.859 11.9175C14.6593 11.2742 12.967 9.38311 12.0085 8.24793C11.267 7.36935 11.0642 6.25122 10.5333 5.65234C10.5203 5.66019 10.5086 5.66917 10.4954 5.67702C10.03 6.00539 9.89137 6.66057 10.9402 8.05324C11.6005 8.93204 12.151 9.74154 13.4705 11.197Z" fill="url(#paint7_linear_21_1622)"/>
<path d="M10.1839 11.2832C10.4259 11.5252 12.4778 13.7848 12.4269 13.9052C13.061 13.0513 10.6024 10.5416 9.41228 9.27322C8.3805 8.17348 8.20398 7.21101 7.1971 6.6709C6.8232 7.12331 7.11994 7.678 7.28615 7.9198C7.47568 8.19568 9.9432 11.0425 10.1839 11.2832Z" fill="url(#paint8_linear_21_1622)"/>
<path d="M12.3807 13.9567C12.309 14.0011 12.1609 14.0049 11.9321 13.873C12.1021 14.0103 12.2592 14.0626 12.3807 13.9567Z" fill="url(#paint9_linear_21_1622)"/>
<path d="M20.3184 8.26541C20.8455 8.17121 20.9383 8.23132 20.8441 8.13465C20.5878 8.0391 20.3132 8.00635 20.1719 8.00635C19.6201 8.00635 18.205 8.71401 18.205 10.5761C18.205 11.3006 17.9987 11.9556 17.2558 11.9556C16.9629 11.9556 16.658 11.7975 16.3638 11.557C17.6663 12.9992 18.6875 11.6407 18.8434 10.7096C18.9991 9.77853 18.7727 8.54265 20.3184 8.26541Z" fill="url(#paint10_radial_21_1622)"/>
<path d="M10.3353 5.81836C10.0136 6.18329 10.024 6.83713 10.9382 8.05328C11.5999 8.93208 12.1492 9.74023 13.4699 11.1971C13.7197 11.4729 13.9447 11.8352 13.8491 11.9307C14.0701 10.4216 11.9215 8.93724 11.2233 7.79959C10.6702 6.89724 10.5603 6.36498 10.3353 5.81836Z" fill="url(#paint11_linear_21_1622)"/>
<path d="M10.1841 11.2832C10.4259 11.5252 12.4777 13.7848 12.4268 13.9052C12.8792 13.5822 12.5704 13.0787 11.871 12.3791C10.4364 10.9445 8.43946 9.01685 7.63647 7.42926C7.56066 7.27898 7.41935 7.16773 7.25337 7.14664C6.82047 7.09057 7.14234 7.70919 7.28746 7.9198C7.47587 8.19569 9.94316 11.0425 10.1841 11.2832Z" fill="url(#paint12_linear_21_1622)"/>
<path d="M6.83716 11.5777C7.6009 12.4316 8.47971 13.3026 9.3206 14.1394C9.97847 14.7933 11.4678 16.1756 11.3045 16.3391C12.2277 15.5624 7.93959 12.7546 6.19657 10.0332C6.08262 10.4634 6.37444 11.0585 6.83716 11.5777Z" fill="url(#paint13_linear_21_1622)"/>
<path d="M11.1163 16.4933C11.2037 16.4592 11.2495 16.4189 11.2641 16.3745C11.1057 16.496 10.8978 16.453 10.4858 16.088C10.0372 15.6917 8.97689 14.5619 8.28627 14.0088C7.98302 13.7668 7.69637 13.6319 7.43506 13.6084C7.80897 13.8426 7.63513 13.9262 8.46683 14.5644C8.91409 14.9071 10.5461 16.717 11.1163 16.4933Z" fill="url(#paint14_linear_21_1622)"/>
<path d="M10.0298 12.3534C10.6354 13.0908 11.8174 14.3083 12.3483 13.9721C12.2019 14.0219 11.8683 13.9407 11.3244 13.3486C10.7895 12.7665 9.35754 11.0939 8.51283 10.3353C7.82871 9.72075 7.26797 9.40045 6.78662 9.51148C8.18714 9.97197 9.45578 11.6562 10.0298 12.3534Z" fill="url(#paint15_linear_21_1622)"/>
<path d="M10.6847 9.17903C11.6512 10.2305 13.0858 12.3163 13.813 11.9514C13.6939 11.9879 13.4375 11.8298 13.2374 11.6284C13.0138 11.4047 11.0301 9.05342 10.5815 8.54875C9.99832 7.89491 9.30905 6.72318 8.5166 6.36475C9.31555 6.99503 9.90142 8.32781 10.6847 9.17903Z" fill="url(#paint16_linear_21_1622)"/>
<path d="M16.364 11.5582C16.3654 11.5582 16.3654 11.5582 16.364 11.5582C15.9127 11.1893 15.4893 10.6256 15.1858 10.1458C14.6863 9.35182 12.6333 6.79929 12.1335 6.07481C11.9805 5.85387 11.8132 5.7009 11.6392 5.604C11.872 5.93888 12.0041 6.41597 12.531 7.00722C13.3759 7.95533 14.4808 9.66314 14.8601 10.2504C15.238 10.8349 15.8499 12.0723 16.364 11.5582Z" fill="url(#paint17_linear_21_1622)"/>
<path d="M19.1314 19.9774C18.8174 19.2137 18.3585 18.7483 17.6955 19.185C15.8869 20.3762 13.8063 19.9736 11.1975 17.8654C8.87108 15.9836 7.66794 14.6393 6.53546 14.1528C6.26338 14.7714 7.38286 15.764 7.64686 16.028C8.06944 16.4506 9.80327 18.0525 10.3384 18.4264C11.2525 19.0645 13.0805 21.6002 15.496 21.6002C16.8467 21.5991 18.1467 20.9204 19.1314 19.9774Z" fill="url(#paint18_linear_21_1622)"/>
<path d="M20.2926 11.8013C20.3267 10.2828 21.4316 9.55854 21.4316 8.80019C21.4316 8.57634 21.3152 8.41305 21.1505 8.29395C21.3519 8.88497 20.8719 9.40938 20.1553 10.3014C19.3786 11.2677 19.2072 12.7676 19.7408 14.269C20.2755 15.7703 19.6022 17.8403 18.5155 18.4955C17.4287 19.1507 15.9849 22.0316 11.8513 18.7768L11.8486 18.7741C11.5963 18.5399 11.3464 18.3322 11.0941 18.1752C9.34835 17.0936 8.35314 16.1206 7.60106 15.3035C7.45347 15.1425 7.05601 14.5265 6.58252 14.7293C6.81916 15.2654 7.45594 15.8369 7.64682 16.028C8.0694 16.4504 9.80345 18.0523 10.3384 18.4262C10.4075 18.4747 10.4833 18.5348 10.5632 18.6041L10.626 18.659C10.6312 18.6642 10.6369 18.669 10.6428 18.6734L10.6834 18.7099C10.6861 18.7126 10.6901 18.7153 10.6926 18.7191C11.2354 19.2122 11.9821 20.0282 12.8974 20.6649C12.8974 20.6649 12.8988 20.6649 12.8988 20.6663C12.9784 20.7226 13.0609 20.7775 13.1433 20.83C13.1446 20.8311 13.146 20.8311 13.1473 20.8323C13.2296 20.8847 13.3133 20.9357 13.3969 20.9841C13.3983 20.9841 13.3983 20.9855 13.3996 20.9855C14.0326 21.3488 14.7347 21.6 15.4932 21.6C18.288 21.6 20.8758 18.685 20.8758 16.5457C20.8758 14.4063 20.2522 13.5955 20.2926 11.8013Z" fill="url(#paint19_radial_21_1622)"/>
</g>
</g>
<defs>
<linearGradient id="paint0_linear_21_1622" x1="19.5213" y1="22.1524" x2="17.2184" y2="16.7572" gradientUnits="userSpaceOnUse">
<stop offset="0.001" stop-color="#FFCB4B"/>
<stop offset="1" stop-color="#FFD748"/>
</linearGradient>
<linearGradient id="paint1_linear_21_1622" x1="19.9798" y1="18.3995" x2="15.1497" y2="12.6382" gradientUnits="userSpaceOnUse">
<stop offset="0.001" stop-color="#FFCB4B"/>
<stop offset="1" stop-color="#FFD748"/>
</linearGradient>
<linearGradient id="paint2_linear_21_1622" x1="7.0694" y1="14.564" x2="9.91553" y2="16.6599" gradientUnits="userSpaceOnUse">
<stop offset="0.001" stop-color="#FFCB4B"/>
<stop offset="1" stop-color="#FFD748"/>
</linearGradient>
<linearGradient id="paint3_linear_21_1622" x1="6.0332" y1="9.0164" x2="11.027" y2="14.243" gradientUnits="userSpaceOnUse">
<stop offset="0.001" stop-color="#FFCB4B"/>
<stop offset="1" stop-color="#FFD748"/>
</linearGradient>
<linearGradient id="paint4_linear_21_1622" x1="9.86662" y1="12.1205" x2="8.21578" y2="13.6757" gradientUnits="userSpaceOnUse">
<stop stop-color="#FFBC47" stop-opacity="0"/>
<stop offset="1" stop-color="#FFA754"/>
</linearGradient>
<linearGradient id="paint5_linear_21_1622" x1="11.4271" y1="6.55045" x2="14.3253" y2="11.1044" gradientUnits="userSpaceOnUse">
<stop offset="0.001" stop-color="#FFCB4B"/>
<stop offset="1" stop-color="#FFD748"/>
</linearGradient>
<linearGradient id="paint6_linear_21_1622" x1="8.43561" y1="7.3072" x2="12.3685" y2="12.6202" gradientUnits="userSpaceOnUse">
<stop offset="0.001" stop-color="#FFCB4B"/>
<stop offset="1" stop-color="#FFD748"/>
</linearGradient>
<linearGradient id="paint7_linear_21_1622" x1="13.1132" y1="7.94804" x2="10.6293" y2="10.1906" gradientUnits="userSpaceOnUse">
<stop stop-color="#FFBC47" stop-opacity="0"/>
<stop offset="1" stop-color="#FFA754"/>
</linearGradient>
<linearGradient id="paint8_linear_21_1622" x1="10.8281" y1="9.54574" x2="7.41265" y2="12.0426" gradientUnits="userSpaceOnUse">
<stop stop-color="#FFBC47" stop-opacity="0"/>
<stop offset="1" stop-color="#FFA754"/>
</linearGradient>
<linearGradient id="paint9_linear_21_1622" x1="13.3721" y1="13.0265" x2="9.95672" y2="15.5234" gradientUnits="userSpaceOnUse">
<stop stop-color="#FFBC47" stop-opacity="0"/>
<stop offset="1" stop-color="#FFA754"/>
</linearGradient>
<radialGradient id="paint10_radial_21_1622" cx="0" cy="0" r="1" gradientUnits="userSpaceOnUse" gradientTransform="translate(17.8538 8.97263) scale(4.10043)">
<stop stop-color="#FFBC47" stop-opacity="0"/>
<stop offset="1" stop-color="#FFA754"/>
</radialGradient>
<linearGradient id="paint11_linear_21_1622" x1="13.5672" y1="7.50778" x2="11.4456" y2="9.47421" gradientUnits="userSpaceOnUse">
<stop offset="0.312" stop-color="#FFBC47" stop-opacity="0"/>
<stop offset="1" stop-color="#FF8900"/>
</linearGradient>
<linearGradient id="paint12_linear_21_1622" x1="11.9428" y1="8.57341" x2="9.14825" y2="11.0921" gradientUnits="userSpaceOnUse">
<stop offset="0.312" stop-color="#FFBC47" stop-opacity="0"/>
<stop offset="1" stop-color="#FF8900"/>
</linearGradient>
<linearGradient id="paint13_linear_21_1622" x1="10.9981" y1="11.2978" x2="7.54819" y2="14.1957" gradientUnits="userSpaceOnUse">
<stop offset="0.312" stop-color="#FFBC47" stop-opacity="0"/>
<stop offset="1" stop-color="#FF8900"/>
</linearGradient>
<linearGradient id="paint14_linear_21_1622" x1="7.23386" y1="13.4029" x2="11.2443" y2="16.6631" gradientUnits="userSpaceOnUse">
<stop stop-color="#FFBC47" stop-opacity="0"/>
<stop offset="1" stop-color="#FFBC47"/>
</linearGradient>
<linearGradient id="paint15_linear_21_1622" x1="8.00165" y1="9.36187" x2="11.1326" y2="14.1228" gradientUnits="userSpaceOnUse">
<stop stop-color="#FFBC47" stop-opacity="0"/>
<stop offset="1" stop-color="#FFBC47"/>
</linearGradient>
<linearGradient id="paint16_linear_21_1622" x1="10.4539" y1="9.70164" x2="11.3338" y2="9.02897" gradientUnits="userSpaceOnUse">
<stop stop-color="#FFBC47" stop-opacity="0"/>
<stop offset="1" stop-color="#FFA754"/>
</linearGradient>
<linearGradient id="paint17_linear_21_1622" x1="14.795" y1="12.3599" x2="13.622" y2="6.77081" gradientUnits="userSpaceOnUse">
<stop stop-color="#FFBC47" stop-opacity="0"/>
<stop offset="1" stop-color="#FFBC47"/>
</linearGradient>
<linearGradient id="paint18_linear_21_1622" x1="12.1176" y1="17.7241" x2="10.358" y2="19.3413" gradientUnits="userSpaceOnUse">
<stop offset="0.312" stop-color="#FFBC47" stop-opacity="0"/>
<stop offset="1" stop-color="#FF8900"/>
</linearGradient>
<radialGradient id="paint19_radial_21_1622" cx="0" cy="0" r="1" gradientUnits="userSpaceOnUse" gradientTransform="translate(13.283 12.3791) rotate(48.1401) scale(11.8853 10.7882)">
<stop offset="0.613" stop-color="#FFBC47" stop-opacity="0"/>
<stop offset="1" stop-color="#FF8900"/>
</radialGradient>
<clipPath id="clip0_21_1622">
<rect width="24" height="24" fill="white"/>
</clipPath>
<clipPath id="clip1_21_1622">
<rect width="24" height="24" fill="white"/>
</clipPath>
</defs>
</svg>
