<svg width="144" height="115" viewBox="0 0 144 115" fill="none" xmlns="http://www.w3.org/2000/svg">
<path d="M127.536 6.44875C122.223 1.57375 93.8313 0.25 70.1688 0.25C46.5063 0.25 18.25 1.5775 12.8012 6.44875C2.26 11.3237 0.25 36.355 0.25 55.18C0.25 69.115 1.3525 86.4512 6.20125 96.4937C8.2075 100.649 11.9163 105.816 16.1687 107.781C21.5087 112.664 49.9075 113.988 73.5362 113.988C97.1612 113.988 125.489 112.844 130.9 107.789C141.663 102.914 143.56 77.8862 143.56 59.0575C143.56 46.81 142.664 31.9262 139.135 21.685C137.234 16.1875 133.105 9.0325 127.536 6.44875Z" fill="#00034A" stroke="#00034A" stroke-width="0.5" stroke-miterlimit="10"/>
<path d="M127.536 103.908C138.288 99.0325 140.189 74.005 140.189 55.18C140.189 36.355 138.074 11.3275 127.536 6.44875C122.223 1.57375 93.8313 0.25 70.1688 0.25C46.5063 0.25 18.25 1.5775 12.8012 6.44875C2.26 11.3237 0.25 36.355 0.25 55.18C0.25 74.005 2.26 99.0288 12.8012 103.908C18.1413 108.783 46.54 110.103 70.165 110.103C93.79 110.103 122.121 108.963 127.536 103.908Z" fill="#F59D00" stroke="#00034A" stroke-width="0.5" stroke-miterlimit="10"/>
<path d="M15.205 30.0812C28.2925 43.7425 47.2562 58.5137 53.0987 61.0562C58.411 63.6602 64.2488 65.0139 70.165 65.0139C76.0811 65.0139 81.9189 63.6602 87.2312 61.0562C93.0437 58.765 112.007 43.885 125.095 30.0812M50.1925 60.1637L25.2437 85.15M90.1375 60.1637L115.131 85.15" stroke="#00034A" stroke-width="0.5" stroke-miterlimit="10" stroke-linecap="round"/>
</svg>
