<svg width="127" height="127" viewBox="0 0 127 127" fill="none" xmlns="http://www.w3.org/2000/svg">
<mask id="mask0_19_1051" style="mask-type:luminance" maskUnits="userSpaceOnUse" x="0" y="0" width="127" height="128">
<path d="M63.5 126C71.7091 126.01 79.8393 124.398 87.4235 121.257C95.0077 118.115 101.896 113.506 107.694 107.694C113.506 101.896 118.115 95.0077 121.257 87.4235C124.398 79.8393 126.01 71.7091 126 63.5C126.01 55.291 124.398 47.1608 121.257 39.5766C118.115 31.9924 113.506 25.1037 107.694 19.3063C101.896 13.4943 95.0077 8.88511 87.4235 5.74353C79.8393 2.60196 71.7091 0.989924 63.5 1.00005C55.291 0.989924 47.1608 2.60196 39.5766 5.74353C31.9924 8.88511 25.1037 13.4943 19.3063 19.3063C13.4943 25.1037 8.88511 31.9924 5.74353 39.5766C2.60196 47.1608 0.989924 55.291 1.00005 63.5C0.989924 71.7091 2.60196 79.8393 5.74353 87.4235C8.88511 95.0077 13.4943 101.896 19.3063 107.694C25.1037 113.506 31.9924 118.115 39.5766 121.257C47.1608 124.398 55.291 126.01 63.5 126Z" fill="#555555" stroke="white" stroke-width="2" stroke-linejoin="round"/>
<path d="M38.5 63.5001L57.25 82.2501L94.75 44.7501" stroke="white" stroke-width="2" stroke-linecap="round" stroke-linejoin="round"/>
</mask>
<g mask="url(#mask0_19_1051)">
<path d="M-11.5 -11.4999H138.5V138.5H-11.5V-11.4999Z" fill="#F59D00"/>
</g>
</svg>
