<svg width="20" height="20" viewBox="0 0 20 20" fill="none" xmlns="http://www.w3.org/2000/svg">
<path fill-rule="evenodd" clip-rule="evenodd" d="M1.16931 9.99988C1.16931 5.12296 5.12284 1.16943 9.99976 1.16943C14.8766 1.16943 18.8302 5.12296 18.8302 9.99988C18.8302 14.8767 14.8766 18.8303 9.99976 18.8303C5.12284 18.8303 1.16931 14.8767 1.16931 9.99988ZM9.99976 2.43609C5.8224 2.43609 2.43597 5.82252 2.43597 9.99988C2.43597 11.9627 3.18361 13.7508 4.40965 15.0951C5.58761 13.255 7.65087 12.0334 10.0003 12.0334C12.3494 12.0334 14.4124 13.2547 15.5905 15.0944C16.8161 13.7503 17.5636 11.9623 17.5636 9.99988C17.5636 5.82252 14.177 2.43609 9.99976 2.43609ZM14.6424 15.9716C13.7118 14.3727 11.9809 13.3 10.0003 13.3C8.0194 13.3 6.28828 14.373 5.35789 15.9722C6.63932 16.9696 8.25016 17.5636 9.99976 17.5636C11.7497 17.5636 13.3608 16.9694 14.6424 15.9716ZM6.86661 8.6732C6.86661 6.94271 8.26945 5.53987 9.99995 5.53987C11.7304 5.53987 13.1333 6.94271 13.1333 8.6732C13.1333 10.4037 11.7304 11.8065 9.99995 11.8065C8.26945 11.8065 6.86661 10.4037 6.86661 8.6732ZM9.99995 6.80653C8.96901 6.80653 8.13328 7.64227 8.13328 8.6732C8.13328 9.70413 8.96901 10.5399 9.99995 10.5399C11.0309 10.5399 11.8666 9.70413 11.8666 8.6732C11.8666 7.64227 11.0309 6.80653 9.99995 6.80653Z" fill="#020617"/>
</svg>
