<svg width="20" height="20" viewBox="0 0 20 20" fill="none" xmlns="http://www.w3.org/2000/svg">
<path d="M6.25004 3.7499C6.02903 3.7499 5.81707 3.8377 5.66079 3.99398C5.50451 4.15026 5.41671 4.36222 5.41671 4.58324C5.41671 4.80425 5.50451 5.01621 5.66079 5.17249C5.81707 5.32877 6.02903 5.41657 6.25004 5.41657C6.47106 5.41657 6.68302 5.32877 6.8393 5.17249C6.99558 5.01621 7.08338 4.80425 7.08338 4.58324C7.08338 4.36222 6.99558 4.15026 6.8393 3.99398C6.68302 3.8377 6.47106 3.7499 6.25004 3.7499ZM4.58338 4.58324C4.58346 4.27153 4.67095 3.9661 4.83591 3.70162C5.00087 3.43714 5.23669 3.22423 5.51659 3.08706C5.79649 2.94988 6.10925 2.89395 6.41934 2.92561C6.72943 2.95728 7.02443 3.07526 7.27083 3.26617C7.51723 3.45708 7.70516 3.71327 7.81326 4.00563C7.92137 4.29798 7.94532 4.6148 7.8824 4.92009C7.81948 5.22537 7.67221 5.5069 7.45732 5.73269C7.24242 5.95848 6.96852 6.11948 6.66671 6.1974V10.0591C6.83116 9.89407 7.01116 9.75324 7.20671 9.63657C7.96004 9.18324 8.93338 9.04907 9.80671 8.92824L9.94254 8.9099C10.9009 8.77657 11.7359 8.64074 12.345 8.22907C12.8534 7.8849 13.2534 7.3099 13.3225 6.1949C12.9304 6.09104 12.5897 5.84776 12.3641 5.51065C12.1385 5.17353 12.0437 4.76573 12.0972 4.36367C12.1508 3.9616 12.3492 3.59288 12.6551 3.32659C12.9611 3.0603 13.3537 2.91473 13.7593 2.91716C14.1649 2.91959 14.5557 3.06986 14.8585 3.33979C15.1612 3.60973 15.3551 3.98081 15.4039 4.38349C15.4526 4.78617 15.3529 5.1928 15.1233 5.52719C14.8937 5.86157 14.55 6.10075 14.1567 6.1999C14.0817 7.54574 13.5884 8.39407 12.8117 8.91907C12.0142 9.45824 10.975 9.60824 10.0575 9.73574L10.0025 9.74324C9.05754 9.87407 8.23921 9.98824 7.63671 10.3507C7.33958 10.5235 7.09901 10.7789 6.94421 11.0857C6.77504 11.4174 6.66671 11.8691 6.66671 12.4999V13.8024C7.05949 13.9038 7.40179 14.145 7.62946 14.4807C7.85713 14.8165 7.95454 15.2237 7.90343 15.6262C7.85231 16.0286 7.65619 16.3985 7.35181 16.6667C7.04743 16.9349 6.6557 17.0828 6.25004 17.0828C5.84439 17.0828 5.45266 16.9349 5.14828 16.6667C4.8439 16.3985 4.64778 16.0286 4.59666 15.6262C4.54555 15.2237 4.64296 14.8165 4.87063 14.4807C5.0983 14.145 5.4406 13.9038 5.83338 13.8024V6.1974C5.47555 6.10501 5.15857 5.89631 4.9323 5.60411C4.70602 5.31192 4.58328 4.9528 4.58338 4.58324ZM13.75 3.7499C13.529 3.7499 13.3171 3.8377 13.1608 3.99398C13.0045 4.15026 12.9167 4.36222 12.9167 4.58324C12.9167 4.80425 13.0045 5.01621 13.1608 5.17249C13.3171 5.32877 13.529 5.41657 13.75 5.41657C13.9711 5.41657 14.183 5.32877 14.3393 5.17249C14.4956 5.01621 14.5834 4.80425 14.5834 4.58324C14.5834 4.36222 14.4956 4.15026 14.3393 3.99398C14.183 3.8377 13.9711 3.7499 13.75 3.7499ZM6.25004 14.5832C6.02903 14.5832 5.81707 14.671 5.66079 14.8273C5.50451 14.9836 5.41671 15.1956 5.41671 15.4166C5.41671 15.6376 5.50451 15.8495 5.66079 16.0058C5.81707 16.1621 6.02903 16.2499 6.25004 16.2499C6.47106 16.2499 6.68302 16.1621 6.8393 16.0058C6.99558 15.8495 7.08338 15.6376 7.08338 15.4166C7.08338 15.1956 6.99558 14.9836 6.8393 14.8273C6.68302 14.671 6.47106 14.5832 6.25004 14.5832Z" fill="#404040"/>
</svg>
