<svg width="24" height="24" viewBox="0 0 24 24" fill="none" xmlns="http://www.w3.org/2000/svg">
<path d="M12.0002 12.708L6.75423 17.954C6.6609 18.0473 6.54623 18.0973 6.41023 18.104C6.27423 18.1107 6.1529 18.0607 6.04623 17.954C5.93956 17.8473 5.88623 17.7293 5.88623 17.6C5.88623 17.4707 5.93956 17.3527 6.04623 17.246L11.2922 12L6.04623 6.75399C5.9529 6.66065 5.9029 6.54599 5.89623 6.40999C5.88956 6.27399 5.93956 6.15265 6.04623 6.04599C6.1529 5.93932 6.2709 5.88599 6.40023 5.88599C6.52956 5.88599 6.64756 5.93932 6.75423 6.04599L12.0002 11.292L17.2462 6.04599C17.3396 5.95265 17.4546 5.90265 17.5912 5.89599C17.7266 5.88932 17.8476 5.93932 17.9542 6.04599C18.0609 6.15265 18.1142 6.27065 18.1142 6.39999C18.1142 6.52932 18.0609 6.64732 17.9542 6.75399L12.7082 12L17.9542 17.246C18.0476 17.3393 18.0976 17.4543 18.1042 17.591C18.1109 17.7263 18.0609 17.8473 17.9542 17.954C17.8476 18.0607 17.7296 18.114 17.6002 18.114C17.4709 18.114 17.3529 18.0607 17.2462 17.954L12.0002 12.708Z" fill="black"/>
</svg>
