<svg width="20" height="20" viewBox="0 0 20 20" fill="none" xmlns="http://www.w3.org/2000/svg">
<path d="M3.76067 16.2392C5.854 18.2326 8.3465 17.4351 9.344 16.6276C9.859 16.2101 10.0915 15.9401 10.2907 15.7401C10.9882 15.0926 10.944 14.4442 10.4907 13.9259C10.3082 13.7184 9.144 12.6001 8.02734 11.4534C7.449 10.8751 7.05067 10.4667 6.709 10.1367C6.25317 9.68175 5.854 9.16008 5.25567 9.17508C4.70734 9.17508 4.309 9.65842 3.80984 10.1576C3.2365 10.7309 2.81317 11.4534 2.664 12.1017C2.21484 13.9959 2.91317 15.3417 3.76067 16.2392ZM3.76067 16.2392L1.6665 18.3326M16.239 3.76258C14.1448 1.76758 11.6607 2.57925 10.664 3.38758C10.1473 3.80591 9.91567 4.07591 9.71567 4.27591C9.01817 4.92425 9.06234 5.57258 9.5165 6.09091C9.5815 6.16591 9.77484 6.35758 10.0457 6.62758M16.239 3.76258C17.0865 4.66008 17.794 6.02091 17.3448 7.91675C17.1948 8.56508 16.7715 9.28758 16.1982 9.86175C15.6998 10.3601 15.3007 10.8442 14.7523 10.8442C14.154 10.8592 13.844 10.4259 13.3865 9.97092M16.239 3.76258L18.3332 1.66675M10.0457 6.62758C10.5298 7.10675 11.2648 7.82925 11.9798 8.56425C12.5582 9.14258 13.0448 9.64091 13.3865 9.97008L12.0848 11.2409M10.0457 6.62758L8.75984 7.92092" stroke="#F59D00" stroke-width="1.5" stroke-linecap="round"/>
</svg>
