<svg width="20" height="20" viewBox="0 0 20 20" fill="none" xmlns="http://www.w3.org/2000/svg">
<path d="M6.76408 13.7824C6.94575 13.7824 7.09797 13.7208 7.22075 13.5974C7.34297 13.4746 7.40409 13.3221 7.40409 13.1399C7.40409 12.9577 7.34242 12.8055 7.21909 12.6833C7.09575 12.561 6.94325 12.4999 6.76159 12.4999C6.57992 12.4999 6.4277 12.5616 6.30492 12.6849C6.18214 12.8083 6.12103 12.9608 6.12159 13.1424C6.12214 13.3241 6.18381 13.476 6.30659 13.5983C6.42936 13.7205 6.58186 13.7824 6.76408 13.7824ZM6.76408 10.6408C6.94575 10.6408 7.09797 10.5794 7.22075 10.4566C7.34297 10.3333 7.40409 10.1805 7.40409 9.99825C7.40409 9.81603 7.34242 9.66409 7.21909 9.54242C7.09575 9.42075 6.94325 9.35964 6.76159 9.35909C6.57992 9.35853 6.4277 9.41992 6.30492 9.54325C6.18214 9.66658 6.12103 9.81936 6.12159 10.0016C6.12214 10.1838 6.18381 10.3358 6.30659 10.4574C6.42936 10.5791 6.58186 10.6402 6.76408 10.6408ZM6.76408 7.49992C6.94575 7.49992 7.09797 7.43853 7.22075 7.31575C7.34297 7.19242 7.40409 7.03964 7.40409 6.85742C7.40409 6.6752 7.34242 6.52325 7.21909 6.40159C7.09575 6.27992 6.94325 6.21881 6.76159 6.21825C6.57992 6.2177 6.4277 6.27909 6.30492 6.40242C6.1827 6.52575 6.12159 6.67825 6.12159 6.85992C6.12159 7.04159 6.18325 7.19381 6.30659 7.31659C6.42992 7.43936 6.58242 7.50047 6.76408 7.49992ZM9.32659 13.5583H13.8141V12.7249H9.32659V13.5583ZM9.32659 10.4166H13.8141V9.58325H9.32659V10.4166ZM9.32659 7.27492H13.8141V6.44159H9.32659V7.27492ZM4.67992 16.6666C4.29603 16.6666 3.97575 16.5383 3.71909 16.2816C3.46242 16.0249 3.33381 15.7044 3.33325 15.3199V4.67992C3.33325 4.29603 3.46186 3.97575 3.71909 3.71909C3.97631 3.46242 4.29659 3.33381 4.67992 3.33325H15.3208C15.7041 3.33325 16.0244 3.46186 16.2816 3.71909C16.5388 3.97631 16.6671 4.29659 16.6666 4.67992V15.3208C16.6666 15.7041 16.5383 16.0244 16.2816 16.2816C16.0249 16.5388 15.7044 16.6671 15.3199 16.6666H4.67992ZM4.67992 15.8333H15.3208C15.4485 15.8333 15.566 15.7799 15.6733 15.6733C15.7805 15.5666 15.8338 15.4488 15.8333 15.3199V4.67992C15.8333 4.55159 15.7799 4.43381 15.6733 4.32659C15.5666 4.21936 15.4488 4.16603 15.3199 4.16659H4.67992C4.55159 4.16659 4.43381 4.21992 4.32659 4.32659C4.21936 4.43325 4.16603 4.55103 4.16659 4.67992V15.3208C4.16659 15.4485 4.21992 15.566 4.32659 15.6733C4.43325 15.7805 4.55075 15.8338 4.67909 15.8333" fill="black"/>
</svg>
