<svg width="16" height="16" viewBox="0 0 16 16" fill="none" xmlns="http://www.w3.org/2000/svg">
<path d="M2 2V5.33333H5.33333" stroke="#64748B" stroke-width="1.25" stroke-linecap="round" stroke-linejoin="round"/>
<path d="M2.03333 8.66665C2.181 10.0039 2.7738 11.2526 3.71652 12.2124C4.65924 13.1722 5.89718 13.7874 7.23153 13.959C8.56587 14.1307 9.91919 13.8489 11.0741 13.159C12.2291 12.469 13.1187 11.4109 13.6 10.1546C14.0813 8.89832 14.1264 7.51672 13.7281 6.23169C13.3298 4.94666 12.5112 3.83278 11.4037 3.06894C10.2962 2.30509 8.96419 1.93561 7.62148 2.01983C6.27878 2.10405 5.00334 2.63708 4 3.53331L2 5.33331" stroke="#64748B" stroke-width="1.25" stroke-linecap="round" stroke-linejoin="round"/>
<path d="M8 4.66675V8.00008L10.6667 9.33341" stroke="#64748B" stroke-width="1.25" stroke-linecap="round" stroke-linejoin="round"/>
</svg>
