<svg width="150" height="125" viewBox="0 0 150 125" fill="none" xmlns="http://www.w3.org/2000/svg">
<path d="M70.7594 124.654C86.9757 124.654 100.122 122.365 100.122 119.542C100.122 116.719 86.9757 114.43 70.7594 114.43C54.5431 114.43 41.3972 116.719 41.3972 119.542C41.3972 122.365 54.5431 124.654 70.7594 124.654Z" fill="#E5E7EB"/>
<path d="M91.7599 73.765C89.2171 71.5081 90.1048 64.0227 90.1048 64.0227H62.345C62.345 64.0227 63.2327 71.5043 60.69 73.765C58.1472 76.0256 53.167 77.1503 53.167 83.7893V118.549H99.3205V83.7893C99.3017 77.1541 94.2989 76.0256 91.7599 73.765Z" fill="white"/>
<path d="M99.3016 118.737H53.148C53.0982 118.737 53.0503 118.718 53.015 118.682C52.9798 118.647 52.96 118.599 52.96 118.549V83.7894C52.96 78.6211 56.0143 76.6727 58.4706 75.1079C59.2058 74.6682 59.9062 74.1727 60.5657 73.6259C63.0069 71.4555 62.1681 64.1168 62.1606 64.0416C62.1566 64.0153 62.1586 63.9885 62.1664 63.9631C62.1742 63.9377 62.1876 63.9144 62.2057 63.8949C62.2236 63.8759 62.2452 63.8608 62.2691 63.8505C62.293 63.8401 62.3188 63.8348 62.3449 63.8347H90.1047C90.1308 63.8348 90.1566 63.8401 90.1805 63.8505C90.2044 63.8608 90.226 63.8759 90.2439 63.8949C90.2619 63.9144 90.2754 63.9377 90.2832 63.9631C90.291 63.9885 90.293 64.0153 90.289 64.0416C90.289 64.1168 89.4427 71.4555 91.8839 73.6259C92.5434 74.1727 93.2438 74.6682 93.979 75.1079C96.4353 76.6727 99.4896 78.6211 99.4896 83.7894V118.549C99.4896 118.574 99.4848 118.599 99.4753 118.621C99.4659 118.644 99.452 118.665 99.4345 118.682C99.4171 118.7 99.3963 118.714 99.3735 118.723C99.3507 118.733 99.3262 118.737 99.3016 118.737ZM53.3361 118.361H99.1135V83.7894C99.1135 78.828 96.2811 77.0187 93.7797 75.4276C93.0254 74.9761 92.3073 74.4668 91.6319 73.9042C89.2584 71.794 89.7511 65.471 89.8941 64.2109H62.5555C62.6834 65.471 63.1912 71.794 60.8177 73.9042C60.1422 74.4668 59.4242 74.9761 58.6699 75.4276C56.1685 77.0225 53.3361 78.813 53.3361 83.7894V118.361Z" fill="#0F172A"/>
<path d="M71.335 105.207C69.9959 107.434 71.4967 112.38 71.4967 112.38L73.4828 113.821C74.9099 114.679 76.6193 114.934 78.2351 114.532C79.8508 114.13 81.2406 113.102 82.0985 111.675C82.9564 110.248 83.2123 108.538 82.8099 106.922C82.4075 105.307 81.3796 103.917 79.9526 103.059L77.7295 101.983C77.7295 101.983 72.6553 102.976 71.335 105.207Z" fill="#FFB9AA"/>
<path d="M76.6877 114.908C75.5167 114.909 74.3678 114.589 73.3663 113.982L71.3652 112.531C71.3313 112.507 71.3072 112.473 71.2975 112.433C71.2335 112.23 69.7929 107.385 71.1546 105.109C72.5237 102.852 77.4814 101.84 77.692 101.799C77.7298 101.786 77.7708 101.786 77.8086 101.799L80.0166 102.875C81.2422 103.597 82.1955 104.703 82.7287 106.022C83.262 107.34 83.3455 108.798 82.9663 110.169C82.5872 111.54 81.7665 112.748 80.6314 113.605C79.4963 114.463 78.1102 114.922 76.6877 114.912V114.908ZM71.6398 112.275L73.5732 113.678C74.2593 114.089 75.0197 114.361 75.811 114.478C76.6022 114.596 77.4089 114.556 78.1848 114.362C78.9607 114.167 79.6908 113.822 80.3333 113.346C80.9758 112.869 81.5181 112.271 81.9294 111.585C82.3406 110.898 82.6126 110.138 82.73 109.347C82.8474 108.555 82.8077 107.749 82.6133 106.973C82.419 106.197 82.0736 105.467 81.5971 104.824C81.1206 104.182 80.5222 103.64 79.8361 103.228L77.7033 102.186C77.1278 102.311 72.6817 103.315 71.478 105.312C70.2744 107.31 71.478 111.699 71.6398 112.267V112.275Z" fill="#0F172A"/>
<path d="M75.3299 113.9C78.7971 113.9 81.6079 111.089 81.6079 107.622C81.6079 104.155 78.7971 101.344 75.3299 101.344C71.8627 101.344 69.052 104.155 69.052 107.622C69.052 111.089 71.8627 113.9 75.3299 113.9Z" fill="#FFB9AA"/>
<path d="M75.3184 114.083C73.8917 114.08 72.5064 113.604 71.3784 112.73C70.2504 111.857 69.4433 110.634 69.0828 109.254C68.7223 107.874 68.8287 106.413 69.3855 105.099C69.9423 103.786 70.9181 102.693 72.1608 101.992C73.4035 101.292 74.8431 101.022 76.2553 101.225C77.6675 101.428 78.9727 102.093 79.9675 103.115C80.9623 104.138 81.5907 105.461 81.7547 106.878C81.9187 108.296 81.6091 109.727 80.8742 110.95C80.2997 111.91 79.4853 112.703 78.5112 113.252C77.5371 113.802 76.4368 114.088 75.3184 114.083ZM75.341 101.528C74.8415 101.528 74.344 101.589 73.859 101.708C72.3585 102.082 71.0573 103.015 70.2205 104.315C69.3837 105.616 69.0743 107.186 69.3555 108.707C69.6367 110.227 70.4871 111.584 71.7336 112.499C72.9801 113.414 74.5287 113.82 76.0637 113.633C77.5988 113.446 79.0047 112.68 79.995 111.492C80.9852 110.305 81.4852 108.784 81.3931 107.24C81.3009 105.697 80.6235 104.246 79.499 103.185C78.3744 102.123 76.8874 101.531 75.341 101.528Z" fill="#0F172A"/>
<path d="M71.8088 104.744C72.0722 104.902 72.3317 105.057 72.5912 105.218C72.6439 105.248 72.6702 105.245 72.7078 105.218C73.0139 104.876 73.4023 104.617 73.8363 104.466C74.2881 104.305 74.7836 104.315 75.228 104.496C75.3484 104.541 75.4688 104.601 75.6042 104.658L74.8745 105.869C74.6908 105.761 74.476 105.719 74.2651 105.749C74.1032 105.791 73.9438 105.843 73.7874 105.903V105.918L75.292 106.824L75.4011 106.715C75.6623 106.425 75.9564 106.166 76.2775 105.944C76.514 105.776 76.7918 105.675 77.0812 105.651C77.3707 105.628 77.661 105.684 77.9213 105.813C78.3786 106.003 78.7545 106.348 78.9835 106.787C79.2124 107.227 79.2798 107.732 79.1738 108.216C79.1174 108.487 79.0272 108.75 78.9482 109.032L79.535 109.382L78.8654 110.511L78.2636 110.135C78.068 110.323 77.8874 110.511 77.6956 110.676C77.3219 111.004 76.8489 111.196 76.3527 111.222C75.9262 111.23 75.5065 111.114 75.1453 110.887L75.8487 109.679C76.0618 109.792 76.3052 109.833 76.5435 109.797C76.7817 109.761 77.0022 109.65 77.1727 109.48L75.5515 108.506C75.3522 108.694 75.1528 108.882 74.9497 109.066C74.7107 109.294 74.4203 109.46 74.1034 109.552C73.7772 109.633 73.4335 109.609 73.1216 109.484C72.7323 109.347 72.3886 109.105 72.1286 108.784C71.9418 108.553 71.8082 108.283 71.7373 107.995C71.6665 107.706 71.6601 107.405 71.7186 107.114C71.7637 106.877 71.8578 106.651 71.9255 106.418L71.9555 106.339L71.1431 105.85L71.8088 104.744ZM77.8573 108.378C77.9451 108.18 77.9738 107.96 77.9401 107.746C77.9064 107.565 77.8073 107.402 77.6617 107.289C77.5161 107.176 77.3341 107.121 77.1502 107.133C76.8902 107.207 76.655 107.35 76.4693 107.547L77.8573 108.378ZM72.9674 106.971C72.9407 107.157 72.9282 107.344 72.9298 107.532C72.938 107.632 72.9682 107.73 73.0182 107.818C73.0683 107.906 73.1369 107.981 73.2194 108.04C73.3019 108.098 73.3961 108.138 73.4955 108.156C73.595 108.174 73.6971 108.17 73.7949 108.145C73.993 108.058 74.17 107.93 74.314 107.769L72.9674 106.971Z" fill="white"/>
<path d="M75.2619 70.6053C73.5918 72.5838 74.2351 77.707 74.2351 77.707L75.9541 79.4598C77.22 80.5432 78.8645 81.0794 80.5258 80.9503C82.187 80.8212 83.729 80.0374 84.8124 78.7715C85.8958 77.5055 86.4319 75.861 86.3028 74.1997C86.1737 72.5385 85.39 70.9966 84.124 69.9132L82.1267 68.4875C82.1267 68.4875 76.9546 68.6305 75.2619 70.6053Z" fill="#FFB9AA"/>
<path d="M80.0317 81.1485C78.4959 81.1436 77.0124 80.5899 75.8489 79.5875L74.1149 77.8233C74.0879 77.7923 74.0697 77.7547 74.0622 77.7142C74.0359 77.5036 73.4115 72.4858 75.1343 70.4696C76.857 68.4534 81.9049 68.2917 82.1306 68.2842C82.1705 68.2856 82.2094 68.2973 82.2435 68.318L84.2408 69.7474C85.2492 70.6045 85.9701 71.7506 86.3061 73.0306C86.642 74.3107 86.5769 75.663 86.1195 76.9049C85.662 78.1467 84.8343 79.2182 83.7483 79.9744C82.6622 80.7307 81.3702 81.1352 80.0468 81.1334L80.0317 81.1485ZM74.4158 77.6202L76.0897 79.3279C77.3192 80.3754 78.9145 80.8916 80.5247 80.7628C82.1348 80.6341 83.6278 79.871 84.6753 78.6414C85.7228 77.4119 86.2389 75.8166 86.1102 74.2065C85.9814 72.5964 85.2184 71.1033 83.9888 70.0558L82.0629 68.6791C81.4761 68.7017 76.9247 68.9537 75.4051 70.7291C73.8854 72.5046 74.3443 77.0372 74.4158 77.6202Z" fill="#0F172A"/>
<path d="M78.8243 79.9296C82.2915 79.9296 85.1023 77.1189 85.1023 73.6517C85.1023 70.1845 82.2915 67.3738 78.8243 67.3738C75.3571 67.3738 72.5464 70.1845 72.5464 73.6517C72.5464 77.1189 75.3571 79.9296 78.8243 79.9296Z" fill="#FFB9AA"/>
<path d="M78.8202 80.1146C77.7781 80.1145 76.7515 79.8624 75.8278 79.38C74.9041 78.8975 74.1107 78.199 73.5151 77.3438C72.9196 76.4887 72.5396 75.5022 72.4074 74.4685C72.2753 73.4349 72.3949 72.3845 72.7562 71.4071C73.1175 70.4296 73.7096 69.5539 74.4823 68.8546C75.2549 68.1553 76.1851 67.6531 77.1936 67.3908C78.2022 67.1285 79.2592 67.1138 80.2746 67.3481C81.2901 67.5823 82.2338 68.0585 83.0256 68.7361C84.0297 69.5955 84.7464 70.7419 85.079 72.021C85.4117 73.3001 85.3444 74.6505 84.8863 75.8902C84.4281 77.1299 83.601 78.1994 82.5164 78.9547C81.4319 79.71 80.1419 80.1148 78.8202 80.1146ZM78.8202 67.5625C77.3917 67.5623 76.0086 68.0647 74.9132 68.9816C73.8177 69.8984 73.0797 71.1714 72.8283 72.5777C72.577 73.9839 72.8283 75.4338 73.5382 76.6734C74.2482 77.913 75.3716 78.8633 76.7117 79.3581C78.0518 79.8528 79.5233 79.8604 80.8684 79.3795C82.2135 78.8985 83.3466 77.9598 84.0693 76.7275C84.792 75.4953 85.0582 74.0481 84.8213 72.6394C84.5844 71.2306 83.8595 69.9501 82.7736 69.022C81.6759 68.0767 80.2764 67.555 78.8277 67.5512L78.8202 67.5625Z" fill="#0F172A"/>
<path d="M75.8263 70.2332L76.5222 70.8275C76.5292 70.8361 76.5381 70.8431 76.5482 70.8479C76.5583 70.8527 76.5693 70.8552 76.5805 70.8552C76.5917 70.8552 76.6027 70.8527 76.6128 70.8479C76.6228 70.8431 76.6317 70.8361 76.6388 70.8275C76.9947 70.5418 77.4161 70.3492 77.865 70.267C78.3366 70.1852 78.8218 70.2774 79.2305 70.5266C79.3433 70.5943 79.4486 70.6732 79.5652 70.7485L78.6474 71.8205C78.4826 71.6852 78.2775 71.6085 78.0644 71.6023C77.8977 71.6169 77.7319 71.6408 77.5679 71.6738V71.7077L78.9032 72.8361L79.0311 72.7421C79.3353 72.5001 79.6674 72.2955 80.0204 72.1327C80.2813 72.0051 80.572 71.9506 80.8615 71.9751C81.151 71.9996 81.4284 72.1022 81.6642 72.2719C82.1284 72.5586 82.4609 73.0167 82.5895 73.547C82.6976 73.9795 82.666 74.4351 82.4992 74.8485C82.4014 75.108 82.2698 75.3525 82.1456 75.6008L82.6647 76.0447L81.8221 77.0339L81.2842 76.575C81.0585 76.7293 80.8554 76.8835 80.6335 77.0151C80.245 77.2659 79.7844 77.3809 79.3237 77.3421C78.8629 77.3033 78.428 77.1129 78.087 76.8007L78.9897 75.7437C79.1794 75.8925 79.4125 75.9753 79.6536 75.9794C79.8947 75.9834 80.1304 75.9086 80.3251 75.7663L78.8919 74.5401C78.6625 74.6905 78.4368 74.8447 78.2036 74.9914C77.9304 75.1752 77.6168 75.2901 77.2895 75.3262C76.954 75.3546 76.618 75.2756 76.3304 75.1005C75.9707 74.8998 75.6728 74.6046 75.469 74.2467C75.3227 73.9878 75.2354 73.6998 75.2133 73.4033C75.1912 73.1068 75.2348 72.8091 75.3411 72.5314C75.4347 72.3084 75.5415 72.0911 75.6608 71.8807L75.7022 71.8055L74.98 71.1886L75.8263 70.2332ZM81.1902 74.8184C81.3088 74.637 81.374 74.4258 81.3783 74.2091C81.3792 74.0219 81.3104 73.8411 81.1852 73.702C81.06 73.5629 80.8874 73.4755 80.7012 73.4568C80.4284 73.4842 80.1683 73.5856 79.9489 73.7501L81.1902 74.8184ZM76.62 72.6255C76.5619 72.8023 76.5179 72.9834 76.4883 73.1671C76.4798 73.2681 76.4933 73.3697 76.5281 73.4649C76.5629 73.56 76.618 73.6465 76.6897 73.7181C76.7613 73.7897 76.8477 73.8449 76.9429 73.8797C77.0381 73.9144 77.1397 73.928 77.2406 73.9194C77.4493 73.8685 77.6452 73.775 77.8161 73.6448L76.62 72.6255Z" fill="white"/>
<path d="M58.9973 61.7617V66.8435C58.9973 68.9499 66.7121 70.6576 76.225 70.6576C85.7378 70.6576 93.4526 68.9499 93.4526 66.8435V61.7617H58.9973Z" fill="white"/>
<path d="M76.2248 70.8458C67.6636 70.8458 58.8091 69.3412 58.8091 66.8436V61.7618C58.8091 61.7119 58.8289 61.6641 58.8642 61.6288C58.8994 61.5935 58.9473 61.5737 58.9972 61.5737H93.4524C93.5023 61.5737 93.5501 61.5935 93.5854 61.6288C93.6207 61.6641 93.6405 61.7119 93.6405 61.7618V66.8436C93.6405 69.3487 84.786 70.8458 76.2248 70.8458ZM59.1852 61.9499V66.8398C59.1852 68.5927 66.0311 70.4659 76.2248 70.4659C86.4184 70.4659 93.2644 68.5852 93.2644 66.8398V61.9499H59.1852Z" fill="#0F172A"/>
<path d="M76.225 65.5756C85.7395 65.5756 93.4526 63.8679 93.4526 61.7614C93.4526 59.6549 85.7395 57.9473 76.225 57.9473C66.7104 57.9473 58.9973 59.6549 58.9973 61.7614C58.9973 63.8679 66.7104 65.5756 76.225 65.5756Z" fill="white"/>
<path d="M76.2248 65.7602C67.6636 65.7602 58.8091 64.2556 58.8091 61.7617C58.8091 59.2678 67.6636 57.7708 76.2248 57.7708C84.786 57.7708 93.6405 59.2753 93.6405 61.773C93.6405 64.2706 84.786 65.7602 76.2248 65.7602ZM76.2248 58.1469C66.0311 58.1469 59.1852 60.0276 59.1852 61.773C59.1852 63.5183 66.0311 65.3953 76.2248 65.3953C86.4184 65.3953 93.2644 63.5145 93.2644 61.773C93.2644 60.0314 86.4184 58.1469 76.2248 58.1469Z" fill="#0F172A"/>
<path d="M76.225 123.657C88.9699 123.657 99.3017 121.37 99.3017 118.549C99.3017 115.728 88.9699 113.441 76.225 113.441C63.48 113.441 53.1482 115.728 53.1482 118.549C53.1482 121.37 63.48 123.657 76.225 123.657Z" fill="white"/>
<path d="M76.2248 123.842C63.1799 123.842 52.96 121.517 52.96 118.55C52.96 115.582 63.1799 113.253 76.2248 113.253C89.2696 113.253 99.4896 115.578 99.4896 118.55C99.4896 121.521 89.2696 123.842 76.2248 123.842ZM76.2248 113.63C65.1698 113.63 53.3361 115.604 53.3361 118.55C53.3361 121.495 65.1698 123.466 76.2248 123.466C87.2798 123.466 99.1135 121.491 99.1135 118.55C99.1135 115.608 87.2798 113.63 76.2248 113.63Z" fill="#0F172A"/>
<path d="M55.9129 114.216C55.863 114.216 55.8152 114.196 55.7799 114.161C55.7447 114.126 55.7249 114.078 55.7249 114.028V82.8075C55.7249 80.7575 58.4218 78.7677 60.7991 77.0073C62.2285 75.9503 63.5788 74.9535 63.782 74.2802C64.1297 73.1009 64.3405 71.8854 64.4101 70.6579C64.4095 70.6327 64.4142 70.6076 64.424 70.5844C64.4338 70.5612 64.4484 70.5403 64.467 70.5232C64.4855 70.5061 64.5074 70.4932 64.5314 70.4853C64.5553 70.4773 64.5807 70.4746 64.6057 70.4773C64.6304 70.4783 64.6547 70.4841 64.6772 70.4945C64.6996 70.5048 64.7198 70.5195 64.7366 70.5377C64.7533 70.5559 64.7664 70.5772 64.7749 70.6004C64.7834 70.6236 64.7873 70.6482 64.7863 70.6729C64.7155 71.9336 64.4997 73.1818 64.1431 74.393C63.8986 75.183 62.567 76.1685 61.021 77.3082C58.8318 78.9294 56.101 80.9493 56.101 82.8075V114.028C56.101 114.078 56.0812 114.126 56.0459 114.161C56.0106 114.196 55.9628 114.216 55.9129 114.216Z" fill="#E5E7EB"/>
<path d="M96.5371 114.216C96.4872 114.216 96.4394 114.196 96.4041 114.161C96.3688 114.126 96.349 114.078 96.349 114.028V82.8075C96.349 80.9493 93.6182 78.9294 91.429 77.3082C89.883 76.1797 88.5514 75.1829 88.3069 74.393C87.9503 73.1818 87.7345 71.9335 87.6637 70.6729C87.6627 70.6482 87.6666 70.6235 87.6751 70.6003C87.6837 70.5771 87.6967 70.5558 87.7134 70.5377C87.7302 70.5195 87.7504 70.5048 87.7729 70.4945C87.7953 70.4841 87.8196 70.4783 87.8443 70.4773C87.8929 70.4773 87.9396 70.496 87.9747 70.5297C88.0097 70.5634 88.0304 70.6093 88.0324 70.6578C88.102 71.8854 88.3128 73.1008 88.6605 74.2802C88.8636 74.9535 90.214 75.9503 91.6434 77.0072C94.0207 78.7676 96.7176 80.7687 96.7176 82.8075V114.028C96.7177 114.076 96.6989 114.123 96.6652 114.158C96.6316 114.193 96.5857 114.214 96.5371 114.216Z" fill="#E5E7EB"/>
<path d="M59.0764 113.177V116.408C59.0764 117.631 62.0856 118.624 65.7531 118.624C69.4205 118.624 72.4259 117.631 72.4259 116.408V113.177H59.0764Z" fill="#FFB9AA"/>
<path d="M65.7529 118.812C62.3676 118.812 58.8882 117.913 58.8882 116.408V113.177C58.8882 113.127 58.908 113.08 58.9433 113.044C58.9785 113.009 59.0264 112.989 59.0763 112.989H72.4258C72.4757 112.989 72.5235 113.009 72.5588 113.044C72.5941 113.08 72.6139 113.127 72.6139 113.177V116.408C72.6139 117.913 69.1232 118.812 65.7529 118.812ZM59.2643 113.365V116.408C59.2643 117.386 61.871 118.436 65.7529 118.436C69.6348 118.436 72.2377 117.386 72.2377 116.408V113.365H59.2643Z" fill="#0F172A"/>
<path d="M65.753 115.393C69.4383 115.393 72.4259 114.401 72.4259 113.178C72.4259 111.954 69.4383 110.962 65.753 110.962C62.0676 110.962 59.0801 111.954 59.0801 113.178C59.0801 114.401 62.0676 115.393 65.753 115.393Z" fill="#0F172A"/>
<path d="M65.7529 115.581C62.3676 115.581 58.8882 114.682 58.8882 113.178C58.8882 111.673 62.3788 110.774 65.7529 110.774C69.127 110.774 72.6139 111.673 72.6139 113.178C72.6139 114.682 69.1232 115.581 65.7529 115.581ZM65.7529 111.15C61.871 111.15 59.2643 112.2 59.2643 113.178C59.2643 114.156 61.871 115.205 65.7529 115.205C69.6348 115.205 72.2377 114.156 72.2377 113.178C72.2377 112.2 69.631 111.15 65.7529 111.15Z" fill="#0F172A"/>
<path d="M60.6484 108.75V111.978C60.6484 113.204 63.6388 114.193 67.3251 114.193C71.0113 114.193 73.998 113.204 73.998 111.978V108.75H60.6484Z" fill="#FFB9AA"/>
<path d="M67.3254 114.382C63.9401 114.382 60.4607 113.483 60.4607 111.978V108.751C60.4607 108.701 60.4805 108.653 60.5158 108.618C60.5511 108.582 60.5989 108.562 60.6488 108.562H73.9983C74.0482 108.562 74.096 108.582 74.1313 108.618C74.1666 108.653 74.1864 108.701 74.1864 108.751V111.978C74.1864 113.483 70.6957 114.382 67.3254 114.382ZM60.8368 108.927V111.967C60.8368 112.948 63.4436 113.994 67.3254 113.994C71.2073 113.994 73.8102 112.948 73.8102 111.967V108.927H60.8368Z" fill="#0F172A"/>
<path d="M67.3252 110.966C71.0106 110.966 73.9981 109.975 73.9981 108.751C73.9981 107.527 71.0106 106.535 67.3252 106.535C63.6399 106.535 60.6523 107.527 60.6523 108.751C60.6523 109.975 63.6399 110.966 67.3252 110.966Z" fill="#0F172A"/>
<path d="M67.3254 111.15C63.9401 111.15 60.4607 110.251 60.4607 108.75C60.4607 107.249 63.9514 106.347 67.3254 106.347C70.6995 106.347 74.1864 107.246 74.1864 108.75C74.1864 110.255 70.6957 111.15 67.3254 111.15ZM67.3254 106.723C63.4436 106.723 60.8368 107.769 60.8368 108.75C60.8368 109.732 63.4436 110.774 67.3254 110.774C71.2073 110.774 73.8102 109.728 73.8102 108.75C73.8102 107.772 71.2035 106.723 67.3254 106.723Z" fill="#0F172A"/>
<path d="M59.2983 103.812V107.047C59.2983 108.269 62.2887 109.262 65.975 109.262C69.6613 109.262 72.6479 108.269 72.6479 107.047V103.812H59.2983Z" fill="#FFB9AA"/>
<path d="M65.9599 109.446C62.5746 109.446 59.0952 108.547 59.0952 107.043V103.812C59.0952 103.762 59.115 103.714 59.1503 103.679C59.1856 103.643 59.2334 103.624 59.2833 103.624H72.6328C72.6827 103.624 72.7305 103.643 72.7658 103.679C72.8011 103.714 72.8209 103.762 72.8209 103.812V107.046C72.8397 108.551 69.3302 109.446 65.9599 109.446ZM59.4714 104V107.046C59.4714 108.024 62.0781 109.074 65.9599 109.074C69.8418 109.074 72.4636 108.021 72.4636 107.046V104H59.4714Z" fill="#0F172A"/>
<path d="M65.96 106.027C69.6453 106.027 72.6329 105.035 72.6329 103.812C72.6329 102.588 69.6453 101.596 65.96 101.596C62.2747 101.596 59.2871 102.588 59.2871 103.812C59.2871 105.035 62.2747 106.027 65.96 106.027Z" fill="#0F172A"/>
<path d="M65.9599 106.215C62.5746 106.215 59.0952 105.316 59.0952 103.812C59.0952 102.307 62.5859 101.408 65.9599 101.408C69.334 101.408 72.8397 102.307 72.8397 103.812C72.8397 105.316 69.3302 106.215 65.9599 106.215ZM65.9599 101.784C62.0781 101.784 59.4714 102.834 59.4714 103.812C59.4714 104.79 62.0781 105.839 65.9599 105.839C69.8418 105.839 72.4636 104.79 72.4636 103.812C72.4636 102.834 69.8305 101.781 65.9599 101.781V101.784Z" fill="#0F172A"/>
<path d="M76.6465 112.614V115.845C76.6465 117.071 79.6331 118.06 83.3194 118.06C87.0056 118.06 89.996 117.071 89.996 115.845V112.614H76.6465Z" fill="#FFB9AA"/>
<path d="M83.3192 118.248C79.9339 118.248 76.4583 117.349 76.4583 115.844V112.613C76.4583 112.563 76.4781 112.515 76.5133 112.48C76.5486 112.445 76.5964 112.425 76.6463 112.425H89.9959C90.0457 112.425 90.0936 112.445 90.1288 112.48C90.1641 112.515 90.1839 112.563 90.1839 112.613V115.844C90.1839 117.349 86.6933 118.248 83.3192 118.248ZM76.8344 112.801V115.844C76.8344 116.826 79.4411 117.872 83.3192 117.872C87.1973 117.872 89.8078 116.826 89.8078 115.844V112.801H76.8344Z" fill="#0F172A"/>
<path d="M83.3194 114.829C87.0047 114.829 89.9923 113.837 89.9923 112.613C89.9923 111.39 87.0047 110.398 83.3194 110.398C79.634 110.398 76.6465 111.39 76.6465 112.613C76.6465 113.837 79.634 114.829 83.3194 114.829Z" fill="#0F172A"/>
<path d="M83.3192 115.017C79.9339 115.017 76.4583 114.118 76.4583 112.613C76.4583 111.109 79.9489 110.214 83.3192 110.214C86.6895 110.214 90.1839 111.113 90.1839 112.613C90.1839 114.114 86.6933 115.017 83.3192 115.017ZM83.3192 110.59C79.4411 110.59 76.8344 111.635 76.8344 112.613C76.8344 113.591 79.4411 114.641 83.3192 114.641C87.1973 114.641 89.8078 113.595 89.8078 112.613C89.8078 111.632 87.2011 110.59 83.3192 110.59Z" fill="#0F172A"/>
<path d="M75.7773 108.784V112.015C75.7773 113.238 78.764 114.231 82.4502 114.231C86.1365 114.231 89.1269 113.238 89.1269 112.015V108.784H75.7773Z" fill="#FFB9AA"/>
<path d="M82.4503 114.419C79.065 114.419 75.5894 113.52 75.5894 112.015V108.784C75.5894 108.734 75.6092 108.686 75.6444 108.651C75.6797 108.616 75.7275 108.596 75.7774 108.596H89.127C89.1768 108.596 89.2247 108.616 89.26 108.651C89.2952 108.686 89.315 108.734 89.315 108.784V112.015C89.315 113.52 85.8244 114.419 82.4503 114.419ZM75.9655 108.972V112.015C75.9655 112.993 78.5722 114.043 82.4503 114.043C86.3284 114.043 88.9389 112.993 88.9389 112.015V108.972H75.9655Z" fill="#0F172A"/>
<path d="M82.4502 111C86.1356 111 89.1231 110.008 89.1231 108.784C89.1231 107.561 86.1356 106.569 82.4502 106.569C78.7649 106.569 75.7773 107.561 75.7773 108.784C75.7773 110.008 78.7649 111 82.4502 111Z" fill="#0F172A"/>
<path d="M82.4503 111.184C79.065 111.184 75.5894 110.285 75.5894 108.78C75.5894 107.276 79.08 106.377 82.4503 106.377C85.8206 106.377 89.315 107.276 89.315 108.78C89.315 110.285 85.8244 111.184 82.4503 111.184ZM82.4503 106.753C78.5722 106.753 75.9655 107.802 75.9655 108.78C75.9655 109.758 78.5722 110.808 82.4503 110.808C86.3284 110.808 88.9389 109.758 88.9389 108.78C88.9389 107.802 86.3322 106.757 82.4503 106.757V106.753Z" fill="#0F172A"/>
<path d="M76.853 104.12V107.351C76.853 108.573 79.8397 109.567 83.5259 109.567C87.2122 109.567 90.2026 108.573 90.2026 107.351V104.12H76.853Z" fill="#FFB9AA"/>
<path d="M83.526 109.755C80.1407 109.755 76.665 108.856 76.665 107.351V104.12C76.665 104.07 76.6849 104.022 76.7201 103.987C76.7554 103.952 76.8032 103.932 76.8531 103.932H90.2027C90.2525 103.932 90.3004 103.952 90.3356 103.987C90.3709 104.022 90.3907 104.07 90.3907 104.12V107.351C90.3907 108.856 86.9001 109.755 83.526 109.755ZM77.0412 104.308V107.351C77.0412 108.329 79.6479 109.379 83.526 109.379C87.4041 109.379 90.0146 108.329 90.0146 107.351V104.308H77.0412Z" fill="#0F172A"/>
<path d="M83.5259 106.336C87.2113 106.336 90.1988 105.344 90.1988 104.12C90.1988 102.896 87.2113 101.905 83.5259 101.905C79.8406 101.905 76.853 102.896 76.853 104.12C76.853 105.344 79.8406 106.336 83.5259 106.336Z" fill="#0F172A"/>
<path d="M83.526 106.523C80.1407 106.523 76.665 105.624 76.665 104.12C76.665 102.615 80.1557 101.716 83.526 101.716C86.8963 101.716 90.3907 102.615 90.3907 104.12C90.3907 105.624 86.9001 106.523 83.526 106.523ZM83.526 102.092C79.6479 102.092 77.0412 103.142 77.0412 104.12C77.0412 105.098 79.6479 106.147 83.526 106.147C87.4041 106.147 90.0146 105.098 90.0146 104.12C90.0146 103.142 87.4079 102.092 83.526 102.092Z" fill="#0F172A"/>
<path d="M75.7773 99.4368V102.668C75.7773 103.89 78.764 104.883 82.4502 104.883C86.1365 104.883 89.1269 103.89 89.1269 102.668V99.4368H75.7773Z" fill="#FFB9AA"/>
<path d="M82.4503 105.072C79.065 105.072 75.5894 104.173 75.5894 102.668V99.4369C75.5894 99.387 75.6092 99.3391 75.6444 99.3039C75.6797 99.2686 75.7275 99.2488 75.7774 99.2488H89.127C89.1768 99.2488 89.2247 99.2686 89.26 99.3039C89.2952 99.3391 89.315 99.387 89.315 99.4369V102.668C89.315 104.173 85.8244 105.072 82.4503 105.072ZM75.9655 99.6249V102.668C75.9655 103.646 78.5722 104.695 82.4503 104.695C86.3284 104.695 88.9389 103.646 88.9389 102.668V99.6249H75.9655Z" fill="#0F172A"/>
<path d="M82.4502 101.653C86.1356 101.653 89.1231 100.661 89.1231 99.4372C89.1231 98.2136 86.1356 97.2217 82.4502 97.2217C78.7649 97.2217 75.7773 98.2136 75.7773 99.4372C75.7773 100.661 78.7649 101.653 82.4502 101.653Z" fill="#0F172A"/>
<path d="M82.4503 101.84C79.065 101.84 75.5894 100.941 75.5894 99.4368C75.5894 97.9322 79.08 97.0332 82.4503 97.0332C85.8206 97.0332 89.315 97.9322 89.315 99.4368C89.315 100.941 85.8244 101.84 82.4503 101.84ZM82.4503 97.4094C78.5722 97.4094 75.9655 98.4588 75.9655 99.4368C75.9655 100.415 78.5722 101.464 82.4503 101.464C86.3284 101.464 88.9389 100.415 88.9389 99.4368C88.9389 98.4588 86.3322 97.4094 82.4503 97.4094Z" fill="#0F172A"/>
<path d="M77.929 95.6074V98.8385C77.929 100.061 80.9156 101.05 84.6018 101.05C88.2881 101.05 91.271 100.061 91.271 98.8385V95.6074H77.929Z" fill="#FFB9AA"/>
<path d="M84.6017 101.239C81.2163 101.239 77.7407 100.343 77.7407 98.8389V95.6078C77.7407 95.5579 77.7605 95.51 77.7958 95.4748C77.8311 95.4395 77.8789 95.4197 77.9288 95.4197H91.2708C91.3207 95.4197 91.3685 95.4395 91.4038 95.4748C91.4391 95.51 91.4589 95.5579 91.4589 95.6078V98.8389C91.4664 100.343 87.9757 101.239 84.6017 101.239ZM78.1056 95.7958V98.8389C78.1056 99.8169 80.7123 100.863 84.5904 100.863C88.4685 100.863 91.079 99.8169 91.079 98.8389V95.7958H78.1056Z" fill="#0F172A"/>
<path d="M84.6018 97.8234C88.2872 97.8234 91.2747 96.8314 91.2747 95.6079C91.2747 94.3843 88.2872 93.3923 84.6018 93.3923C80.9165 93.3923 77.929 94.3843 77.929 95.6079C77.929 96.8314 80.9165 97.8234 84.6018 97.8234Z" fill="#0F172A"/>
<path d="M84.6017 98.0192C81.2163 98.0192 77.7407 97.124 77.7407 95.6194C77.7407 94.1148 81.2314 93.2158 84.6017 93.2158C87.972 93.2158 91.4664 94.1148 91.4664 95.6194C91.4664 97.124 87.9757 98.0192 84.6017 98.0192ZM84.6017 93.592C80.7386 93.5807 78.1056 94.6339 78.1056 95.6081C78.1056 96.5824 80.7386 97.6431 84.6017 97.6431C88.4647 97.6431 91.0903 96.5974 91.0903 95.6194C91.0903 94.6414 88.4835 93.5807 84.6017 93.5807V93.592Z" fill="#0F172A"/>
<path d="M76.4656 91.7788V95.0099C76.4656 96.2362 79.4522 97.2254 83.1385 97.2254C86.8247 97.2254 89.8151 96.2362 89.8151 95.0099V91.7826L76.4656 91.7788Z" fill="#FFB9AA"/>
<path d="M83.1388 97.4094C79.7535 97.4094 76.2778 96.5104 76.2778 95.0058V91.7784C76.2778 91.7285 76.2976 91.6807 76.3329 91.6454C76.3682 91.6101 76.416 91.5903 76.4659 91.5903H89.8154C89.8653 91.5903 89.9132 91.6101 89.9484 91.6454C89.9837 91.6807 90.0035 91.7285 90.0035 91.7784V95.0095C90.0035 96.5141 86.5129 97.4094 83.1388 97.4094ZM76.654 91.9665V95.0095C76.654 95.9913 79.2607 97.037 83.1388 97.037C87.0169 97.037 89.6274 95.9913 89.6274 95.0095V91.9702L76.654 91.9665Z" fill="#0F172A"/>
<path d="M83.1385 93.9943C86.8238 93.9943 89.8113 93.0023 89.8113 91.7788C89.8113 90.5552 86.8238 89.5632 83.1385 89.5632C79.4531 89.5632 76.4656 90.5552 76.4656 91.7788C76.4656 93.0023 79.4531 93.9943 83.1385 93.9943Z" fill="#FFB9AA"/>
<path d="M83.1388 94.1787C79.7535 94.1787 76.2778 93.2797 76.2778 91.7788C76.2778 90.278 79.7647 89.3752 83.1388 89.3752C86.5129 89.3752 90.0035 90.2742 90.0035 91.7788C90.0035 93.2834 86.5129 94.1787 83.1388 94.1787ZM83.1388 89.7514C79.2607 89.7514 76.654 90.7971 76.654 91.7788C76.654 92.7606 79.2607 93.8025 83.1388 93.8025C87.0169 93.8025 89.6274 92.7568 89.6274 91.7788C89.6274 90.8008 87.0207 89.7439 83.1388 89.7439V89.7514Z" fill="#0F172A"/>
<path d="M69.1084 116.676L69.2551 119.084C69.2852 120.697 72.3658 121.95 76.1349 121.878C79.9039 121.807 82.9356 120.441 82.9056 118.828L82.7589 116.42L69.1084 116.676Z" fill="#FFB9AA"/>
<path d="M75.8489 122.07C74.2776 122.099 72.7147 121.834 71.2411 121.287C69.8682 120.731 69.1008 119.948 69.0858 119.087L68.9391 116.687C68.9374 116.636 68.9548 116.587 68.988 116.548C69.0235 116.511 69.0721 116.489 69.1234 116.488L82.7738 116.232C82.8218 116.232 82.868 116.25 82.903 116.283C82.938 116.316 82.959 116.361 82.9619 116.409L83.1086 118.816C83.1425 120.569 80.0994 121.995 76.1536 122.066L75.8489 122.07ZM69.3265 116.86L69.4544 119.083C69.4544 119.783 70.1653 120.46 71.3728 120.964C72.8984 121.523 74.5186 121.779 76.1423 121.716C79.7383 121.648 82.755 120.339 82.7287 118.857L82.5933 116.638L69.3265 116.86Z" fill="#0F172A"/>
<path d="M75.9843 119.477C79.7541 119.406 82.7857 118.039 82.7556 116.423C82.7254 114.807 79.6448 113.554 75.875 113.625C72.1051 113.695 69.0735 115.062 69.1037 116.678C69.1339 118.294 72.2144 119.547 75.9843 119.477Z" fill="#FFB9AA"/>
<path d="M75.6835 119.663C74.1122 119.692 72.5494 119.427 71.0757 118.881C69.7028 118.324 68.9354 117.541 68.9204 116.68C68.8903 114.935 71.9296 113.509 75.8754 113.438C77.5493 113.373 79.2195 113.638 80.7917 114.216C82.1646 114.773 82.9319 115.555 82.947 116.417C82.9808 118.162 79.9378 119.588 75.992 119.659L75.6835 119.663ZM76.1838 113.818H75.8829C72.2869 113.885 69.2702 115.194 69.2965 116.676C69.2965 117.368 70.0112 118.045 71.2187 118.534C72.7428 119.095 74.362 119.35 75.9845 119.287C79.5842 119.223 82.6009 117.91 82.5708 116.428C82.5708 115.736 81.8599 115.059 80.6525 114.57C79.2232 114.041 77.7074 113.786 76.1838 113.818Z" fill="#0F172A"/>
<path d="M80.7801 116.138L79.8134 116.236C79.7495 116.236 79.7419 116.236 79.7683 116.285C79.8691 116.374 79.9457 116.487 79.9911 116.614C80.0365 116.741 80.0491 116.878 80.0278 117.011C79.9564 117.266 79.6517 117.443 79.1852 117.545C79.0574 117.571 78.9182 117.594 78.7752 117.616L77.8424 116.804C78.0178 116.798 78.1867 116.736 78.3239 116.627C78.3699 116.555 78.4042 116.476 78.4254 116.394H78.3916L76.5861 116.574L76.635 116.661C76.7692 116.854 76.8627 117.073 76.9095 117.304C76.966 117.68 76.665 117.906 76.0294 118.019C75.4153 118.121 74.7868 118.097 74.1825 117.947C73.7248 117.851 73.2887 117.671 72.896 117.417C72.6967 117.281 72.5199 117.138 72.3393 116.999L71.6773 117.067L71.2222 116.412L71.8729 116.345C71.8398 116.221 71.8146 116.096 71.7977 115.969C71.7939 115.844 71.8278 115.722 71.8949 115.617C71.9621 115.512 72.0593 115.43 72.1738 115.382C72.465 115.236 72.782 115.149 73.1067 115.126L73.6521 115.724C73.2045 115.799 72.9675 115.954 73.0465 116.217L74.8294 116.029C74.7805 115.897 74.7241 115.769 74.6827 115.653C74.6494 115.585 74.637 115.51 74.647 115.435C74.6571 115.361 74.6892 115.291 74.7392 115.235C74.9027 115.087 75.1074 114.993 75.326 114.964C75.6969 114.888 76.0761 114.859 76.4544 114.878C77.0712 114.905 77.6786 115.039 78.2486 115.277C78.463 115.371 78.6474 115.476 78.8505 115.577L78.9219 115.615L79.8698 115.517L80.7801 116.138ZM73.5693 116.864C73.722 116.993 73.8983 117.091 74.0884 117.154C74.2594 117.222 74.4426 117.253 74.6265 117.247C74.8104 117.24 74.991 117.196 75.1567 117.116C75.2883 116.996 75.2094 116.849 75.1755 116.702L73.5693 116.864ZM77.707 115.735C77.5189 115.66 77.3609 115.589 77.1804 115.532C76.7553 115.401 76.2212 115.438 76.1234 115.604C76.0745 115.69 76.1234 115.792 76.1723 115.897L77.707 115.735Z" fill="white"/>
<path d="M80.4717 88.2808L79.9864 90.643C79.6103 92.2115 82.2433 94.2202 85.907 95.1304C89.5707 96.0407 92.847 95.5066 93.2344 93.938L93.7197 91.5758L80.4717 88.2808Z" fill="#FFB9AA"/>
<path d="M89.3185 95.7619C88.1509 95.7522 86.9889 95.6006 85.8579 95.3106C82.0438 94.3627 79.3844 92.3014 79.8019 90.5974L80.2871 88.239C80.292 88.2143 80.3019 88.1909 80.3161 88.1702C80.3303 88.1495 80.3486 88.132 80.3699 88.1186C80.4142 88.0928 80.4666 88.0848 80.5166 88.096L93.7646 91.3911C93.8113 91.4027 93.8517 91.4318 93.8776 91.4724C93.9035 91.513 93.9129 91.562 93.9037 91.6093L93.4185 93.9715C93.2116 94.8178 92.2901 95.4084 90.8268 95.6453C90.3279 95.7241 89.8236 95.7631 89.3185 95.7619ZM80.6144 88.5098L80.1705 90.6802C79.7944 92.1283 82.4575 94.0655 85.9519 94.9457C87.5196 95.3708 89.1556 95.4833 90.7667 95.2767C92.0531 95.0698 92.8844 94.562 93.0536 93.8925L93.4975 91.7146L80.6144 88.5098Z" fill="#0F172A"/>
<path d="M93.7242 91.5812C94.1144 90.0128 91.4645 88.0034 87.8055 87.0931C84.1465 86.1829 80.864 86.7164 80.4738 88.2849C80.0836 89.8533 82.7335 91.8627 86.3925 92.7729C90.0515 93.6832 93.334 93.1496 93.7242 91.5812Z" fill="#FFB9AA"/>
<path d="M89.8002 93.4C88.6339 93.39 87.4731 93.2385 86.3434 92.9487C84.7106 92.5769 83.1668 91.888 81.7995 90.9212C80.6146 90.026 80.0805 89.0706 80.2949 88.2355C80.5093 87.4005 81.4233 86.8099 82.8866 86.5729C86.238 86.205 89.6108 87.0439 92.3994 88.9389C93.5805 89.8342 94.1184 90.7858 93.904 91.6209C93.6933 92.4597 92.7755 93.0502 91.3085 93.2872C90.8095 93.3647 90.3052 93.4024 89.8002 93.4ZM84.3912 86.8325C83.9051 86.8308 83.4196 86.8673 82.9392 86.9416C81.6528 87.1522 80.8215 87.6562 80.6522 88.3258C80.483 88.9953 80.987 89.8304 82.0252 90.6203C84.7325 92.4494 87.9995 93.2622 91.2483 92.9148C92.5385 92.7079 93.3698 92.2039 93.5353 91.5306C93.7046 90.861 93.2043 90.026 92.1662 89.2361C90.8368 88.3015 89.3381 87.6346 87.7539 87.2726C86.6546 86.9918 85.5256 86.8441 84.3912 86.8325Z" fill="#0F172A"/>
<path d="M91.88 90.7889L90.9208 90.6309C90.8606 90.6309 90.8493 90.6309 90.8681 90.6685C90.9383 90.7797 90.9804 90.9062 90.9909 91.0373C91.0013 91.1683 90.9799 91.2999 90.9283 91.4208C90.7929 91.6503 90.4656 91.7481 89.9729 91.7217C89.845 91.7217 89.702 91.6954 89.5591 91.6841L88.8708 90.6535C89.0413 90.6948 89.2206 90.6803 89.3823 90.6121C89.4435 90.5529 89.4967 90.4859 89.5403 90.4127L89.5102 90.3902L87.7197 90.0968C87.7197 90.1269 87.7197 90.157 87.7461 90.1908C87.8248 90.4139 87.8581 90.6505 87.8439 90.8867C87.8025 91.2628 87.4677 91.4058 86.8095 91.3456C86.1891 91.2863 85.5875 91.1007 85.0416 90.8002C84.6257 90.5876 84.2522 90.3007 83.9394 89.9538C83.7815 89.7695 83.6536 89.5777 83.5106 89.4047L82.8524 89.2993L82.5815 88.547L83.2285 88.6524C83.2282 88.5266 83.2357 88.401 83.2511 88.2762C83.2781 88.1546 83.3415 88.0441 83.4329 87.9594C83.5243 87.8748 83.6393 87.8199 83.7627 87.8023C84.0806 87.7394 84.4077 87.7394 84.7256 87.8023L85.1017 88.5207C84.6466 88.4793 84.3795 88.5621 84.3833 88.8367L86.1587 89.1225C86.1587 88.9796 86.1249 88.8442 86.1173 88.7088C86.1051 88.6372 86.1139 88.5635 86.1426 88.4968C86.1713 88.43 86.2187 88.373 86.2791 88.3326C86.4741 88.2299 86.6963 88.1904 86.9148 88.2198C87.2986 88.242 87.678 88.314 88.0432 88.4342C88.6326 88.6178 89.1843 88.9057 89.672 89.2843C89.8563 89.4272 90.0067 89.5777 90.176 89.7319L90.2324 89.7846L91.1766 89.935L91.88 90.7889ZM84.7331 89.6191C84.8459 89.7838 84.9904 89.9245 85.1582 90.0328C85.3061 90.1422 85.4748 90.2203 85.654 90.2624C85.8331 90.3044 86.0189 90.3095 86.2001 90.2773C86.3581 90.1946 86.3205 90.0291 86.3242 89.9012L84.7331 89.6191ZM89.04 89.5965C88.8745 89.4724 88.7429 89.3595 88.5849 89.2617C88.2087 89.021 87.6821 88.9194 87.5467 89.0548C87.4715 89.1263 87.4978 89.2392 87.5166 89.352L89.04 89.5965Z" fill="white"/>
<path d="M64.1621 92.7524L66.2196 94.0125C67.5587 94.9152 70.3573 93.1097 72.4562 89.9839C74.5551 86.8581 75.1833 83.5894 73.8404 82.6866L71.7867 81.4265L64.1621 92.7524Z" fill="#FFB9AA"/>
<path d="M67.0433 94.4228C66.7143 94.4298 66.3907 94.3381 66.1142 94.1595L64.0642 92.8994C64.0221 92.8717 63.9926 92.8286 63.982 92.7793C63.9715 92.7301 63.9807 92.6786 64.0078 92.6361L71.6323 81.3103C71.6586 81.2697 71.6997 81.2411 71.7468 81.2305C71.7939 81.22 71.8433 81.2283 71.8844 81.2538L73.9381 82.5139C75.3938 83.4957 74.807 86.8133 72.6141 90.0783C70.8199 92.7527 68.5893 94.4228 67.0433 94.4228ZM64.4103 92.6812L66.291 93.8435C67.5285 94.6748 70.2632 92.8505 72.2756 89.8677C74.288 86.8848 74.9425 83.6612 73.7087 82.8299L71.8279 81.6676L64.4103 92.6812Z" fill="#0F172A"/>
<path d="M70.4013 88.7067C72.5065 85.5786 73.1261 82.3112 71.7852 81.4088C70.4444 80.5065 67.6508 82.3108 65.5456 85.4389C63.4405 88.567 62.8209 91.8343 64.1617 92.7367C65.5026 93.6391 68.2961 91.8348 70.4013 88.7067Z" fill="#FFB9AA"/>
<path d="M64.9856 93.1625C64.6573 93.1693 64.3346 93.0762 64.0603 92.8955C63.3456 92.414 63.1011 91.3495 63.3795 89.8863C64.1819 86.6123 66.1216 83.73 68.8525 81.7539C70.0975 80.9527 71.1771 80.7722 71.8917 81.2537C72.6064 81.7351 72.8472 82.8034 72.5726 84.2629C71.7663 87.5351 69.8274 90.4161 67.0996 92.3952C66.4804 92.8434 65.7481 93.1092 64.9856 93.1625ZM70.9589 81.3703C70.2687 81.4242 69.6071 81.669 69.0481 82.0774C66.4007 84.0002 64.5203 86.7989 63.7406 89.9766C63.4999 91.2555 63.6879 92.2146 64.2597 92.6096C64.8314 93.0046 65.7906 92.8127 66.8927 92.1056C69.5384 90.1812 71.4184 87.3832 72.2002 84.2064C72.4447 82.9275 72.2566 81.9721 71.6811 81.5734C71.4665 81.4341 71.2146 81.3633 70.9589 81.3703Z" fill="#0F172A"/>
<path d="M70.4173 82.8755L69.9434 83.7256C69.9133 83.7782 69.9171 83.7933 69.9434 83.7895C70.076 83.7567 70.2148 83.7585 70.3466 83.7947C70.4783 83.8309 70.5985 83.9004 70.6957 83.9964C70.865 84.1995 70.8424 84.5381 70.6505 84.9932C70.5979 85.1136 70.5339 85.2377 70.4738 85.3694L69.2701 85.6627C69.367 85.5173 69.4145 85.3445 69.4055 85.17C69.3693 85.0921 69.3239 85.0188 69.2701 84.9518L69.24 84.9744L68.356 86.558H68.4501C68.6871 86.5595 68.9214 86.6094 69.1384 86.7047C69.4694 86.8664 69.492 87.2501 69.2174 87.8331C68.9435 88.395 68.5598 88.8964 68.089 89.3076C67.7468 89.6277 67.3491 89.8826 66.9154 90.0599C66.6897 90.1464 66.4753 90.2066 66.2534 90.2781L65.9299 90.8574H65.1362L65.4522 90.2856C65.3318 90.2432 65.2149 90.1916 65.1023 90.1314C64.9978 90.0649 64.9161 89.968 64.8683 89.8537C64.8206 89.7393 64.809 89.6131 64.8353 89.492C64.8822 89.1714 64.9921 88.8633 65.1588 88.5854L65.96 88.4763C65.7681 88.8901 65.7531 89.1722 66.0164 89.2587C66.3073 88.7371 66.5982 88.2143 66.8891 87.6902C66.7499 87.6563 66.6145 87.6263 66.4866 87.5886C66.4125 87.5771 66.3436 87.5438 66.2887 87.4928C66.2337 87.4419 66.1952 87.3757 66.1781 87.3028C66.1467 87.0842 66.1863 86.8614 66.291 86.6671C66.44 86.3149 66.6361 85.9847 66.874 85.6853C67.247 85.1945 67.7058 84.7752 68.2282 84.4478C68.4275 84.3237 68.6043 84.2334 68.8187 84.1243L68.8902 84.0904L69.3566 83.2554L70.4173 82.8755ZM66.8778 89.1948C67.071 89.144 67.2525 89.0558 67.4119 88.9353C67.5655 88.8342 67.6965 88.7025 67.7968 88.5485C67.8972 88.3944 67.9646 88.2213 67.9949 88.04C67.9724 87.8632 67.8069 87.8407 67.6677 87.788L66.8778 89.1948ZM68.3259 85.1361C68.1529 85.2527 68.0025 85.3393 67.8558 85.4521C67.5022 85.7267 67.2276 86.1856 67.3066 86.3586C67.348 86.4527 67.4646 86.4639 67.5774 86.4865L68.3259 85.1361Z" fill="white"/>
<path d="M59.1929 99.9784L59.3396 102.386C59.3697 104.003 62.4503 105.252 66.2193 105.184C69.9884 105.117 73.0201 103.747 72.99 102.13L72.8433 99.7227L59.1929 99.9784Z" fill="#FFB9AA"/>
<path d="M65.9073 105.376C62.1458 105.376 59.1855 104.09 59.1366 102.39L58.9936 99.9899C58.9913 99.9651 58.9945 99.9401 59.003 99.9167C59.0114 99.8933 59.0249 99.8721 59.0425 99.8545C59.059 99.8354 59.0791 99.8199 59.1018 99.8089C59.1244 99.7979 59.149 99.7917 59.1742 99.7906L72.8397 99.5235C72.8873 99.5224 72.9335 99.5398 72.9686 99.5721C73.0037 99.6044 73.0249 99.649 73.0278 99.6965L73.1745 102.104C73.1745 102.973 72.456 103.785 71.1057 104.395C69.5544 105.033 67.893 105.36 66.2157 105.358L65.9073 105.376ZM59.3924 100.163L59.5278 102.375C59.5579 103.879 62.6197 105.064 66.2157 105.008C67.8434 105.007 69.4551 104.686 70.959 104.064C72.1476 103.529 72.8397 102.826 72.8096 102.134L72.6742 99.9147L59.3924 100.163Z" fill="#0F172A"/>
<path d="M66.0714 102.78C69.8413 102.709 72.8729 101.342 72.8427 99.7261C72.8125 98.1102 69.732 96.8573 65.9621 96.9277C62.1923 96.9981 59.1607 98.3652 59.1909 99.9811C59.2211 101.597 62.3016 102.85 66.0714 102.78Z" fill="#FFB9AA"/>
<path d="M65.7641 102.969C61.98 102.969 59.0386 101.683 58.9934 99.9824C58.9483 98.2822 62.0026 96.8153 65.9484 96.74C67.6234 96.6781 69.2944 96.9425 70.8684 97.5187C72.2414 98.0791 73.005 98.8615 73.02 99.7229C73.0388 100.581 72.3016 101.393 70.9512 102.002C69.4 102.64 67.7386 102.968 66.0613 102.965L65.7641 102.969ZM66.2719 97.1124H65.9672C62.3712 97.1801 59.3545 98.4891 59.3808 99.9749C59.4072 101.461 62.4766 102.653 66.0725 102.585C67.6965 102.587 69.3051 102.271 70.8083 101.656C71.9969 101.118 72.689 100.415 72.6552 99.7229C72.6552 99.0345 71.9442 98.3575 70.7368 97.8647C69.3084 97.3377 67.7941 97.0825 66.2719 97.1124Z" fill="#0F172A"/>
<path d="M70.8647 99.4448L69.898 99.5389C69.8341 99.5389 69.8266 99.5577 69.8529 99.5878C69.9537 99.6772 70.0304 99.7906 70.0757 99.9175C70.1211 100.044 70.1337 100.181 70.1124 100.314C70.041 100.57 69.7363 100.746 69.2699 100.852C69.142 100.878 69.0028 100.897 68.8599 100.923L67.927 100.107C68.1016 100.101 68.2699 100.04 68.4085 99.9338C68.4536 99.8597 68.489 99.78 68.5138 99.6969H68.4762L66.6707 99.8774L66.7196 99.9602C66.8546 100.155 66.9481 100.375 66.9942 100.607C67.0506 100.983 66.7497 101.209 66.114 101.318C65.5001 101.42 64.8719 101.397 64.2671 101.25C63.8097 101.151 63.3739 100.97 62.9806 100.716C62.7813 100.581 62.6045 100.442 62.4277 100.299L61.7619 100.366L61.3105 99.7157L61.9613 99.648C61.9273 99.5243 61.901 99.3987 61.8823 99.2718C61.8783 99.147 61.912 99.0238 61.9791 98.9184C62.0462 98.8131 62.1436 98.7304 62.2584 98.6813C62.5484 98.5365 62.8642 98.4508 63.1875 98.4292L63.7367 99.0236C63.2891 99.1026 63.0484 99.253 63.1273 99.5163L64.9103 99.332C64.8614 99.2004 64.8087 99.0687 64.7636 98.9559C64.7331 98.8879 64.7222 98.8128 64.7322 98.739C64.7421 98.6652 64.7726 98.5957 64.82 98.5383C64.983 98.3891 65.1878 98.2933 65.4068 98.2637C65.7777 98.1866 66.1571 98.1588 66.5353 98.181C67.1523 98.2058 67.76 98.3408 68.3295 98.5797C68.5477 98.67 68.7282 98.7753 68.9313 98.8806L69.0028 98.9182L69.9507 98.8204L70.8647 99.4448ZM63.654 100.171C63.8079 100.297 63.9839 100.394 64.173 100.457C64.3439 100.524 64.5269 100.556 64.7107 100.551C64.8944 100.545 65.075 100.501 65.2413 100.423C65.373 100.302 65.2977 100.152 65.2413 100.009L63.654 100.171ZM67.7916 99.0424C67.5998 98.9671 67.4418 98.8919 67.2612 98.8355C66.8362 98.7038 66.302 98.7414 66.208 98.907C66.1553 98.9972 66.208 99.0988 66.2569 99.2003L67.7916 99.0424Z" fill="white"/>
<path d="M78.2864 49.2738L79.8662 51.0831C80.8705 52.3394 84.0603 51.4592 86.9905 49.1083C89.9207 46.7574 91.4779 43.8422 90.4736 42.5859L88.8976 40.7766L78.2864 49.2738Z" fill="#FFB9AA"/>
<path d="M81.3556 51.8467C81.0513 51.8706 80.7457 51.8251 80.4616 51.7137C80.1775 51.6023 79.9224 51.4278 79.7155 51.2035L78.1432 49.398C78.1268 49.379 78.1143 49.3569 78.1066 49.333C78.0988 49.3091 78.0959 49.2839 78.0981 49.2588C78.1039 49.2073 78.1295 49.1601 78.1696 49.1272L88.777 40.63C88.8153 40.5999 88.8637 40.5859 88.9121 40.5908C88.9605 40.5957 89.0051 40.6192 89.0365 40.6563L90.6164 42.4656C91.1542 43.1389 91.0677 44.2259 90.3719 45.5274C89.537 46.9709 88.4278 48.2373 87.1069 49.2551C85.0305 50.9176 82.8677 51.8467 81.3556 51.8467ZM78.557 49.3002L80.0052 50.959C80.9343 52.1175 84.0751 51.1997 86.8699 48.9617C88.152 47.976 89.2292 46.7494 90.0408 45.3506C90.6502 44.2222 90.7555 43.2404 90.3267 42.7176L88.871 41.0475L78.557 49.3002Z" fill="#0F172A"/>
<path d="M85.4122 47.3002C88.3423 44.9536 89.9028 42.0339 88.8977 40.7789C87.8925 39.5238 84.7024 40.4087 81.7724 42.7553C78.8423 45.1019 77.2819 48.0216 78.287 49.2766C79.2921 50.5317 82.4822 49.6468 85.4122 47.3002Z" fill="#FFB9AA"/>
<path d="M79.7759 50.0373C79.4723 50.0608 79.1673 50.0152 78.8839 49.9038C78.6004 49.7924 78.346 49.6181 78.1397 49.394C77.0526 48.0361 78.5986 45.0533 81.6529 42.6234C82.9337 41.5506 84.4122 40.7391 86.005 40.2348C87.4306 39.8399 88.5064 39.9903 89.0443 40.6599C90.1276 42.0178 88.5854 44.9969 85.531 47.4305C83.4547 49.1195 81.2918 50.0373 79.7759 50.0373ZM87.408 40.3966C86.9673 40.4055 86.5297 40.4725 86.1065 40.5959C84.5637 41.0814 83.1312 41.8648 81.8899 42.9017C79.0914 45.1586 77.5115 48.0061 78.4331 49.1571C79.3547 50.3081 82.4993 49.3903 85.2941 47.1522C88.0888 44.9141 89.6724 42.0479 88.7509 40.8968C88.5787 40.7184 88.3686 40.5808 88.1363 40.4942C87.9039 40.4076 87.655 40.3743 87.408 40.3966Z" fill="#0F172A"/>
<path d="M87.1637 41.7581L86.4603 42.4238C86.4151 42.4652 86.4151 42.4803 86.4603 42.4878C86.5947 42.4968 86.7246 42.5398 86.8378 42.6128C86.951 42.6859 87.0437 42.7865 87.1073 42.9053C87.2051 43.1498 87.0847 43.462 86.7687 43.8382L86.4904 44.1428L85.2604 44.0676C85.4071 43.9096 85.5312 43.7592 85.5312 43.6388C85.5236 43.5535 85.5034 43.4698 85.471 43.3905H85.4372L84.1244 44.6431L84.2109 44.6807C84.4358 44.7509 84.6434 44.8675 84.8203 45.023C85.0873 45.2751 84.9933 45.6437 84.5607 46.1176C84.1378 46.5731 83.6256 46.9367 83.0561 47.1859C82.638 47.3925 82.1853 47.52 81.7208 47.562C81.4801 47.562 81.2619 47.562 81.0287 47.562L80.5472 48.0172L79.7949 47.7764L80.2689 47.3288C80.1679 47.2528 80.0724 47.1699 79.983 47.0806C79.9028 46.9865 79.8533 46.8701 79.8412 46.747C79.8291 46.624 79.855 46.5001 79.9153 46.3922C80.0584 46.1067 80.2551 45.8513 80.4946 45.6399L81.2882 45.7791C80.9836 46.1139 80.8858 46.3772 81.1077 46.5314L82.4016 45.2976C82.285 45.2262 82.1609 45.1584 82.0518 45.0832C81.9824 45.0497 81.9249 44.9956 81.8873 44.9283C81.8496 44.861 81.8335 44.7838 81.8412 44.7071C81.8802 44.4908 81.9838 44.2915 82.1383 44.1353C82.3864 43.8487 82.6709 43.5958 82.9847 43.383C83.4855 43.0277 84.0461 42.7652 84.6397 42.6082C84.8654 42.548 85.0761 42.5216 85.298 42.4803H85.377L86.0653 41.8258L87.1637 41.7581ZM81.9202 46.7119C82.1183 46.7209 82.3162 46.6916 82.5032 46.6254C82.8793 46.4975 83.2856 46.1665 83.3232 45.9484C83.3608 45.7302 83.2028 45.7039 83.0862 45.6098L81.9202 46.7119ZM84.5005 43.289C84.3049 43.3454 84.1244 43.383 83.9589 43.447C83.5414 43.6012 83.1464 43.9548 83.169 44.1428C83.169 44.2444 83.2893 44.2933 83.3871 44.346L84.5005 43.289Z" fill="white"/>
<path d="M64.5642 38.166L62.8865 39.8813C61.7167 40.9871 62.8564 44.0941 65.4293 46.825C68.0022 49.5558 71.0377 50.8799 72.2 49.7777L73.8776 48.0587L64.5642 38.166Z" fill="#FFB9AA"/>
<path d="M71.0904 50.3532C70.4651 50.3297 69.8509 50.18 69.2849 49.9131C67.7823 49.1953 66.4342 48.191 65.3165 46.9566C62.6308 44.1054 61.5212 40.9382 62.7851 39.7458L64.4589 38.0343C64.4756 38.0151 64.4966 38.0001 64.52 37.9903C64.5435 37.9805 64.569 37.9762 64.5943 37.9779C64.6456 37.9794 64.6943 38.001 64.7298 38.0381L74.047 47.9308C74.0803 47.9658 74.0989 48.0122 74.0989 48.0606C74.0989 48.1089 74.0803 48.1554 74.047 48.1903L72.3693 49.9093C72.0176 50.219 71.5584 50.3783 71.0904 50.3532ZM64.5642 38.4368L63.022 40.0128C61.9425 41.0322 63.1086 44.0903 65.5648 46.697C66.6585 47.9017 67.9806 48.8772 69.4542 49.567C70.6428 50.0861 71.6133 50.1125 72.1136 49.6423L73.6595 48.0587L64.5642 38.4368Z" fill="#0F172A"/>
<path d="M73.9005 48.065C75.0711 46.9626 73.9338 43.8536 71.3603 41.1207C68.7867 38.3878 65.7515 37.066 64.581 38.1684C63.4104 39.2707 64.5477 42.3797 67.1212 45.1126C69.6947 47.8455 72.73 49.1673 73.9005 48.065Z" fill="#FFB9AA"/>
<path d="M72.7645 48.6376C71.2373 48.6376 69.003 47.3737 66.9831 45.2522C64.2973 42.401 63.1877 39.2338 64.4516 38.0452C65.076 37.4547 66.1668 37.4547 67.5209 38.0452C69.0263 38.7621 70.3769 39.7665 71.4968 41.0017C72.6626 42.1904 73.584 43.5962 74.2089 45.1394C74.7167 46.5236 74.6527 47.6107 74.0283 48.2012C73.6794 48.5048 73.2263 48.6612 72.7645 48.6376ZM65.7117 37.9662C65.3476 37.9454 64.9894 38.0652 64.7111 38.301C63.6353 39.3128 64.8014 42.3709 67.2576 44.9814C69.7139 47.5919 72.6968 48.9347 73.7725 47.9229C74.2728 47.4527 74.3029 46.4822 73.8591 45.2635C73.2513 43.7658 72.3569 42.4011 71.226 41.2462C70.1427 40.0462 68.834 39.0711 67.3742 38.3762C66.8536 38.1281 66.288 37.9886 65.7117 37.9662Z" fill="#0F172A"/>
<path d="M72.7831 46.4113L72.0647 45.7644C72.0196 45.7192 72.0045 45.723 72.0007 45.7644C72.0004 45.8998 71.9657 46.033 71.8999 46.1514C71.8341 46.2698 71.7394 46.3696 71.6246 46.4414C71.3914 46.558 71.0641 46.464 70.6654 46.1781C70.5601 46.0991 70.4548 46.0126 70.3419 45.9224L70.3156 44.6923C70.4375 44.8167 70.5954 44.8996 70.767 44.9293C70.8522 44.9143 70.9346 44.8864 71.0115 44.8466V44.8127L69.6724 43.6053C69.6595 43.6344 69.6495 43.6646 69.6423 43.6956C69.5886 43.9252 69.4888 44.1414 69.3489 44.3312C69.1194 44.6171 68.7433 44.5532 68.2204 44.1582C67.7338 43.7734 67.3306 43.2935 67.0356 42.7477C66.8023 42.3458 66.6442 41.9048 66.5692 41.4462C66.5353 41.2092 66.524 40.9873 66.5052 40.7578L66.0125 40.314L66.1892 39.5429L66.6745 39.9754C66.7535 39.8701 66.8174 39.7573 66.8964 39.6708C66.9843 39.5841 67.0965 39.5262 67.2181 39.5047C67.3397 39.4832 67.4649 39.4991 67.5772 39.5504C67.8789 39.6679 68.1548 39.8429 68.3897 40.0657L68.3258 40.8669C67.9684 40.5923 67.6938 40.5133 67.5509 40.7503L68.8825 41.9427C68.9464 41.8186 69.0066 41.6907 69.0705 41.5665C69.0982 41.4972 69.1458 41.4376 69.2075 41.3954C69.2691 41.3531 69.3419 41.3303 69.4166 41.3296C69.6356 41.3487 69.8433 41.4355 70.0109 41.5778C70.3174 41.8029 70.5941 42.0658 70.8347 42.3602C71.2263 42.8324 71.5318 43.3697 71.7374 43.9476C71.8164 44.1695 71.8578 44.3764 71.918 44.5945C71.918 44.6171 71.918 44.6434 71.918 44.6735L72.6289 45.3055L72.7831 46.4113ZM67.4268 41.5966C67.4339 41.7951 67.4786 41.9903 67.5584 42.1721C67.7164 42.5483 68.0775 42.9244 68.3107 42.9244C68.5439 42.9244 68.5477 42.7853 68.6304 42.6611L67.4268 41.5966ZM71.0453 43.8949C70.9739 43.7031 70.9212 43.5188 70.8422 43.3683C70.6579 42.9658 70.2705 42.5972 70.0899 42.6386C69.9883 42.6574 69.9507 42.7665 69.9056 42.8718L71.0453 43.8949Z" fill="white"/>
<path d="M85.6289 109.277C84.2898 111.507 85.7907 116.45 85.7907 116.45L87.7767 117.894C89.2038 118.752 90.9133 119.008 92.529 118.606C94.1448 118.203 95.5345 117.175 96.3924 115.748C97.2504 114.321 97.5063 112.612 97.1038 110.996C96.7014 109.38 95.6736 107.99 94.2465 107.133L92.0385 106.053C92.0385 106.053 86.9718 107.046 85.6289 109.277Z" fill="#FFB9AA"/>
<path d="M91.0036 118.977C89.8332 118.978 88.6848 118.66 87.6822 118.056L85.6811 116.604C85.6488 116.579 85.6251 116.545 85.6134 116.506C85.5495 116.299 84.1088 111.454 85.4705 109.179C86.8397 106.922 91.7973 105.91 92.008 105.869C92.046 105.858 92.0865 105.858 92.1246 105.869L94.3326 106.948C95.547 107.675 96.4895 108.78 97.0153 110.094C97.541 111.409 97.6211 112.859 97.2431 114.223C96.8652 115.587 96.0501 116.789 94.923 117.645C93.7959 118.501 92.419 118.964 91.0036 118.962V118.977ZM85.9557 116.344L87.8891 117.747C89.2737 118.562 90.9241 118.797 92.481 118.401C94.0379 118.004 95.3751 117.009 96.2012 115.631C97.0273 114.253 97.2755 112.604 96.8917 111.044C96.5079 109.484 95.5231 108.139 94.152 107.302L92.023 106.252C91.4475 106.373 87.0014 107.381 85.7977 109.374C84.5903 111.375 85.794 115.773 85.9557 116.337V116.344Z" fill="#0F172A"/>
<path d="M89.6458 117.97C93.1131 117.97 95.9238 115.159 95.9238 111.692C95.9238 108.225 93.1131 105.414 89.6458 105.414C86.1786 105.414 83.3679 108.225 83.3679 111.692C83.3679 115.159 86.1786 117.97 89.6458 117.97Z" fill="#FFB9AA"/>
<path d="M89.6386 118.157C88.4677 118.159 87.3188 117.839 86.3172 117.232C85.5894 116.795 84.9548 116.218 84.4497 115.536C83.9447 114.853 83.579 114.077 83.3736 113.253C83.1682 112.43 83.1272 111.573 83.2527 110.733C83.3783 109.893 83.6681 109.087 84.1055 108.359C84.5429 107.631 85.1194 106.996 85.802 106.491C86.4847 105.986 87.2601 105.621 88.0841 105.415C88.908 105.21 89.7644 105.169 90.6042 105.294C91.4441 105.42 92.251 105.71 92.9788 106.147C94.1923 106.875 95.1334 107.981 95.6578 109.296C96.1821 110.61 96.2607 112.06 95.8815 113.424C95.5023 114.787 94.6863 115.989 93.5586 116.844C92.4309 117.699 91.0538 118.16 89.6386 118.157ZM89.6574 105.602C88.1853 105.601 86.7626 106.133 85.653 107.101C84.5435 108.068 83.8223 109.405 83.623 110.864C83.4237 112.323 83.7599 113.804 84.5693 115.034C85.3787 116.263 86.6064 117.158 88.0249 117.552C89.4434 117.946 90.9566 117.812 92.2841 117.176C93.6116 116.539 94.6635 115.443 95.2447 114.091C95.826 112.738 95.8972 111.221 95.4453 109.819C94.9934 108.418 94.049 107.229 92.787 106.47C91.8417 105.903 90.7601 105.603 89.6574 105.602Z" fill="#0F172A"/>
<path d="M86.1251 108.818C86.3884 108.973 86.6479 109.131 86.9075 109.289C86.9602 109.319 86.9865 109.315 87.0241 109.27C87.3319 108.929 87.7197 108.67 88.1526 108.517C88.6047 108.358 89.0995 108.369 89.5443 108.547C89.6647 108.596 89.785 108.653 89.9205 108.709L89.1945 109.92C89.0088 109.814 88.7934 109.772 88.5814 109.8C88.4195 109.843 88.26 109.894 88.1037 109.954V109.988L89.6082 110.895L89.7211 110.782C89.9811 110.497 90.274 110.245 90.5938 110.03C90.8299 109.86 91.1075 109.759 91.3969 109.735C91.6864 109.711 91.9769 109.766 92.2375 109.894C92.744 110.101 93.1492 110.498 93.366 111C93.5446 111.41 93.5894 111.865 93.4939 112.301C93.4374 112.569 93.3472 112.836 93.2682 113.114L93.8587 113.468L93.1892 114.596L92.5836 114.22C92.388 114.408 92.2074 114.596 92.0156 114.761C91.6419 115.089 91.1689 115.281 90.6728 115.307C90.246 115.317 89.8258 115.201 89.4653 114.972L90.1838 113.78C90.3952 113.896 90.639 113.94 90.8777 113.904C91.1163 113.868 91.3364 113.754 91.504 113.58L89.8828 112.61C89.6835 112.794 89.5067 112.986 89.281 113.167C89.0444 113.395 88.755 113.562 88.4384 113.652C88.1112 113.733 87.7669 113.71 87.4529 113.588C87.0649 113.448 86.7218 113.207 86.4599 112.888C86.2731 112.657 86.1397 112.388 86.0695 112.099C85.9992 111.81 85.9938 111.509 86.0536 111.218C86.1081 110.983 86.1759 110.75 86.2568 110.522C86.2568 110.496 86.2568 110.473 86.2868 110.44L85.4744 109.951L86.1251 108.818ZM92.1736 112.452C92.2599 112.253 92.2886 112.034 92.2563 111.82C92.2227 111.639 92.1242 111.477 91.9794 111.365C91.8346 111.252 91.6535 111.195 91.4702 111.207C91.2092 111.279 90.9727 111.421 90.7856 111.617L92.1736 112.452ZM87.2836 111.045C87.2569 111.229 87.2443 111.416 87.246 111.602C87.2544 111.703 87.2846 111.8 87.3346 111.888C87.3846 111.976 87.4532 112.052 87.5355 112.111C87.6179 112.17 87.712 112.21 87.8115 112.228C87.9109 112.247 88.0132 112.244 88.1112 112.219C88.3106 112.133 88.4889 112.004 88.634 111.843L87.2836 111.045Z" fill="white"/>
<path d="M63.6168 107.994C61.0665 107.475 56.9025 110.533 56.9025 110.533L56.2029 112.884C56.0371 113.692 56.0321 114.524 56.1881 115.334C56.344 116.143 56.6579 116.914 57.1118 117.602C57.5657 118.291 58.1507 118.883 58.8335 119.345C59.5162 119.807 60.2833 120.13 61.0909 120.296C62.722 120.631 64.4192 120.304 65.8093 119.387C67.1993 118.47 68.1682 117.039 68.5029 115.408L68.7888 112.971C68.7888 112.971 66.1633 108.517 63.6168 107.994Z" fill="#FFB9AA"/>
<path d="M62.3676 120.614C61.407 120.616 60.458 120.404 59.5896 119.993C58.7213 119.582 57.9553 118.983 57.3473 118.239C56.7393 117.496 56.3046 116.626 56.0747 115.693C55.8448 114.76 55.8255 113.788 56.0182 112.847L56.7216 110.481C56.7329 110.441 56.7582 110.406 56.7931 110.383C56.9661 110.255 61.0548 107.28 63.654 107.81C66.2532 108.344 68.8411 112.7 68.9502 112.873C68.9686 112.909 68.9764 112.95 68.9728 112.99L68.6907 115.431C68.3958 116.892 67.6053 118.205 66.4531 119.15C65.3008 120.094 63.8575 120.612 62.3676 120.614ZM57.0639 110.646L56.3831 112.941C56.0608 114.525 56.3809 116.172 57.2729 117.519C58.1649 118.867 59.5558 119.805 61.1395 120.127C62.7232 120.45 64.37 120.129 65.7177 119.237C67.0654 118.345 68.0036 116.955 68.3258 115.371L68.6004 113.012C68.2957 112.508 65.8733 108.649 63.5863 108.179C61.2918 107.713 57.5454 110.308 57.0639 110.646Z" fill="#0F172A"/>
<path d="M62.6722 118.862C66.1394 118.862 68.9502 116.051 68.9502 112.584C68.9502 109.116 66.1394 106.306 62.6722 106.306C59.205 106.306 56.3943 109.116 56.3943 112.584C56.3943 116.051 59.205 118.862 62.6722 118.862Z" fill="#FFB9AA"/>
<path d="M62.6834 119.053C61.771 119.067 60.8661 118.888 60.028 118.527C59.1899 118.166 58.4376 117.632 57.8205 116.96C57.2034 116.288 56.7354 115.493 56.4472 114.627C56.1591 113.762 56.0574 112.845 56.1487 111.937C56.24 111.029 56.5223 110.151 56.9771 109.36C57.4319 108.569 58.0488 107.883 58.7875 107.347C59.5261 106.811 60.3697 106.438 61.2628 106.251C62.156 106.065 63.0785 106.069 63.9698 106.264C65.6501 106.609 67.1245 107.608 68.069 109.039C69.0135 110.471 69.3507 112.22 69.0064 113.9C68.7023 115.353 67.9083 116.658 66.7573 117.596C65.6063 118.534 64.1682 119.049 62.6834 119.053ZM62.657 106.494C61.5063 106.498 60.3803 106.828 59.4094 107.445C58.4385 108.063 57.6624 108.943 57.1711 109.983C56.6798 111.024 56.4934 112.182 56.6334 113.325C56.7735 114.467 57.2342 115.546 57.9624 116.437C58.6905 117.328 59.6562 117.994 60.7475 118.359C61.8389 118.724 63.0113 118.772 64.1288 118.498C65.2464 118.224 66.2635 117.639 67.0621 116.81C67.8608 115.982 68.4084 114.944 68.6416 113.817L68.8259 113.855L68.6416 113.817C68.9648 112.235 68.6469 110.589 67.7576 109.24C66.8683 107.892 65.4803 106.951 63.8983 106.625C63.4912 106.541 63.0767 106.497 62.6608 106.494H62.657Z" fill="#0F172A"/>
<path d="M64.2144 108.306C64.1542 108.607 64.094 108.904 64.0301 109.201C64.0301 109.261 64.0301 109.284 64.0827 109.307C64.5052 109.479 64.8777 109.754 65.166 110.108C65.4672 110.481 65.6211 110.952 65.5986 111.432C65.5986 111.56 65.5798 111.691 65.5685 111.831L64.188 111.56C64.229 111.351 64.1971 111.135 64.0978 110.947C64.0053 110.806 63.9035 110.671 63.7931 110.544H63.7668L63.4132 112.271L63.5561 112.335C63.9154 112.486 64.2562 112.678 64.5717 112.906C64.8093 113.073 64.9972 113.301 65.1151 113.566C65.2331 113.831 65.2767 114.123 65.2413 114.411C65.2139 114.956 64.9751 115.469 64.5755 115.84C64.2483 116.144 63.8338 116.338 63.3906 116.393C63.116 116.427 62.8377 116.431 62.548 116.45L62.4126 117.123L61.1375 116.86L61.2804 116.168C61.0397 116.047 60.8027 115.942 60.5808 115.814C60.1477 115.572 59.8095 115.19 59.6216 114.731C59.4691 114.331 59.439 113.895 59.5351 113.478L60.8967 113.76C60.8581 113.999 60.8985 114.243 61.012 114.457C61.1254 114.67 61.3056 114.84 61.5249 114.941C61.6528 114.317 61.7769 113.704 61.9011 113.087C61.6566 112.963 61.4121 112.839 61.1713 112.711C60.8723 112.564 60.614 112.345 60.419 112.075C60.2324 111.795 60.1401 111.463 60.1557 111.127C60.1558 110.715 60.269 110.31 60.483 109.957C60.6389 109.704 60.8489 109.488 61.098 109.326C61.347 109.163 61.629 109.058 61.9236 109.017C62.1633 108.989 62.4045 108.977 62.6458 108.979H62.7323L62.9242 108.05L64.2144 108.306ZM62.8 115.22C63.0153 115.236 63.2307 115.19 63.4207 115.088C63.5803 114.996 63.7005 114.849 63.7588 114.674C63.817 114.499 63.8091 114.309 63.7367 114.14C63.5827 113.918 63.3706 113.742 63.1235 113.632L62.8 115.22ZM62.5067 110.157C62.3227 110.194 62.1417 110.244 61.965 110.307C61.873 110.349 61.7912 110.41 61.7251 110.486C61.6591 110.562 61.6104 110.652 61.5825 110.749C61.5546 110.846 61.5481 110.948 61.5635 111.048C61.5789 111.147 61.6158 111.243 61.6716 111.327C61.8168 111.486 61.9936 111.614 62.1907 111.703L62.5067 110.157Z" fill="white"/>
<path d="M82.1117 61.6681C81.4572 59.855 80.2798 57.2972 78.6398 56.402C76.0068 54.9914 70.3946 57.0038 70.3946 57.0038L68.8524 59.3736C68.4785 60.0791 68.2243 60.8417 68.1001 61.6305L82.1117 61.6681Z" fill="#FFB9AA"/>
<path d="M82.1119 61.856H68.0928C68.0657 61.8564 68.0389 61.851 68.0142 61.8399C67.9895 61.8289 67.9675 61.8125 67.9499 61.792C67.9316 61.7712 67.9184 61.7465 67.9112 61.7197C67.904 61.693 67.9031 61.6649 67.9085 61.6378C68.04 60.8201 68.3083 60.0305 68.7022 59.3019L70.2519 56.9209C70.2751 56.887 70.3078 56.8608 70.3459 56.8456C70.5791 56.7629 76.0596 54.8182 78.7416 56.2551C80.4079 57.1428 81.6003 59.6404 82.3037 61.6039C82.314 61.6323 82.3173 61.6628 82.3133 61.6927C82.3093 61.7226 82.2982 61.7512 82.2808 61.7759C82.2635 61.8006 82.2404 61.8208 82.2137 61.8347C82.1869 61.8487 82.1571 61.8559 82.1269 61.856H82.1119ZM68.3147 61.4798H81.8561C81.1677 59.6329 80.0581 57.3835 78.5648 56.5899C76.1687 55.311 71.1358 56.966 70.534 57.1842L69.0294 59.4975C68.6959 60.1188 68.4587 60.7872 68.326 61.4798H68.3147Z" fill="#0F172A"/>
<path d="M83.3078 61.6677C83.3794 60.677 83.2461 59.6821 82.9161 58.7452C82.5862 57.8083 82.0667 56.9494 81.3902 56.2222C80.7136 55.4949 79.8944 54.9149 78.9837 54.5183C78.073 54.1217 77.0903 53.917 76.097 53.917C75.1037 53.917 74.1211 54.1217 73.2104 54.5183C72.2997 54.9149 71.4805 55.4949 70.8039 56.2222C70.1273 56.9494 69.6078 57.8083 69.2779 58.7452C68.948 59.6821 68.8146 60.677 68.8862 61.6677H83.3078Z" fill="#FFB9AA"/>
<path d="M83.3076 61.8561H68.8861C68.8387 61.8563 68.793 61.8385 68.7581 61.8065C68.7233 61.7744 68.7018 61.7303 68.698 61.6831C68.6255 60.6671 68.7631 59.6471 69.102 58.6866C69.441 57.726 69.9742 56.8456 70.6684 56.1002C71.3625 55.3548 72.2027 54.7603 73.1367 54.3538C74.0706 53.9473 75.0783 53.7375 76.0969 53.7375C77.1154 53.7375 78.1231 53.9473 79.0571 54.3538C79.991 54.7603 80.8312 55.3548 81.5254 56.1002C82.2195 56.8456 82.7527 57.726 83.0917 58.6866C83.4307 59.6471 83.5682 60.6671 83.4957 61.6831C83.4919 61.7303 83.4705 61.7744 83.4356 61.8065C83.4007 61.8385 83.355 61.8563 83.3076 61.8561ZM69.0629 61.48H83.1309C83.1749 60.5289 83.0255 59.5788 82.6919 58.687C82.3582 57.7953 81.8472 56.9805 81.1897 56.2919C80.5322 55.6033 79.7419 55.0551 78.8665 54.6806C77.9912 54.3061 77.049 54.1131 76.0969 54.1131C75.1448 54.1131 74.2025 54.3061 73.3272 54.6806C72.4518 55.0551 71.6615 55.6033 71.004 56.2919C70.3465 56.9805 69.8355 57.7953 69.5018 58.687C69.1682 59.5788 69.0189 60.5289 69.0629 61.48Z" fill="#0F172A"/>
<path d="M74.3967 60.8218C74.6186 61.0475 74.8481 61.2619 75.0775 61.4838L74.976 61.6681H77.6617C77.4962 61.5026 77.3269 61.3446 77.1464 61.1942L77.0109 61.0738L77.9664 59.2758H78.004C78.0827 59.452 78.1506 59.6329 78.2071 59.8175C78.2542 60.0579 78.2184 60.3072 78.1055 60.5246L79.5424 61.2769C79.5988 61.1302 79.659 60.991 79.7042 60.8481C79.8889 60.3269 79.8728 59.7556 79.659 59.2457C79.4585 58.7605 79.139 58.3336 78.7299 58.0044C78.6773 57.9593 78.6698 57.9292 78.6999 57.8728C78.8691 57.5643 79.0346 57.2521 79.2001 56.9437L77.8761 56.2666L77.3532 57.2183L77.2592 57.1919C76.9922 57.1109 76.7209 57.0444 76.4467 56.9926C76.1078 56.9424 75.762 56.9673 75.4338 57.0654C75.1056 57.1635 74.8029 57.3326 74.5472 57.5606C74.1914 57.8782 73.931 58.2884 73.7949 58.7454C73.6692 59.1101 73.6626 59.5052 73.7761 59.8739C73.9009 60.2365 74.1142 60.5623 74.3967 60.8218ZM76.0593 58.4332C76.2747 58.4184 76.4909 58.4184 76.7063 58.4332C76.4091 58.9862 76.1307 59.5052 75.8524 60.0319C75.6621 59.8734 75.5082 59.6758 75.401 59.4526C75.3686 59.3421 75.3603 59.2259 75.3768 59.1119C75.3933 58.998 75.4342 58.8889 75.4967 58.7921C75.5591 58.6954 75.6417 58.6133 75.7388 58.5513C75.8359 58.4894 75.9452 58.4491 76.0593 58.4332Z" fill="white"/>
<path d="M85.4557 61.8561H66.5579C66.5081 61.8561 66.4602 61.8363 66.425 61.801C66.3897 61.7658 66.3699 61.7179 66.3699 61.6681C66.3699 61.6182 66.3897 61.5703 66.425 61.5351C66.4602 61.4998 66.5081 61.48 66.5579 61.48H85.4557C85.5056 61.48 85.5534 61.4998 85.5887 61.5351C85.6239 61.5703 85.6438 61.6182 85.6438 61.6681C85.6438 61.7179 85.6239 61.7658 85.5887 61.801C85.5534 61.8363 85.5056 61.8561 85.4557 61.8561Z" fill="#0F172A"/>
<g clip-path="url(#clip0_15_1040)">
<path fill-rule="evenodd" clip-rule="evenodd" d="M118.629 57.5114C118.538 57.3126 118.457 57.1139 118.385 56.9127C118.276 56.6108 118.209 56.2955 118.117 55.9892C118.078 55.8593 117.971 55.522 117.964 55.4712C117.906 55.0278 118.234 54.8698 118.332 54.831C118.379 54.8109 118.866 54.6203 119.124 55.1479C119.439 55.793 119.665 56.4668 119.798 57.1507C120.06 57.692 120.4 58.21 120.786 58.6582C122.32 60.4406 124.251 60.1362 126.281 59.5723C126.593 59.4837 126.918 59.6597 127.018 59.9664C127.118 60.2754 126.958 60.6091 126.654 60.7207C125.546 61.1354 123.773 62.5882 123.329 63.7248C123.237 63.9627 123.28 64.4649 123.294 64.9651C123.312 65.6596 123.299 66.3551 123.162 66.6824C123.142 66.7329 122.877 67.2653 122.78 67.3589C122.547 67.5818 122.305 67.5538 122.16 67.5076C122.014 67.4614 121.831 67.3423 121.706 67.0977C121.574 66.8422 121.475 66.2722 121.434 66.1554C121.285 65.7316 120.971 64.9058 120.598 64.2234C120.398 63.8559 120.199 63.5206 119.983 63.3855C119.183 62.8855 118.215 63.2501 117.408 63.5843C117.315 63.6218 117.222 63.6616 117.129 63.699C116.816 63.8908 116.474 64.0626 116.103 64.2095C115.544 64.4321 115.307 63.9266 115.292 63.8929C115.261 63.8186 115.114 63.4317 115.507 63.1561C115.55 63.127 115.88 62.9559 116.007 62.8893C116.183 62.7968 116.365 62.7132 116.547 62.6316C118.355 61.4906 118.964 59.4823 118.629 57.5114ZM119.876 59.4561C121.032 60.7957 122.361 61.2368 123.79 61.2149L123.79 61.215C123.071 61.8763 122.457 62.6274 122.201 63.285C122.104 63.5341 122.076 63.9904 122.076 64.4944C121.89 64.0754 121.673 63.6347 121.444 63.2699C121.183 62.8534 120.895 62.5271 120.625 62.3586C120.106 62.0341 119.535 61.9289 118.958 61.9556C119.455 61.2032 119.757 60.3503 119.876 59.4561Z" fill="#5FA8EE"/>
</g>
<g clip-path="url(#clip1_15_1040)">
<path fill-rule="evenodd" clip-rule="evenodd" d="M103.977 29.7291C103.932 29.6304 103.892 29.5318 103.856 29.4319C103.802 29.282 103.769 29.1254 103.723 28.9733C103.704 28.9088 103.65 28.7414 103.647 28.7162C103.618 28.496 103.781 28.4176 103.83 28.3983C103.853 28.3883 104.095 28.2937 104.223 28.5557C104.379 28.8759 104.492 29.2105 104.558 29.55C104.688 29.8188 104.857 30.076 105.048 30.2985C105.81 31.1835 106.769 31.0323 107.776 30.7523C107.931 30.7084 108.093 30.7957 108.142 30.948C108.192 31.1014 108.113 31.2671 107.962 31.3225C107.412 31.5284 106.531 32.2498 106.311 32.8141C106.265 32.9322 106.287 33.1815 106.293 33.4299C106.302 33.7747 106.296 34.12 106.228 34.2825C106.218 34.3076 106.086 34.5719 106.038 34.6184C105.922 34.7291 105.802 34.7152 105.73 34.6922C105.658 34.6693 105.567 34.6102 105.505 34.4887C105.44 34.3618 105.39 34.0789 105.37 34.0209C105.296 33.8104 105.14 33.4004 104.955 33.0616C104.856 32.8792 104.757 32.7127 104.65 32.6456C104.252 32.3974 103.772 32.5784 103.371 32.7443C103.325 32.7629 103.279 32.7827 103.233 32.8012C103.077 32.8965 102.907 32.9818 102.723 33.0547C102.446 33.1652 102.328 32.9143 102.321 32.8975C102.305 32.8606 102.232 32.6686 102.427 32.5317C102.449 32.5172 102.612 32.4323 102.675 32.3993C102.763 32.3533 102.853 32.3118 102.944 32.2713C103.841 31.7048 104.144 30.7077 103.977 29.7291ZM104.596 30.6947C105.17 31.3598 105.83 31.5788 106.54 31.5679L106.539 31.5679C106.183 31.8963 105.878 32.2692 105.751 32.5957C105.703 32.7194 105.689 32.9459 105.688 33.1962C105.596 32.9881 105.488 32.7694 105.375 32.5882C105.245 32.3814 105.102 32.2194 104.968 32.1358C104.71 31.9746 104.427 31.9224 104.141 31.9357C104.387 31.5621 104.537 31.1386 104.596 30.6947Z" fill="#AB92F0"/>
</g>
<g clip-path="url(#clip2_15_1040)">
<path fill-rule="evenodd" clip-rule="evenodd" d="M36.3515 50.4285C36.2861 50.3603 36.2245 50.2908 36.1664 50.219C36.0791 50.1112 36.0067 49.9921 35.9256 49.8801C35.8912 49.8327 35.7995 49.7103 35.7894 49.6905C35.7029 49.5177 35.8142 49.4065 35.8487 49.3768C35.865 49.3619 36.0366 49.2148 36.2168 49.3935C36.4372 49.6119 36.6255 49.8547 36.7771 50.1149C36.9613 50.2985 37.1737 50.4616 37.3949 50.5896C38.2747 51.0988 39.0197 50.6996 39.7679 50.1805C39.8825 50.1 40.0405 50.1255 40.1248 50.2365C40.2098 50.3483 40.1919 50.5073 40.0837 50.5961C39.6905 50.9231 39.1734 51.7686 39.1542 52.2955C39.1503 52.4058 39.2395 52.6046 39.3163 52.8068C39.4226 53.0877 39.5161 53.3735 39.5071 53.5264C39.5061 53.5499 39.4735 53.805 39.4473 53.857C39.3839 53.9812 39.2812 54.0042 39.2152 54.006C39.1493 54.0079 39.0578 53.9853 38.9717 53.9033C38.8817 53.8177 38.7599 53.5993 38.7265 53.5574C38.6053 53.4057 38.3596 53.1133 38.1106 52.8877C37.9764 52.7663 37.8476 52.6577 37.7402 52.6334C37.3424 52.5432 36.9993 52.8297 36.7172 53.0811C36.6846 53.1096 36.6526 53.139 36.62 53.1675C36.5192 53.2905 36.4042 53.4092 36.2739 53.5219C36.0773 53.6924 35.9085 53.5198 35.8978 53.5081C35.8744 53.4823 35.7595 53.3452 35.8805 53.1768C35.894 53.1588 36.0042 53.0421 36.0465 52.9969C36.1054 52.934 36.1676 52.874 36.2305 52.8147C36.8057 52.0917 36.7686 51.1853 36.3515 50.4285ZM37.137 51.0449C37.7997 51.427 38.4048 51.4179 38.985 51.2055L38.9849 51.2056C38.7857 51.5778 38.6421 51.9717 38.6313 52.2766C38.6271 52.3921 38.6806 52.5823 38.7521 52.7881C38.6166 52.6435 38.4652 52.4946 38.3199 52.3783C38.1542 52.2454 37.9901 52.1532 37.8562 52.1228C37.5979 52.0643 37.3498 52.1027 37.1182 52.1956C37.2141 51.8178 37.2157 51.4268 37.137 51.0449Z" fill="#FFCEC4"/>
</g>
<g clip-path="url(#clip3_15_1040)">
<path fill-rule="evenodd" clip-rule="evenodd" d="M15.1647 35.8955C15.0993 35.8274 15.0377 35.7579 14.9796 35.686C14.8924 35.5782 14.82 35.4591 14.7389 35.3472C14.7044 35.2997 14.6127 35.1773 14.6027 35.1576C14.5161 34.9848 14.6275 34.8736 14.6619 34.8438C14.6782 34.8289 14.8498 34.6818 15.03 34.8605C15.2505 35.0789 15.4387 35.3218 15.5903 35.582C15.7745 35.7655 15.987 35.9286 16.2081 36.0567C17.0879 36.5658 17.8329 36.1667 18.5811 35.6476C18.6957 35.5671 18.8537 35.5925 18.9381 35.7035C19.023 35.8154 19.0051 35.9744 18.8969 36.0632C18.5037 36.3901 17.9866 37.2356 17.9675 37.7626C17.9635 37.8729 18.0528 38.0716 18.1296 38.2739C18.2358 38.5547 18.3293 38.8405 18.3204 38.9935C18.3194 39.0169 18.2867 39.2721 18.2605 39.3241C18.1971 39.4482 18.0944 39.4712 18.0285 39.4731C17.9625 39.4749 17.871 39.4523 17.7849 39.3704C17.6949 39.2848 17.5731 39.0663 17.5397 39.0245C17.4185 38.8727 17.1728 38.5804 16.9238 38.3548C16.7897 38.2334 16.6609 38.1248 16.5534 38.1004C16.1556 38.0102 15.8125 38.2968 15.5305 38.5482C15.4978 38.5767 15.4658 38.6061 15.4333 38.6345C15.3325 38.7575 15.2174 38.8763 15.0871 38.989C14.8905 39.1594 14.7217 38.9869 14.711 38.9752C14.6876 38.9493 14.5727 38.8123 14.6938 38.6439C14.7072 38.6259 14.8174 38.5091 14.8597 38.4639C14.9187 38.401 14.9808 38.341 15.0438 38.2817C15.619 37.5588 15.5819 36.6523 15.1647 35.8955ZM15.9502 36.5119C16.6129 36.894 17.2181 36.8849 17.7982 36.6726L17.7981 36.6726C17.5989 37.0449 17.4553 37.4388 17.4445 37.7436C17.4403 37.8591 17.4938 38.0493 17.5653 38.2551C17.4299 38.1106 17.2784 37.9616 17.1331 37.8453C16.9674 37.7124 16.8033 37.6203 16.6694 37.5898C16.4111 37.5313 16.163 37.5697 15.9315 37.6627C16.0273 37.2848 16.029 36.8938 15.9502 36.5119Z" fill="#4ADE80"/>
</g>
<g clip-path="url(#clip4_15_1040)">
<path fill-rule="evenodd" clip-rule="evenodd" d="M2.56923 71.8809C2.50385 71.8127 2.44227 71.7432 2.38415 71.6714C2.29692 71.5636 2.2245 71.4445 2.14342 71.3325C2.10898 71.2851 2.01723 71.1627 2.00721 71.1429C1.92068 70.9701 2.03201 70.8589 2.06645 70.8292C2.08278 70.8143 2.25437 70.6672 2.43455 70.8459C2.65502 71.0643 2.84326 71.3071 2.99482 71.5673C3.17906 71.7509 3.39152 71.914 3.61268 72.042C4.49248 72.5512 5.23745 72.152 5.98566 71.6329C6.10028 71.5524 6.25824 71.5779 6.3426 71.6889C6.42754 71.8007 6.40964 71.9597 6.30143 72.0485C5.90824 72.3755 5.39115 73.2209 5.37201 73.7479C5.36805 73.8582 5.45732 74.057 5.53411 74.2592C5.64038 74.5401 5.73388 74.8259 5.72489 74.9788C5.72389 75.0023 5.69124 75.2574 5.66507 75.3094C5.60167 75.4336 5.49897 75.4566 5.433 75.4584C5.36703 75.4603 5.27557 75.4376 5.18946 75.3557C5.09945 75.2701 4.97768 75.0517 4.94428 75.0098C4.82308 74.8581 4.57736 74.5657 4.32835 74.3401C4.19422 74.2187 4.06541 74.1101 3.95794 74.0858C3.56014 73.9956 3.21706 74.2821 2.935 74.5335C2.90237 74.562 2.87034 74.5914 2.8378 74.6199C2.73702 74.7429 2.62197 74.8616 2.49166 74.9743C2.29506 75.1448 2.12629 74.9722 2.11556 74.9605C2.09215 74.9347 1.97727 74.7976 2.09829 74.6292C2.11174 74.6112 2.22195 74.4945 2.26423 74.4493C2.32322 74.3863 2.38534 74.3264 2.4483 74.2671C3.02352 73.5441 2.98642 72.6377 2.56923 71.8809ZM3.35473 72.4973C4.01748 72.8794 4.62259 72.8703 5.20273 72.6579L5.20265 72.658C5.00344 73.0302 4.85984 73.4241 4.84908 73.7289C4.84487 73.8445 4.89833 74.0347 4.96984 74.2405C4.83439 74.0959 4.68297 73.947 4.53763 73.8307C4.37192 73.6978 4.20783 73.6056 4.07394 73.5752C3.81566 73.5167 3.56757 73.5551 3.33599 73.648C3.43186 73.2702 3.43349 72.8791 3.35473 72.4973Z" fill="#E5E7EB"/>
</g>
<g clip-path="url(#clip5_15_1040)">
<path fill-rule="evenodd" clip-rule="evenodd" d="M145.919 70.4947C145.885 70.4191 145.854 70.3435 145.826 70.267C145.785 70.1521 145.759 70.0322 145.725 69.9157C145.71 69.8663 145.669 69.738 145.666 69.7186C145.644 69.55 145.769 69.4899 145.806 69.4751C145.824 69.4675 146.01 69.395 146.107 69.5957C146.227 69.841 146.313 70.0974 146.364 70.3575C146.464 70.5634 146.593 70.7605 146.74 70.9309C147.323 71.609 148.058 71.4932 148.83 71.2786C148.949 71.245 149.073 71.3119 149.11 71.4286C149.149 71.5461 149.088 71.673 148.972 71.7155C148.551 71.8732 147.876 72.4259 147.707 72.8582C147.672 72.9487 147.689 73.1397 147.694 73.33C147.701 73.5942 147.696 73.8588 147.644 73.9832C147.636 74.0025 147.535 74.205 147.498 74.2406C147.41 74.3254 147.318 74.3147 147.262 74.2972C147.207 74.2796 147.138 74.2343 147.09 74.1413C147.04 74.044 147.002 73.8272 146.986 73.7828C146.93 73.6216 146.81 73.3074 146.669 73.0479C146.592 72.9081 146.517 72.7805 146.434 72.7292C146.13 72.539 145.762 72.6777 145.455 72.8048C145.419 72.819 145.384 72.8342 145.349 72.8484C145.23 72.9214 145.1 72.9867 144.959 73.0426C144.746 73.1273 144.656 72.935 144.65 72.9222C144.638 72.8939 144.582 72.7467 144.732 72.6419C144.748 72.6308 144.874 72.5657 144.922 72.5404C144.989 72.5052 145.058 72.4734 145.128 72.4424C145.815 72.0083 146.047 71.2444 145.919 70.4947ZM146.394 71.2345C146.834 71.744 147.339 71.9118 147.883 71.9035L147.882 71.9035C147.609 72.1551 147.376 72.4408 147.278 72.6909C147.241 72.7857 147.231 72.9592 147.23 73.151C147.16 72.9916 147.077 72.824 146.99 72.6852C146.891 72.5268 146.781 72.4026 146.679 72.3385C146.481 72.2151 146.264 72.1751 146.045 72.1852C146.234 71.899 146.348 71.5746 146.394 71.2345Z" fill="#E5E7EB"/>
</g>
<path d="M47.7261 24.2072C48.4177 23.966 49.1738 24.3312 49.415 25.0227C49.6562 25.7144 49.2912 26.4704 48.5995 26.7116C47.9079 26.9527 47.1518 26.5877 46.9106 25.8961C46.6695 25.2045 47.0346 24.4485 47.7261 24.2072Z" stroke="#E5E7EB"/>
<path opacity="0.5" d="M65.749 0.5C66.1452 0.500111 66.4668 0.82154 66.4668 1.21777C66.4667 1.61391 66.1452 1.93544 65.749 1.93555C65.3528 1.93555 65.0314 1.61398 65.0312 1.21777C65.0312 0.821472 65.3527 0.5 65.749 0.5Z" stroke="#E5E7EB"/>
<defs>
<clipPath id="clip0_15_1040">
<rect width="13.5597" height="13.5597" fill="white" transform="translate(112.75 56.3203) rotate(-15)"/>
</clipPath>
<clipPath id="clip1_15_1040">
<rect width="6.73239" height="6.73239" fill="white" transform="translate(101.058 29.1377) rotate(-15)"/>
</clipPath>
<clipPath id="clip2_15_1040">
<rect width="5.86137" height="5.86137" fill="white" transform="translate(33.7822 50.7793) rotate(-34.2256)"/>
</clipPath>
<clipPath id="clip3_15_1040">
<rect width="5.86137" height="5.86137" fill="white" transform="translate(12.5955 36.2463) rotate(-34.2256)"/>
</clipPath>
<clipPath id="clip4_15_1040">
<rect width="5.86137" height="5.86137" fill="white" transform="translate(0 72.2317) rotate(-34.2256)"/>
</clipPath>
<clipPath id="clip5_15_1040">
<rect width="5.15796" height="5.15796" fill="white" transform="translate(143.683 70.0417) rotate(-15)"/>
</clipPath>
</defs>
</svg>
