<svg width="20" height="20" viewBox="0 0 20 20" fill="none" xmlns="http://www.w3.org/2000/svg">
<path d="M4.16675 2.5H9.16675C9.82979 2.5 10.4657 2.76339 10.9345 3.23223C11.4034 3.70107 11.6667 4.33696 11.6667 5V8.33333H10.8334V5C10.8334 4.55797 10.6578 4.13405 10.3453 3.82149C10.0327 3.50893 9.60878 3.33333 9.16675 3.33333H4.16675C3.72472 3.33333 3.3008 3.50893 2.98824 3.82149C2.67568 4.13405 2.50008 4.55797 2.50008 5V15.8333C2.50008 16.2754 2.67568 16.6993 2.98824 17.0118C3.3008 17.3244 3.72472 17.5 4.16675 17.5H9.16675C9.60878 17.5 10.0327 17.3244 10.3453 17.0118C10.6578 16.6993 10.8334 16.2754 10.8334 15.8333V12.5H11.6667V15.8333C11.6667 16.4964 11.4034 17.1323 10.9345 17.6011C10.4657 18.0699 9.82979 18.3333 9.16675 18.3333H4.16675C3.50371 18.3333 2.86782 18.0699 2.39898 17.6011C1.93014 17.1323 1.66675 16.4964 1.66675 15.8333V5C1.66675 4.33696 1.93014 3.70107 2.39898 3.23223C2.86782 2.76339 3.50371 2.5 4.16675 2.5ZM6.66675 10H16.0417L13.3334 7.29167L13.8834 6.66667L17.6334 10.4167L13.8834 14.1667L13.3334 13.5417L16.0417 10.8333H6.66675V10Z" fill="#64748B"/>
</svg>
