<svg width="36" height="41" viewBox="0 0 36 41" fill="none" xmlns="http://www.w3.org/2000/svg">
<path d="M16.9003 2.4643e-05C10.1863 -0.0224754 -2.73018 15.369 2.09532 19.446L3.28032 20.4495C2.96159 21.3074 2.84856 22.228 2.95032 23.1375C3.07632 24.3975 3.72732 25.6035 4.78032 26.5365C5.77932 27.4215 7.09332 27.9825 8.36832 27.9825C10.4773 32.8425 15.2983 35.8245 20.9473 35.9925C27.0073 36.1725 32.0968 33.3285 34.2283 28.2195C34.3678 27.8595 34.9603 26.2455 34.9603 24.819C34.9603 23.385 34.1503 22.791 33.6328 22.791C33.6178 22.7355 33.5158 22.362 33.3748 21.912C33.2338 21.462 33.0898 21.147 33.0898 21.147C33.6523 20.3025 33.6628 19.5495 33.5878 19.122C33.5083 18.5925 33.2878 18.1425 32.8438 17.676C32.3998 17.2095 31.4908 16.731 30.2143 16.374L29.5453 16.188C29.5423 16.1595 29.5093 14.6085 29.4808 13.9425C29.4598 13.4625 29.4178 12.7095 29.1853 11.97C28.9063 10.968 28.4233 10.0905 27.8188 9.52952C29.4868 7.80152 30.5278 5.89652 30.5248 4.26302C30.5203 1.12052 26.6608 0.169525 21.9058 2.13902L20.8978 2.56652L19.0498 0.756025C18.4558 0.238525 17.7253 0.00302464 16.9003 2.4643e-05ZM17.0098 1.30952C17.2598 1.30952 17.4923 1.33852 17.7073 1.39652C18.1528 1.52252 19.6273 3.23252 19.6273 3.23252C19.6273 3.23252 16.8883 4.75202 14.3473 6.87152C10.9273 9.50702 8.33982 13.338 6.79182 17.4945C5.57532 17.7315 4.50282 18.4215 3.84732 19.374C3.45582 19.047 2.72532 18.414 2.59632 18.168C1.54932 16.179 3.73782 12.315 5.26782 10.1325C8.75082 5.16002 14.0548 1.30052 17.0098 1.30952ZM21.9388 6.21902C21.9988 6.21602 22.0288 6.29402 21.9808 6.33002C21.7663 6.49502 21.5323 6.72002 21.3613 6.95102C21.3547 6.95984 21.3506 6.9703 21.3496 6.98127C21.3485 6.99223 21.3505 7.00328 21.3553 7.0132C21.3601 7.02311 21.3676 7.03152 21.3768 7.03748C21.3861 7.04345 21.3968 7.04675 21.4078 7.04702C22.3963 7.05302 23.7883 7.39952 24.6958 7.90802C24.7573 7.94252 24.7138 8.06252 24.6448 8.04602C23.2723 7.73102 21.0238 7.49252 18.6898 8.06102C16.6048 8.57102 15.0148 9.35553 13.8538 10.2C13.7938 10.242 13.7248 10.1655 13.7713 10.11C15.1153 8.55752 16.7698 7.20752 18.2518 6.45002C18.3028 6.42302 18.3568 6.47852 18.3298 6.52802C18.2113 6.74252 17.9848 7.19852 17.9128 7.54502C17.9023 7.59752 17.9608 7.63952 18.0058 7.60802C18.9283 6.97802 20.5318 6.30602 21.9388 6.21902ZM26.4733 11.0265L26.5573 11.028C26.8009 11.0379 27.0373 11.1136 27.2413 11.247C28.0423 11.7795 28.1563 13.071 28.1983 14.0145C28.2208 14.5545 28.2868 15.858 28.3093 16.2315C28.3603 17.088 28.5853 17.208 29.0398 17.358C29.2948 17.4435 29.5348 17.505 29.8843 17.604C30.9433 17.901 31.5718 18.204 31.9693 18.591C32.2048 18.834 32.3143 19.0905 32.3488 19.3365C32.4733 20.2485 31.6408 21.3765 29.4358 22.398C27.0253 23.517 24.1003 23.8005 22.0798 23.5755L21.3733 23.496C19.7563 23.2785 18.8338 25.3665 19.8043 26.7975C20.4298 27.72 22.1323 28.32 23.8363 28.32C27.7423 28.32 30.7438 26.6535 31.8613 25.212C31.8935 25.1711 31.9236 25.1286 31.9513 25.0845C32.0053 25.002 31.9603 24.957 31.8913 25.0035C30.9793 25.6275 26.9263 28.107 22.5913 27.36C22.5913 27.36 22.0648 27.2745 21.5833 27.087C21.2008 26.937 20.4013 26.571 20.3038 25.7505C23.8033 26.8305 26.0053 25.809 26.0053 25.809C26.026 25.8002 26.0433 25.7849 26.0546 25.7654C26.066 25.746 26.0708 25.7234 26.0683 25.701C26.067 25.6878 26.0631 25.675 26.0568 25.6633C26.0505 25.6516 26.0419 25.6412 26.0316 25.6329C26.0213 25.6245 26.0094 25.6182 25.9967 25.6145C25.9839 25.6108 25.9705 25.6096 25.9573 25.611C25.9573 25.611 23.0908 26.0355 20.3803 25.044C20.6758 24.084 21.4603 24.432 22.6453 24.5265C24.489 24.6371 26.3383 24.4373 28.1158 23.9355C29.3428 23.5845 30.9538 22.89 32.2063 21.9015C32.6278 22.8285 32.7763 23.85 32.7763 23.85C32.7763 23.85 33.1048 23.79 33.3763 23.9595C33.6358 24.1185 33.8248 24.4485 33.6958 25.302C33.4318 26.8965 32.7538 28.191 31.6153 29.382C30.9038 30.152 30.0567 30.7845 29.1163 31.248C28.6053 31.518 28.0618 31.748 27.4858 31.938C23.1913 33.3405 18.7948 31.7985 17.3773 28.488C17.2628 28.2347 17.168 27.9729 17.0938 27.705C16.4893 25.5225 17.0038 22.905 18.6058 21.2565C18.7033 21.1515 18.8038 21.027 18.8038 20.8725C18.8038 20.742 18.7213 20.604 18.6508 20.508C18.0898 19.6935 16.1473 18.309 16.5373 15.627C16.8178 13.701 18.5023 12.3435 20.0728 12.4245L20.4718 12.447C21.1513 12.4875 21.7468 12.5745 22.3063 12.597C23.2438 12.639 24.0868 12.5025 25.0858 11.67C25.4233 11.3895 25.6933 11.145 26.1508 11.0685C26.1928 11.061 26.2888 11.0265 26.4733 11.0265ZM26.5063 14.2965C26.4762 14.2968 26.4461 14.2993 26.4163 14.304C25.9138 14.385 25.8958 15.006 26.0743 15.864C26.1763 16.344 26.3548 16.7565 26.5543 17.0115C26.8183 16.9805 27.0673 16.9805 27.3013 17.0115C27.4348 16.704 27.4573 16.176 27.3373 15.5985C27.1693 14.796 26.9458 14.2905 26.5063 14.2965ZM21.0163 16.6155C20.4693 16.6128 19.9356 16.7841 19.4923 17.1045C19.2523 17.28 19.0258 17.5245 19.0573 17.6715C19.0693 17.7195 19.1038 17.7555 19.1893 17.766C19.3858 17.7885 20.0773 17.4405 20.8723 17.391C21.4333 17.3565 21.8983 17.532 22.2568 17.691C22.6153 17.847 22.8358 17.9505 22.9213 17.8605C22.9768 17.8035 22.9603 17.6955 22.8748 17.5545C22.6978 17.2665 22.3348 16.974 21.9478 16.809C21.6533 16.683 21.3366 16.6172 21.0163 16.6155ZM27.1393 17.8305C26.8828 17.826 26.6698 18.1095 26.6638 18.4605C26.6578 18.8145 26.8603 19.1055 27.1183 19.1085C27.3763 19.1115 27.5893 18.831 27.5953 18.4785C27.6013 18.1245 27.3973 17.835 27.1393 17.8305ZM21.7693 18.0885C21.6943 18.0885 21.6168 18.0925 21.5368 18.1005C21.0703 18.1755 20.8123 18.3285 20.6473 18.471C20.5063 18.594 20.4193 18.7305 20.4193 18.8265C20.4191 18.8414 20.4219 18.8562 20.4275 18.87C20.433 18.8839 20.4413 18.8964 20.4517 18.907C20.4622 18.9177 20.4747 18.9261 20.4884 18.9318C20.5022 18.9376 20.5169 18.9405 20.5318 18.9405C20.6368 18.9405 20.8738 18.846 20.8738 18.846C21.3528 18.6669 21.8697 18.6132 22.3753 18.69C22.6108 18.717 22.7203 18.7305 22.7728 18.651C22.7878 18.627 22.8058 18.5775 22.7578 18.501C22.6633 18.3465 22.2928 18.0975 21.7693 18.0885ZM25.1593 18.6885C24.9688 18.6885 24.8068 18.765 24.7348 18.9105C24.6223 19.1415 24.7873 19.455 25.1038 19.6095C25.4188 19.7655 25.7683 19.704 25.8838 19.4745C25.9963 19.242 25.8313 18.9285 25.5148 18.774C25.4045 18.7183 25.2829 18.69 25.1593 18.6885ZM7.70682 18.7245C7.77882 18.7245 7.85332 18.726 7.93032 18.729C9.02532 18.789 10.6393 19.629 11.0083 22.014C11.3338 24.129 10.8163 26.2785 8.83482 26.6175C8.64982 26.6475 8.46282 26.6605 8.27382 26.6565C6.44382 26.607 4.46532 24.9585 4.26882 23.004C4.05132 20.844 5.15532 19.182 7.10982 18.7875C7.28682 18.7505 7.48582 18.7295 7.70682 18.7245ZM7.60182 20.115C7.36371 20.1126 7.1277 20.1598 6.90892 20.2539C6.69014 20.3479 6.4934 20.4866 6.33132 20.661C5.76132 21.288 5.67282 22.143 5.78232 22.446C5.82282 22.5555 5.88732 22.587 5.93232 22.593C6.02832 22.605 6.17232 22.5345 6.26232 22.293L6.28782 22.215C6.34268 22.0209 6.4218 21.8344 6.52332 21.66C6.67376 21.4305 6.90916 21.2702 7.17778 21.2142C7.4464 21.1582 7.72625 21.2112 7.95582 21.3615C8.35482 21.6225 8.50932 22.1115 8.33832 22.5765C8.25132 22.818 8.10732 23.28 8.13882 23.658C8.20332 24.4245 8.67432 24.7335 9.09882 24.765C9.50982 24.78 9.79782 24.5505 9.87132 24.381C9.91482 24.2805 9.87882 24.2205 9.85482 24.1935C9.79032 24.114 9.68532 24.138 9.58482 24.162C9.50667 24.1838 9.42594 24.1949 9.34482 24.195C9.25875 24.197 9.1735 24.1778 9.0966 24.1391C9.01969 24.1004 8.95349 24.0434 8.90382 23.973C8.78682 23.793 8.79432 23.523 8.92332 23.217L8.98332 23.079C9.19032 22.617 9.53532 21.8415 9.14832 21.1035C8.85582 20.5485 8.37882 20.2005 7.80732 20.1285C7.73875 20.1188 7.66959 20.1137 7.60032 20.1135L7.60182 20.115Z" fill="black"/>
</svg>
