<svg width="20" height="20" viewBox="0 0 20 20" fill="none" xmlns="http://www.w3.org/2000/svg">
<path d="M4.16663 4.16675H15C15.663 4.16675 16.2989 4.43014 16.7677 4.89898C17.2366 5.36782 17.5 6.00371 17.5 6.66675V14.1667C17.5 14.8298 17.2366 15.4657 16.7677 15.9345C16.2989 16.4034 15.663 16.6667 15 16.6667H4.16663C3.50358 16.6667 2.8677 16.4034 2.39886 15.9345C1.93002 15.4657 1.66663 14.8298 1.66663 14.1667V6.66675C1.66663 6.00371 1.93002 5.36782 2.39886 4.89898C2.8677 4.43014 3.50358 4.16675 4.16663 4.16675ZM4.16663 5.00008C3.74996 5.00008 3.38329 5.14175 3.09996 5.39175L9.58329 9.58341L16.0666 5.39175C15.7833 5.14175 15.4166 5.00008 15 5.00008H4.16663ZM9.58329 10.5917L2.60829 6.06675C2.54163 6.25008 2.49996 6.45841 2.49996 6.66675V14.1667C2.49996 14.6088 2.67555 15.0327 2.98811 15.3453C3.30068 15.6578 3.7246 15.8334 4.16663 15.8334H15C15.442 15.8334 15.8659 15.6578 16.1785 15.3453C16.491 15.0327 16.6666 14.6088 16.6666 14.1667V6.66675C16.6666 6.45841 16.625 6.25008 16.5583 6.06675L9.58329 10.5917Z" fill="#404040"/>
</svg>
