<svg width="20" height="20" viewBox="0 0 20 20" fill="none" xmlns="http://www.w3.org/2000/svg">
<path d="M5.51329 15.8334C5.1294 15.8334 4.80913 15.7051 4.55246 15.4484C4.29579 15.1918 4.16718 14.8712 4.16663 14.4868V12.8843C4.16663 12.7659 4.20635 12.667 4.28579 12.5876C4.36524 12.5081 4.4644 12.4681 4.58329 12.4676C4.70218 12.467 4.80135 12.507 4.88079 12.5876C4.96024 12.6681 4.99996 12.767 4.99996 12.8843V14.4868C4.99996 14.6151 5.05329 14.7329 5.15996 14.8401C5.26663 14.9473 5.38413 15.0006 5.51246 15.0001H14.4875C14.6152 15.0001 14.7327 14.9468 14.84 14.8401C14.9472 14.7334 15.0005 14.6156 15 14.4868V12.8843C15 12.7659 15.0397 12.667 15.1191 12.5876C15.1986 12.5081 15.2977 12.4681 15.4166 12.4676C15.5355 12.467 15.6347 12.507 15.7141 12.5876C15.7936 12.6681 15.8333 12.767 15.8333 12.8843V14.4868C15.8333 14.8706 15.705 15.1909 15.4483 15.4476C15.1916 15.7043 14.8711 15.8329 14.4866 15.8334H5.51329ZM9.58329 5.77258L7.94079 7.41508C7.85968 7.4962 7.76329 7.5387 7.65163 7.54258C7.53996 7.54647 7.43829 7.50231 7.34663 7.41008C7.25774 7.31842 7.21246 7.22036 7.21079 7.11592C7.20913 7.01092 7.2544 6.91259 7.34663 6.82092L9.52829 4.63758C9.60163 4.56536 9.67607 4.51453 9.75163 4.48508C9.82774 4.45564 9.91052 4.44092 9.99996 4.44092C10.0894 4.44092 10.1722 4.45564 10.2483 4.48508C10.3244 4.51453 10.3988 4.56564 10.4716 4.63842L12.6533 6.82092C12.735 6.90203 12.7777 6.99759 12.7816 7.10758C12.785 7.21759 12.7425 7.31842 12.6541 7.41008C12.5619 7.50231 12.4627 7.54925 12.3566 7.55092C12.2505 7.55258 12.1513 7.50731 12.0591 7.41508L10.4166 5.77258V12.5643C10.4166 12.6831 10.3769 12.7823 10.2975 12.8618C10.218 12.9412 10.1188 12.9809 9.99996 12.9809C9.88107 12.9809 9.7819 12.9412 9.70246 12.8618C9.62301 12.7823 9.58329 12.6831 9.58329 12.5643V5.77258Z" fill="#404040"/>
</svg>
